<?xml version="1.0" encoding="UTF-8" standalone="no"?>
<svg
   data-name="Layer 1"
   viewBox="0 0 1080 1080"
   x="0px"
   y="0px"
   version="1.1"
   id="svg16"
   sodipodi:docname="noun-cvv-2628960.svg"
   width="1080"
   height="1080"
   inkscape:version="1.2.2 (732a01da63, 2022-12-09)"
   xmlns:inkscape="http://www.inkscape.org/namespaces/inkscape"
   xmlns:sodipodi="http://sodipodi.sourceforge.net/DTD/sodipodi-0.dtd"
   xmlns="http://www.w3.org/2000/svg"
   xmlns:svg="http://www.w3.org/2000/svg">
  <defs
     id="defs20" />
  <sodipodi:namedview
     id="namedview18"
     pagecolor="#ffffff"
     bordercolor="#000000"
     borderopacity="0.25"
     inkscape:showpageshadow="2"
     inkscape:pageopacity="0.0"
     inkscape:pagecheckerboard="0"
     inkscape:deskcolor="#d1d1d1"
     showgrid="false"
     inkscape:zoom="0.30438737"
     inkscape:cx="428.73001"
     inkscape:cy="512.50483"
     inkscape:window-width="1366"
     inkscape:window-height="705"
     inkscape:window-x="-8"
     inkscape:window-y="-8"
     inkscape:window-maximized="1"
     inkscape:current-layer="svg16" />
  <title
     id="title2">Card CVV</title>
  <path
     id="path4"
     d="M 86.017699,125.38635 A 86.113274,86.113274 0 0 0 0,211.40404 v 520.64695 a 86.113274,86.113274 0 0 0 86.017699,86.0037 H 502.5586 a 253.19071,253.19071 0 0 0 449.45555,0 H 993.9823 A 86.113274,86.113274 0 0 0 1080,732.03699 V 211.40404 a 86.113274,86.113274 0 0 0 -86.0177,-86.01769 z m 0,28.67256 H 993.9823 a 57.409646,57.409646 0 0 1 57.3451,57.34513 v 40.87148 H 28.672566 V 211.40404 A 57.409646,57.409646 0 0 1 86.017699,154.05891 Z M 28.672566,280.94809 H 1051.3274 v 81.99962 H 28.672566 Z m 0,110.67219 H 1051.3274 v 340.41671 a 57.409646,57.409646 0 0 1 -57.3451,57.34514 H 964.7684 A 253.20743,253.20743 0 0 0 523.68968,550.8641 a 14.204867,14.204867 0 0 0 -1.97872,2.70203 c -3.76884,5.23117 -7.34096,10.60431 -10.71952,16.119 H 181.59292 a 14.336283,14.336283 0 0 0 -14.33628,14.33629 v 119.46902 a 14.336283,14.336283 0 0 0 14.33628,14.33629 H 474.5627 a 251.53009,251.53009 0 0 0 15.24165,71.5554 H 86.017699 A 57.409646,57.409646 0 0 1 28.672566,732.03699 Z M 727.28636,476.7373 a 224.25292,224.25292 0 0 1 162.29122,69.49269 H 564.99983 A 224.25292,224.25292 0 0 1 727.28636,476.7373 Z m -185.53633,98.16526 h 371.07266 a 224.18602,224.18602 0 0 1 11.50358,234.15929 h -0.005 -394.07045 A 224.19319,224.19319 0 0 1 541.74993,574.90256 Z M 195.9292,598.3577 H 495.91779 A 251.40106,251.40106 0 0 0 474.3107,689.15416 H 195.9292 Z m 481.68418,22.53578 c -7.86106,0 -18.82571,4.87046 -18.82571,12.80557 a 11.404513,11.404513 0 0 0 0.44801,2.38938 l 1.17603,-0.23798 -1.16203,0.28935 41.52949,135.34534 c 2.11221,6.33903 9.46723,10.2762 19.1944,10.2762 7.79174,0 16.9289,-2.71066 19.20837,-10.30886 l 41.3008,-135.31734 0.1307,-0.49935 a 7.6030088,7.6030088 0 0 0 0.33602,-1.94138 c -0.002,-7.80132 -11.14864,-12.79159 -18.82572,-12.79157 -7.36407,0 -9.84045,3.52713 -10.61222,6.45413 L 719.96891,739.81651 688.23029,627.37563 c -0.77655,-2.95806 -3.25281,-6.48213 -10.61688,-6.48213 z m 123.65045,0 c -7.86106,0 -18.82572,4.87046 -18.82572,12.80557 a 11.404513,11.404513 0 0 0 0.44801,2.38938 l 1.17603,-0.23798 -1.16203,0.28935 41.52949,135.34534 c 2.11221,6.33903 9.46723,10.2762 19.1944,10.2762 7.79174,0 16.9289,-2.71066 19.20837,-10.30886 l 41.31014,-135.30336 0.12593,-0.49933 a 7.6030088,7.6030088 0 0 0 0.34067,-1.93671 c -0.01,-7.81803 -11.15795,-12.81026 -18.83503,-12.81024 -7.36407,0 -9.84045,3.52713 -10.61222,6.45413 L 843.61925,739.81651 811.88063,627.37563 c -0.77655,-2.95806 -3.2528,-6.48213 -10.61687,-6.48213 z m -200.4233,0.01 c -32.3259,0 -50.86766,18.38481 -50.86766,50.43832 v 59.99118 c 0,32.05591 18.45851,50.443 50.653,50.443 31.45615,0 52.59438,-17.59138 52.59438,-43.77419 0,-12.45345 -5.88842,-14.95697 -15.39098,-14.95697 -11.82744,0 -14.6584,5.40071 -14.95229,9.9262 -0.54717,7.64602 -1.56421,21.90109 -20.74374,21.90109 -14.47487,0 -21.81244,-7.92214 -21.81244,-23.53913 V 671.3418 c -0.002,-15.61458 7.19029,-23.53447 21.37843,-23.53447 17.6121,0 20.57094,10.78266 21.17306,20.13708 0.15054,4.5398 2.90231,9.96819 15.16698,9.96819 9.36876,0 15.17629,-2.50113 15.17629,-14.95697 0,-25.1506 -21.04788,-42.05217 -52.37503,-42.05215 z m -51.87101,216.8316 h 356.6337 A 224.36283,224.36283 0 0 1 727.28636,925.94105 224.36283,224.36283 0 0 1 548.96952,837.73463 Z"
     style="stroke-width:2.38938" />
</svg>
