<?xml version="1.0" encoding="UTF-8" standalone="no"?>
<svg
   version="1.1"
   x="0px"
   y="0px"
   viewBox="0 0 200 200"
   enable-background="new 0 0 100 100"
   xml:space="preserve"
   id="svg458"
   sodipodi:docname="noun-doodle-197599.svg"
   width="200"
   height="200"
   inkscape:version="1.2.2 (732a01da63, 2022-12-09)"
   xmlns:inkscape="http://www.inkscape.org/namespaces/inkscape"
   xmlns:sodipodi="http://sodipodi.sourceforge.net/DTD/sodipodi-0.dtd"
   xmlns="http://www.w3.org/2000/svg"
   xmlns:svg="http://www.w3.org/2000/svg"><defs
     id="defs462" /><sodipodi:namedview
     id="namedview460"
     pagecolor="#ffffff"
     bordercolor="#000000"
     borderopacity="0.25"
     inkscape:showpageshadow="2"
     inkscape:pageopacity="0.0"
     inkscape:pagecheckerboard="0"
     inkscape:deskcolor="#d1d1d1"
     showgrid="false"
     inkscape:zoom="1.152"
     inkscape:cx="54.253472"
     inkscape:cy="111.11111"
     inkscape:window-width="1366"
     inkscape:window-height="705"
     inkscape:window-x="1912"
     inkscape:window-y="524"
     inkscape:window-maximized="1"
     inkscape:current-layer="svg458" /><path
     d="m 110.57132,123.92688 c -0.22158,5.76123 -0.44317,10.41453 -0.44317,14.84625 0.22159,8.86343 1.10793,17.72686 -0.22158,26.59029 -0.22159,1.5511 0.22158,2.88062 0.22158,4.43172 0.22159,4.21013 0.22159,8.42026 0.44317,12.4088 0.22159,3.76696 0.66476,7.53392 0.88635,11.96563 -1.32952,0.88635 -3.1022,1.99428 -4.87489,2.65903 -2.88062,1.10793 -4.6533,0.22159 -5.09647,-2.88061 -0.44318,-3.76696 -0.66476,-7.7555 -0.22159,-11.52246 0.44317,-3.54538 0,-7.09075 -0.88634,-10.41453 -1.329527,-4.43172 -1.551113,-8.86344 -1.107941,-13.29515 0.221586,-1.77269 0,-3.54537 -0.221586,-5.53965 -0.443171,-5.31806 -0.886343,-10.63611 -1.329514,-15.95417 -0.664758,-6.86916 -1.107929,-13.95991 -1.772687,-21.27224 -3.102201,0.22159 -4.653301,1.99427 -6.647574,3.54537 -2.659029,1.99428 -5.539644,3.76696 -8.198674,5.53965 -0.443171,0.44317 -1.107929,0.66476 -1.772686,1.10793 -11.300875,10.19294 -22.823336,20.1643 -33.902626,30.35725 -5.096473,4.6533 -10.192946,9.52819 -15.067834,14.40308 -3.766958,3.76695 -7.533917,7.7555 -10.857703,11.74404 -2.65903,3.1022 -4.653302,6.42599 -7.312332,9.52819 C 8.420265,196.60702 5.5396497,196.8286 4.970345e-6,192.84006 5.0964781,187.96517 5.5396497,180.20967 10.636123,175.1132 c 4.21013,-4.21013 8.42026,-8.64185 12.408804,-13.07357 8.641846,-9.97136 19.056378,-18.17003 28.806153,-27.03346 8.863432,-7.97709 18.170035,-15.28942 25.925537,-24.37444 0.664758,-0.66476 1.107929,-1.5511 2.215858,-2.88061 -1.772686,-0.22159 -3.102201,-0.44318 -4.21013,-0.44318 -9.528189,1.10793 -19.056378,-0.22158 -28.584567,-0.22158 -4.874887,0 -9.749774,0.22158 -14.624662,0 -2.437444,0 -5.096473,-0.44317 -7.312331,-1.32952 -4.653302,-1.99427 -9.306603,-3.32378 -14.624662,-3.1022 -5.0964733,0 -7.0907454,-1.77268 -7.533917,-7.09074 1.7726864,-0.443172 3.3237869,-0.886343 5.0964732,-1.107929 7.5339168,-0.664757 15.0678338,-1.329515 22.3801648,-1.772686 6.425988,-0.221586 12.63039,-0.443172 19.056378,0 C 57.61231,93.126456 65.589399,92.018527 74.231245,91.35377 73.123316,86.922054 69.799529,84.706196 67.140499,82.268752 65.810985,81.160823 64.48147,80.496066 63.151955,79.388137 51.629494,69.859948 40.107033,60.110173 28.584572,50.360399 20.164312,43.269653 12.187223,35.735736 5.9828213,26.429133 5.5396497,25.764376 4.8748924,25.099618 4.4317208,24.656447 0.44317655,20.224731 -0.22158082,17.344116 4.210135,10.918128 5.5396497,8.9238558 7.3123361,8.2590984 9.3066082,9.5886132 12.187223,11.361299 15.067839,13.133986 17.283697,15.57143 c 6.647573,7.312331 13.959904,13.738319 21.493821,20.164306 0.664758,0.664758 1.551101,1.329515 2.215858,1.994273 10.636118,10.414532 21.272236,20.829064 31.908354,31.243596 5.318059,5.096473 10.636118,10.192946 16.175763,15.067834 1.329514,1.107929 2.880615,1.994272 5.318059,3.766958 0,-2.659029 0.221585,-4.21013 0,-5.76123 -1.994272,-15.28942 -2.437444,-31.022011 -3.323787,-46.976188 -0.221586,-4.653302 -1.107929,-9.306603 -1.772687,-13.959905 -0.664757,-4.431716 -0.886343,-8.42026 0.664758,-12.8519756 1.5511,-4.6533016 4.874887,-6.6475737 9.306603,-7.0907453 1.329521,-0.22158575 2.659041,0 4.431721,0 2.21586,26.8118809 4.21013,53.1805899 6.42599,80.2140559 1.5511,-0.443171 2.65903,-0.664757 3.54537,-1.329514 8.86344,-7.312332 18.39162,-14.181491 25.48237,-23.266508 1.32951,-1.772687 2.88062,-3.323787 4.43172,-4.874888 9.08501,-9.085017 17.94845,-18.39162 27.25505,-27.476638 6.86916,-6.869159 14.18149,-13.295147 21.27223,-19.7211352 1.5511,-1.3295148 2.88062,-2.8806153 5.31806,-1.3295148 2.21586,1.3295148 2.88062,3.1022011 2.43745,5.9828164 -0.44317,3.1022006 -1.77269,5.5396446 -4.21013,7.7555026 -6.86916,6.425988 -13.73832,12.851976 -20.16431,19.49955 -5.98282,6.425988 -11.74405,13.073561 -17.50528,19.721135 -0.44317,0.664757 -0.88634,1.329515 -1.5511,1.994272 -3.32379,2.880615 -7.53392,5.318059 -10.19294,8.863432 -2.65903,3.545372 -4.87489,7.090745 -8.19868,9.97136 -4.87489,4.21013 -9.3066,9.085018 -13.9599,13.738319 1.5511,1.772687 3.54537,1.107929 5.09647,1.107929 10.19295,0.221586 20.38589,0.443172 30.57884,0.443172 9.08502,0 17.94845,0 27.03347,0 1.99427,0 3.98854,0.221586 5.98281,0.443171 1.99427,0.221586 3.76696,1.107929 3.76696,3.323787 0.22159,2.215858 -0.22159,4.431713 -2.65903,5.539643 -1.77269,0.88634 -3.76696,1.32951 -5.76123,1.5511 -3.54537,0.44317 -7.31233,0.88634 -11.07929,0.66476 -6.42599,-0.22159 -12.63039,0.66476 -18.83479,2.21586 -1.32952,0.22158 -2.65903,0.44317 -3.98855,0.22158 -11.07929,-1.32951 -21.93699,1.5511 -33.01628,1.5511 -0.22158,0 -0.66476,0.22159 -1.32951,0.66476 0.66475,0.88634 1.10793,1.99427 1.99427,2.65903 2.65903,2.43744 5.09647,4.87489 7.97709,6.86916 7.31233,5.31806 13.29514,11.74405 19.05637,18.39162 8.19868,9.3066 16.61894,18.39162 24.59603,27.69822 5.98281,7.09075 11.52246,14.84625 17.0621,22.15858 1.99428,2.65903 4.21013,5.31806 6.20441,7.7555 1.10792,1.32952 2.21585,3.10221 0.44317,4.43172 -0.88635,0.66476 -3.1022,0.22159 -3.98855,-0.44317 -7.97709,-5.76123 -15.95417,-11.52246 -22.15858,-19.27797 -5.53964,-7.09074 -11.74404,-13.73831 -17.94845,-20.1643 -3.76695,-3.76696 -8.19867,-6.86916 -12.18721,-10.19295 -1.99428,-1.77268 -4.21013,-3.54537 -5.76123,-5.53964 -4.65331,-5.53965 -10.19295,-9.97136 -16.84052,-13.29515 -2.21586,-1.32952 -4.21013,-3.32379 -7.75551,-5.76123 z"
     id="path452"
     style="stroke-width:2.21586" /></svg>
