<?xml version="1.0" encoding="UTF-8" standalone="no"?>
<svg
   version="1.1"
   x="0px"
   y="0px"
   viewBox="0 0 200 200"
   enable-background="new 0 0 100 100"
   xml:space="preserve"
   id="svg14"
   sodipodi:docname="noun-doodle-197636.svg"
   width="200"
   height="200"
   inkscape:version="1.2.2 (732a01da63, 2022-12-09)"
   xmlns:inkscape="http://www.inkscape.org/namespaces/inkscape"
   xmlns:sodipodi="http://sodipodi.sourceforge.net/DTD/sodipodi-0.dtd"
   xmlns="http://www.w3.org/2000/svg"
   xmlns:svg="http://www.w3.org/2000/svg"><defs
     id="defs18" /><sodipodi:namedview
     id="namedview16"
     pagecolor="#ffffff"
     bordercolor="#000000"
     borderopacity="0.25"
     inkscape:showpageshadow="2"
     inkscape:pageopacity="0.0"
     inkscape:pagecheckerboard="0"
     inkscape:deskcolor="#d1d1d1"
     showgrid="false"
     inkscape:zoom="1.629174"
     inkscape:cx="83.17098"
     inkscape:cy="106.80259"
     inkscape:window-width="1366"
     inkscape:window-height="705"
     inkscape:window-x="1912"
     inkscape:window-y="524"
     inkscape:window-maximized="1"
     inkscape:current-layer="svg14" /><g
     id="g8"
     transform="matrix(2.2217102,0,0,2.2217102,-11.115411,-11.090113)"><path
       d="m 68.1,24.7 c 1.3,0.5 2.4,1 3.6,1.5 1,0.4 1.6,1.1 1.4,2.3 -0.2,1.2 -1.3,1.3 -2.2,1.3 -2.2,0.1 -4.2,-0.6 -5.4,-2.6 -1.3,-2 -2.3,-4.2 -3.4,-6.3 -0.3,-0.6 -0.1,-1.4 0,-2.1 1.4,-4.7 3.7,-8.7 8,-11.2 0.1,0 0.1,-0.1 0.2,-0.1 1.7,-0.9 3.2,-2.4 4.9,-2.5 3,-0.1 6,0.7 8.5,2.6 0.8,0.6 1.7,1.3 2.6,1.6 3.4,1 4.7,3.8 5.9,6.5 1,2.2 1.6,4.5 2,6.9 0.3,1.6 0,3.3 -0.2,5 -0.4,4.4 -2.7,7.7 -6.1,10.4 -2.9,2.3 -5.7,4.6 -8.6,6.8 -5.1,3.9 -10.9,6.3 -17.2,7.4 -4.2,0.7 -8.4,1.2 -12.7,1 -2.1,-0.1 -4.3,0.5 -6.4,0.7 -2.7,0.3 -5.4,0.5 -8.1,0.7 -2.4,0.2 -4.8,0.5 -7.1,0.7 -1.6,0.1 -3.2,0.2 -4.8,0.1 C 20.4,55.3 17.9,55.1 15.3,55 11.5,55 9,53 6.6,49.7 c 0.8,0 1.2,-0.1 1.7,-0.1 5.3,0.2 10.6,1.4 16,0.3 1.4,-0.3 2.9,-0.1 4.3,-0.3 3.6,-0.3 7.2,-0.7 10.7,-1 1.2,-0.1 2.4,-0.5 3.6,-0.4 5.3,0.4 10.4,-0.5 15.5,-1.5 4.9,-0.9 9.3,-2.8 13.2,-5.9 3.4,-2.7 6.6,-5.6 10.1,-8 1.4,-1 2.6,-1.9 3.4,-3.3 3,-5.1 3,-10.5 0.9,-15.9 -0.1,-0.3 -0.5,-0.7 -0.8,-0.9 -2.3,-1.8 -6.1,-1.8 -8.5,-0.1 -1,0.7 -2,1.4 -3,2 -2.8,2.1 -5.3,6.3 -5.6,10.1 z"
       id="path2" /><path
       d="m 73.1,78.2 c -0.9,0.2 -1.6,0.5 -2.2,0.4 -3.6,-0.6 -8.4,5 -6,9.6 0.3,0.5 0.8,1.1 1.4,1.2 1.3,0.2 2.8,0.5 4,0.2 2.7,-0.7 5.4,-1.5 7.9,-2.6 2.9,-1.2 5,-3.4 6.3,-6.3 1,-2.1 2.1,-4.1 2.4,-6.5 0.5,-4.1 -0.6,-6 -4.5,-7.3 -3.6,-1.2 -7.4,-1.4 -11.1,-1.4 -1.2,0 -2.4,-0.1 -3.6,-0.1 -1.2,0 -2.4,0 -3.6,0.1 -4.8,0.4 -9.5,0.8 -14.3,1.2 -0.8,0.1 -1.6,0.1 -2.4,0.2 -2.4,0.3 -4.8,0.6 -7.1,0.9 -1,0.1 -2.1,0.1 -3.1,0.5 -3,1 -6,0.9 -9,0.7 -2.5,-0.2 -5.1,-0.1 -7.6,0.2 -2.3,0.3 -4.4,0.3 -6.6,-0.5 -1.4,-0.6 -2.9,-1 -4.3,-1.6 C 8.5,66.6 7.5,65.7 7,64.4 7.2,64.2 7.4,64 7.5,64 c 3.4,0.6 6.8,0.2 10.3,-0.2 2.4,-0.2 4.8,0 7.2,0 1.6,0 3.2,-0.3 4.7,-0.5 2.2,-0.3 4.4,-0.8 6.6,-1.2 1.5,-0.2 3,-0.4 4.5,-0.6 2.1,-0.2 4.1,-0.3 6.2,-0.5 4.1,-0.4 8.1,-0.8 12.2,-1.2 1,-0.1 1.9,-0.2 2.9,-0.2 3.2,0.1 6.4,0.3 9.6,0.5 6.2,0.4 11.8,2.7 16.9,6.3 3.2,2.2 3.9,5.5 4.4,9 0.5,4.2 -1.3,7.8 -3.7,11.1 -0.4,0.6 -1.1,1 -1.7,1.3 -3.2,1.9 -6.7,3.4 -9.7,5.6 -3.3,2.4 -10,2 -12.8,-0.4 -2.8,-2.4 -5,-5.2 -7,-8.1 -1.1,-1.6 -1.1,-3.7 0.3,-5.6 0.8,-1.1 1.7,-2.1 2.7,-3.1 2.6,-2.6 5.7,-3.1 8.9,-1.3 1.1,0.7 2.6,1.1 3.1,3.3 z"
       id="path4" /><path
       d="m 5.7,31.1 c 0.7,-0.1 1.3,-0.3 2,-0.2 2.5,0.3 5,1 7.6,1.1 3.3,0.2 6.7,0.3 10.1,0 2.9,-0.2 5.7,-0.7 8.5,-1.4 4.4,-1.2 8,-3.7 10.1,-7.8 0.6,-1.2 0.8,-2.7 0.9,-4.1 0.1,-1.4 -0.2,-2.9 -0.4,-4.3 -0.2,-1.3 -0.8,-1.7 -2.2,-1.6 -1.9,0.2 -4.5,2 -5.6,4 0.6,1 1.2,2 1.7,3.1 0.4,1.1 0,1.7 -1.2,1.7 -1.3,0 -2.6,-0.1 -3.5,-1.3 C 32.8,19.2 31.9,18.1 31,17 30.2,16 30.1,14.8 30.4,13.6 31.5,9.2 37.2,6.3 41.3,8.3 c 2.9,1.4 5.9,2.9 8,5.6 0.3,0.4 0.9,0.9 1,1.3 0.8,3.5 1.9,7 0.8,10.6 -0.6,2.1 -1.8,3.8 -3.6,5.3 -4,3.2 -8.6,4.9 -13.6,5.3 -2.1,0.2 -4.3,0.4 -6.4,0.7 C 23,37.7 18.6,36.8 14.1,36.3 11.5,36 9.4,34.9 7.5,33.3 6.9,32.8 6.3,32.3 5.7,31.8 c 0,-0.3 0,-0.5 0,-0.7 z"
       id="path6" /></g></svg>
