<?xml version="1.0" encoding="UTF-8" standalone="no"?>
<svg
   version="1.1"
   x="0px"
   y="0px"
   viewBox="0 0 200 200"
   enable-background="new 0 0 100 100"
   xml:space="preserve"
   id="svg609"
   sodipodi:docname="noun-doodle-197607.svg"
   width="200"
   height="200"
   inkscape:version="1.2.2 (732a01da63, 2022-12-09)"
   xmlns:inkscape="http://www.inkscape.org/namespaces/inkscape"
   xmlns:sodipodi="http://sodipodi.sourceforge.net/DTD/sodipodi-0.dtd"
   xmlns="http://www.w3.org/2000/svg"
   xmlns:svg="http://www.w3.org/2000/svg"><defs
     id="defs613" /><sodipodi:namedview
     id="namedview611"
     pagecolor="#ffffff"
     bordercolor="#000000"
     borderopacity="0.25"
     inkscape:showpageshadow="2"
     inkscape:pageopacity="0.0"
     inkscape:pagecheckerboard="0"
     inkscape:deskcolor="#d1d1d1"
     showgrid="false"
     inkscape:zoom="1.152"
     inkscape:cx="53.385417"
     inkscape:cy="131.07639"
     inkscape:window-width="1366"
     inkscape:window-height="705"
     inkscape:window-x="1912"
     inkscape:window-y="524"
     inkscape:window-maximized="1"
     inkscape:current-layer="svg609" /><g
     id="g603"
     transform="matrix(2.2243273,0,0,2.2243273,-11.226777,-11.219553)"><path
       d="m 66,34.1 c 1.9,-1.3 3.6,-2.4 5.3,-3.6 3.4,-2.4 6.7,-5 10.1,-7.3 2,-1.3 4.1,-2.5 6.3,-3.5 1,-0.4 2.3,-0.4 3.3,-0.1 1.9,0.6 2.2,2.7 0.7,3.9 -4.7,3.9 -9.4,7.8 -14.3,11.4 -1.9,1.5 -4.3,2.4 -6.5,3.5 -1.2,0.6 -2.1,0.1 -2.8,-0.8 -0.7,-1 -1.3,-2.1 -2.1,-3.5 z"
       id="path585" /><path
       d="m 57.6,61.1 c 0.7,0.9 1.5,1.7 2.1,2.6 4,6.7 8,13.4 11.2,20.5 0.9,2.1 0.5,4.2 0.1,6.2 -0.1,0.5 -0.9,1.1 -1.5,1.3 -0.2,0.1 -0.9,-0.4 -1.2,-0.8 -3.2,-5.3 -6.4,-10.6 -9.5,-16 -1.3,-2.3 -1.6,-4.8 -1.5,-7.5 0.1,-2 -0.1,-4.1 -0.2,-6.1 0.3,0 0.4,-0.1 0.5,-0.2 z"
       id="path587" /><path
       d="m 32,60.1 c 0.3,0.4 0.4,0.4 0.4,0.5 -2,6.4 -4.8,12.1 -11.7,14.7 -2,0.8 -3.9,1.6 -5.9,2.5 -1.1,0.5 -2,0.5 -2.9,-0.4 -0.9,-0.9 -1.4,-2 -0.8,-3.1 0.8,-1.4 1.6,-2.7 2.7,-3.9 3.1,-3.2 7.2,-4.7 11,-6.9 1.5,-0.9 3.1,-1.6 4.7,-2.4 0.8,-0.4 1.7,-0.7 2.5,-1 z"
       id="path589" /><path
       d="m 78.7,52.1 c 1.2,0.3 3.5,0.9 5.7,1.6 0.9,0.3 2,0.7 2.4,1.4 0.9,1.6 1.6,3.3 2,5.1 0.3,1.2 -1.1,2.2 -2.6,2 -5.7,-0.8 -11.2,-2.5 -16.4,-5 -1.5,-0.8 -2.6,-3.7 -2.2,-5.4 0.3,-1.3 1.4,-1.6 2.5,-1.4 2.6,0.4 5.1,1 8.6,1.7 z"
       id="path591" /><path
       d="m 57.9,29.8 c -1.6,-1.7 -2.2,-3 -2,-4.9 0.3,-2.4 0,-4.8 0.2,-7.1 0.4,-3.2 0.9,-6.5 1.6,-9.6 0.4,-1.8 2.1,-2.6 3.9,-2.5 1.7,0.1 3.5,1.1 3.9,2.7 0.3,1.4 0.6,3.1 0.2,4.4 -1.7,4.5 -3.7,8.8 -5.6,13.2 -0.5,1.1 -1.3,2.2 -2.2,3.8 z"
       id="path593" /><path
       d="m 45,65 c -0.1,5.8 -0.5,11.4 -3.1,16.6 -1.5,3.1 -2.3,6.7 -3.4,10 -0.2,0.6 -0.3,1.2 -0.5,1.8 -0.3,0.9 -1,1.8 -1.9,1.5 -0.7,-0.2 -1.6,-1.1 -1.7,-1.7 -0.1,-2.2 -0.2,-4.5 0.3,-6.6 1.2,-4.4 2.9,-8.6 5.1,-12.5 1.2,-2.1 2,-4.3 3.1,-6.5 0.6,-0.9 1.4,-1.7 2.1,-2.6 z"
       id="path595" /><path
       d="m 41.9,25.6 c -2.4,1.3 -2.6,1.3 -3.9,-0.2 -4.3,-4.7 -8.3,-9.6 -11.4,-15.2 -1.1,-2 -1,-3.3 0.4,-4.5 1.3,-1 3.2,-0.9 4.5,0.6 1,1.2 1.8,2.6 2.6,4 2.6,5 5.2,10.1 7.8,15.3 z"
       id="path597" /><path
       d="m 32.4,34 c -0.1,3.5 -2.8,4.5 -5.8,3.4 -3.9,-1.5 -7.9,-3.2 -11.8,-4.8 -1.2,-0.5 -2.5,-1.1 -3.4,-2 -1.5,-1.5 -1.2,-2.5 0.7,-3.4 1.6,-0.8 3.1,-0.9 4.8,-0.2 4.8,2.1 9.8,3.7 14.3,6.4 0.4,0.1 0.8,0.4 1.2,0.6 z"
       id="path599" /><path
       d="m 30.1,47.3 c -2.3,2.7 -4.7,4.7 -7.9,5 -4.3,0.4 -8.7,0.5 -13,0.6 -1.4,0.1 -2.4,-1.5 -1.5,-2.8 1,-1.5 2.2,-3.1 4.2,-3.4 5.4,-0.7 10.8,-1.3 16.1,0 0.5,0.1 1,0.3 2.1,0.6 z"
       id="path601" /></g></svg>
