<?xml version="1.0" encoding="UTF-8" standalone="no"?>
<!-- Created with Inkscape (http://www.inkscape.org/) -->

<svg
   width="661.45831mm"
   height="285.75mm"
   viewBox="0 0 661.45831 285.75"
   version="1.1"
   id="svg5"
   xml:space="preserve"
   inkscape:version="1.2.2 (732a01da63, 2022-12-09)"
   sodipodi:docname="cenibra.svg"
   xmlns:inkscape="http://www.inkscape.org/namespaces/inkscape"
   xmlns:sodipodi="http://sodipodi.sourceforge.net/DTD/sodipodi-0.dtd"
   xmlns="http://www.w3.org/2000/svg"
   xmlns:svg="http://www.w3.org/2000/svg"><sodipodi:namedview
     id="namedview7"
     pagecolor="#ffffff"
     bordercolor="#000000"
     borderopacity="0.25"
     inkscape:showpageshadow="2"
     inkscape:pageopacity="0.0"
     inkscape:pagecheckerboard="0"
     inkscape:deskcolor="#d1d1d1"
     inkscape:document-units="mm"
     showgrid="false"
     inkscape:zoom="0.086772607"
     inkscape:cx="1532.7418"
     inkscape:cy="2950.2398"
     inkscape:window-width="1366"
     inkscape:window-height="705"
     inkscape:window-x="-8"
     inkscape:window-y="-8"
     inkscape:window-maximized="1"
     inkscape:current-layer="layer1" /><defs
     id="defs2" /><g
     inkscape:label="Camada 1"
     inkscape:groupmode="layer"
     id="layer1"><path
       id="path12432"
       style="color:#000000;fill:#787774;stroke-width:2.71918;stroke-linecap:square;-inkscape-stroke:none;paint-order:fill markers stroke"
       d="M 27.489278 29.880347 C 12.3528 29.880347 2.5066344e-15 42.233147 0 57.369625 L 0 228.38038 C 0 243.51684 12.3528 255.86965 27.489278 255.86965 L 199.21678 255.86965 C 214.35329 255.86965 226.71123 243.51684 226.71123 228.38038 L 226.71123 57.369625 C 226.71123 42.233147 214.35329 29.880347 199.21678 29.880347 L 27.489278 29.880347 z M 27.489278 40.757202 L 199.21678 40.757202 C 208.51574 40.757202 215.83437 48.070661 215.83437 57.369625 L 215.83437 228.38038 C 215.83437 237.67934 208.51574 244.9928 199.21678 244.9928 L 27.489278 244.9928 C 18.190341 244.9928 10.876855 237.67934 10.876855 228.38038 L 10.876855 57.369625 C 10.876855 48.070661 18.190341 40.757202 27.489278 40.757202 z M 112.63912 75.235718 C 95.895669 75.235718 82.254928 88.876453 82.254928 105.61991 C 82.254928 113.35241 85.1665 120.42143 89.946965 125.79232 C 88.37697 125.5408 86.767959 125.40733 85.128654 125.40733 C 68.385201 125.40733 54.744462 139.04804 54.744462 155.79152 C 54.744462 172.53495 68.385201 186.1752 85.128654 186.1752 C 93.80876 186.1752 101.65588 182.50767 107.20121 176.644 L 107.20121 205.07637 A 5.438351 5.438351 0 0 0 112.63912 210.51428 A 5.438351 5.438351 0 0 0 118.07703 205.07637 L 118.07703 175.01257 C 123.65531 181.82027 132.12279 186.1752 141.58257 186.1752 C 158.32603 186.1752 171.96676 172.53495 171.96676 155.79152 C 171.96676 139.04804 158.32603 125.40733 141.58257 125.40733 C 139.33517 125.40733 137.14473 125.65485 135.03465 126.12098 C 139.99133 120.7115 143.02331 113.51121 143.02331 105.61991 C 143.02331 88.876453 129.3826 75.235718 112.63912 75.235718 z M 112.63912 81.508203 C 125.99398 81.508203 136.75031 92.265057 136.75031 105.61991 C 136.75031 117.10373 128.79709 126.67031 118.07703 129.12545 L 118.07703 103.21385 A 5.438351 5.438351 0 0 0 112.63912 97.775944 A 5.438351 5.438351 0 0 0 107.20121 103.21385 L 107.20121 129.12545 C 96.480031 126.67031 88.522245 117.10373 88.522245 105.61991 C 88.522245 92.265057 99.284299 81.508203 112.63912 81.508203 z M 315.92955 110.36432 C 306.67823 110.36432 299.52147 113.50664 294.28488 119.70329 C 289.04828 125.89993 286.51688 133.6676 286.51688 142.91892 C 286.51688 152.86848 289.04828 160.81052 294.28488 166.65804 C 299.4342 172.50559 306.41595 175.38568 315.23089 175.38568 C 322.9985 175.38568 329.2827 173.20366 333.99563 168.83982 C 338.70858 164.476 341.50158 158.2793 342.19978 150.42441 L 333.99563 150.42441 C 333.29742 156.27193 331.46454 160.72343 328.3226 163.77812 C 325.18063 166.83279 320.90416 168.31634 315.66755 168.31634 C 309.20909 168.31634 304.05968 166.04687 300.39407 161.50849 C 296.64117 156.9701 294.80836 150.77376 294.80836 142.83159 C 294.80836 135.67491 296.55368 129.65249 300.04473 124.76499 C 303.53581 119.87751 308.7727 117.43418 315.66755 117.43418 C 320.29322 117.43418 324.13316 118.65572 327.27511 120.92492 C 330.41707 123.19412 332.51205 126.42332 333.38482 130.43803 L 341.58897 130.43803 C 341.06531 124.15412 338.2722 119.26688 333.21015 115.68855 C 328.23539 112.19748 322.47531 110.36432 315.92955 110.36432 z M 352.58571 111.76114 L 352.58571 173.90205 L 396.04921 173.90205 L 396.04921 166.74538 L 360.78986 166.74538 L 360.78986 145.27537 L 393.34395 145.27537 L 393.34395 138.38018 L 360.78986 138.38018 L 360.78986 118.91781 L 395.61306 118.91781 L 395.61306 111.76114 L 352.58571 111.76114 z M 405.56284 111.76114 L 405.56284 173.90205 L 413.41766 173.90205 L 413.41766 124.06685 L 446.05908 173.90205 L 455.31019 173.90205 L 455.31019 111.76114 L 447.36804 111.76114 L 447.36804 162.20715 L 414.55196 111.76114 L 405.56284 111.76114 z M 469.27472 111.76114 L 469.27472 173.90205 L 477.47887 173.90205 L 477.47887 111.76114 L 469.27472 111.76114 z M 491.5302 111.76114 L 491.5302 173.90205 L 517.10229 173.90205 C 532.81207 173.90205 540.66726 168.05452 540.66726 156.35945 C 540.66726 152.25744 539.61997 148.85375 537.52533 146.14819 C 535.43069 143.35533 532.55054 141.6094 528.71036 140.73663 C 531.50322 139.68931 533.68529 138.03134 535.34355 135.58759 C 537.00181 133.14384 537.87415 130.43813 537.87415 127.38344 C 537.87415 121.97228 535.95399 118.04497 532.20111 115.60121 C 528.4482 113.07021 523.73543 111.84847 518.06243 111.84847 L 491.5302 111.76114 z M 551.31467 111.76114 L 551.31467 173.90205 L 559.51882 173.90205 L 559.51882 147.021 L 575.83979 147.021 C 581.42549 147.021 585.09111 147.89339 587.0112 149.63893 C 588.93129 151.38446 589.97868 154.96293 590.32779 160.19952 C 590.32779 160.37407 590.32782 161.15955 590.41512 162.55597 C 590.41512 163.9524 590.50202 165.08701 590.58927 165.78523 C 590.58927 166.48344 590.67674 167.44382 590.85127 168.66567 C 590.93857 169.88755 591.11293 170.8475 591.37476 171.72027 C 591.63659 172.59304 591.98585 173.37839 592.42224 173.90205 L 601.84802 173.90205 C 601.49891 173.55294 601.15023 173.20361 600.88839 172.76723 C 600.53929 172.33085 600.27747 171.80727 600.10291 171.2836 C 599.84108 170.75994 599.66612 170.23635 599.49157 169.79997 C 599.31701 169.36358 599.1427 168.75256 599.05542 168.05434 C 598.88087 167.35613 598.79342 166.83243 598.79342 166.39604 C 598.70612 166.04696 598.6187 165.43637 598.53142 164.5636 C 598.44414 163.77811 598.44461 163.25441 598.44461 162.9053 C 598.44461 162.55619 598.35728 161.94511 598.35728 161.07234 C 598.26998 160.19957 598.26994 159.58854 598.26994 159.32671 C 598.09539 156.97024 598.00783 155.13755 597.83328 153.91567 C 597.65872 152.6938 597.22264 151.29725 596.69898 149.72626 C 596.08804 148.15528 595.12775 146.93362 593.90587 146.06085 C 592.59672 145.18808 590.93828 144.57688 588.84364 144.05322 C 591.9856 143.18045 594.60423 141.34771 596.52431 138.55485 C 598.4444 135.762 599.49157 132.62002 599.49157 128.9544 C 599.49157 117.52115 592.50937 111.76114 578.63238 111.76114 L 551.31467 111.76114 z M 627.9441 111.76114 L 603.50632 173.90205 L 612.23395 173.90205 L 619.30328 154.87582 L 645.39937 154.87582 L 652.29403 173.90205 L 661.45833 173.90205 L 637.19521 111.76114 L 627.9441 111.76114 z M 559.51882 118.74314 L 577.14875 118.74314 C 581.51259 118.74314 584.91632 119.52854 587.44735 121.01225 C 589.97835 122.49595 591.28794 125.28913 591.28794 129.4784 C 591.28794 131.48576 590.93873 133.14368 590.32779 134.54011 C 589.62958 135.93654 588.84406 137.07116 587.88401 137.76937 C 586.92397 138.55486 585.70173 139.16589 584.13075 139.515 C 582.55979 139.95138 581.07633 140.2132 579.7672 140.30048 C 578.45805 140.47503 576.88706 140.47515 574.96697 140.47515 L 559.51882 140.47515 L 559.51882 118.74314 z M 499.55969 118.83047 L 515.09517 118.83047 C 516.84071 118.83047 518.32413 118.83051 519.45873 118.91781 C 520.59333 119.00511 521.90291 119.26684 523.29932 119.61595 C 524.69575 119.96505 525.82991 120.40139 526.6154 121.09958 C 527.48817 121.7978 528.1867 122.75763 528.71036 123.97951 C 529.3213 125.20138 529.58318 126.77278 529.58318 128.60559 C 529.58318 130.35112 529.32124 131.92201 528.62303 133.23114 C 527.92481 134.45301 527.13934 135.41286 526.26659 136.11107 C 525.39382 136.80929 524.1717 137.33293 522.68799 137.68204 C 521.11701 138.03112 519.8078 138.2061 518.58592 138.29337 C 517.36405 138.38067 515.96795 138.46752 514.30969 138.46752 L 499.55969 138.46752 L 499.55969 118.83047 z M 632.39499 119.61595 L 642.95559 148.32996 L 621.65973 148.32996 L 632.39499 119.61595 z M 85.128654 131.67982 C 92.268678 131.67982 98.666066 134.75612 103.07536 139.65866 L 82.499357 151.03368 A 5.438351 5.438351 0 0 0 80.370805 158.42599 A 5.438351 5.438351 0 0 0 87.763118 160.55506 L 107.20121 149.80688 L 107.20121 165.54752 C 103.4665 174.01846 95.00748 179.9084 85.128654 179.9084 C 71.773803 179.9084 61.016947 169.14637 61.016947 155.79152 C 61.016947 142.43665 71.773803 131.67982 85.128654 131.67982 z M 141.58257 131.67982 C 154.93742 131.67982 165.69531 142.43665 165.69531 155.79152 C 165.69531 169.14637 154.93742 179.9084 141.58257 179.9084 C 130.09674 179.9084 120.53013 171.94775 118.07703 161.22375 L 118.07703 150.35878 C 118.11433 150.19617 118.15327 150.03539 118.19382 149.87406 L 137.51047 160.55506 A 5.438351 5.438351 0 0 0 144.9033 158.42599 A 5.438351 5.438351 0 0 0 142.7732 151.03368 L 123.16819 140.19558 C 127.58615 134.98181 134.18543 131.67982 141.58257 131.67982 z M 119.18704 135.28993 C 118.80521 135.70661 118.4355 136.13402 118.07703 136.57151 L 118.07703 135.51473 C 118.44977 135.44703 118.81911 135.37124 119.18704 135.28993 z M 499.55969 144.92604 L 514.57169 144.92604 L 518.84792 144.92604 C 519.72069 144.92604 521.02979 145.10081 522.77533 145.27537 C 524.43357 145.44992 525.74263 145.71186 526.6154 146.23552 C 527.48817 146.67191 528.44853 147.28248 529.49585 148.06796 C 530.54316 148.76617 531.24124 149.81341 531.67762 151.12256 C 532.11401 152.34444 532.28844 153.91576 532.28844 155.6613 C 532.28844 157.75594 532.02702 159.50131 531.32881 160.98501 C 530.71787 162.4687 529.93241 163.60344 528.97236 164.38893 C 528.0996 165.17442 526.79008 165.78552 525.2191 166.2219 C 523.64814 166.57099 522.16468 166.83277 520.85555 166.92004 C 519.63368 167.00734 517.97529 167.09419 515.88066 167.09419 L 499.47236 167.09419 L 499.55969 144.92604 z " /></g></svg>
