<?xml version="1.0" encoding="UTF-8" standalone="no"?>
<!-- Created with Inkscape (http://www.inkscape.org/) -->

<svg
   width="661.45831mm"
   height="285.75mm"
   viewBox="0 0 661.45831 285.75"
   version="1.1"
   id="svg5"
   xml:space="preserve"
   inkscape:version="1.2.2 (732a01da63, 2022-12-09)"
   sodipodi:docname="colegio_pitagoras.svg"
   xmlns:inkscape="http://www.inkscape.org/namespaces/inkscape"
   xmlns:sodipodi="http://sodipodi.sourceforge.net/DTD/sodipodi-0.dtd"
   xmlns="http://www.w3.org/2000/svg"
   xmlns:svg="http://www.w3.org/2000/svg"><sodipodi:namedview
     id="namedview7"
     pagecolor="#ffffff"
     bordercolor="#000000"
     borderopacity="0.25"
     inkscape:showpageshadow="2"
     inkscape:pageopacity="0.0"
     inkscape:pagecheckerboard="0"
     inkscape:deskcolor="#d1d1d1"
     inkscape:document-units="mm"
     showgrid="false"
     inkscape:zoom="0.122715"
     inkscape:cx="1165.3017"
     inkscape:cy="1434.2175"
     inkscape:window-width="1366"
     inkscape:window-height="705"
     inkscape:window-x="-8"
     inkscape:window-y="-8"
     inkscape:window-maximized="1"
     inkscape:current-layer="layer1" /><defs
     id="defs2" /><g
     inkscape:label="Camada 1"
     inkscape:groupmode="layer"
     id="layer1"><path
       id="path10107"
       style="fill:#787774;fill-opacity:1;stroke-width:0.177101"
       d="M 449.36025,4.4687723e-4 C 449.33126,-0.02893814 445.7716,1.3946107 441.45018,3.1637166 c -4.32141,1.7690991 -9.0921,3.7165896 -10.60188,4.3279163 -5.8118,2.3532299 -9.84721,3.9983841 -26.47669,10.7938571 -9.44836,3.860984 -20.1276,8.218111 -23.73162,9.682477 -3.604,1.464367 -6.79362,2.771058 -7.08786,2.903846 -0.29426,0.132788 -1.3303,0.55828 -2.30232,0.945344 -1.70009,0.676971 -3.52534,1.417705 -7.70012,3.125564 -1.07146,0.438331 -2.82476,1.155598 -3.89623,1.593915 -2.1055,0.861346 -3.85752,1.574596 -9.20928,3.749228 -1.89941,0.771805 -20.4924,8.372304 -41.31759,16.88968 -35.09063,14.351848 -37.85713,15.513202 -37.77037,15.858893 0.0716,0.285542 -0.058,0.473023 -0.55311,0.799036 -1.03818,0.683651 -1.38462,1.284475 -1.37391,2.384643 0.009,0.911394 1.16338,3.261785 23.80252,48.468064 13.08612,26.13061 24.07991,47.94859 24.43068,48.48432 0.40579,0.61979 0.87964,1.09235 1.30301,1.29921 0.65606,0.32056 0.67667,0.31983 1.47527,-0.0667 0.44548,-0.21565 0.85222,-0.50145 0.90349,-0.63507 0.16447,-0.42865 0.40429,-0.26261 0.80112,0.55413 0.21297,0.43837 0.4422,0.7369 0.50916,0.66379 0.067,-0.0731 3.25126,-4.86442 7.07646,-10.64754 l 6.95503,-10.51472 -4.84192,-9.71637 c -2.66313,-5.34392 -4.80758,-9.75076 -4.76515,-9.79316 0.0425,-0.0425 4.60249,-0.009 10.13319,0.0754 5.75438,0.0874 10.46429,0.0861 11.01073,-0.003 1.0662,-0.17352 1.91358,-0.55188 2.57559,-1.15012 0.31227,-0.28218 0.75141,-0.43017 1.49049,-0.50156 0.67954,-0.0657 1.15313,-0.21367 1.34694,-0.42095 0.16439,-0.17582 2.36946,-3.18867 4.90005,-6.69528 4.06488,-5.63266 52.52716,-72.592966 57.16679,-78.987305 0.98946,-1.363674 2.37203,-3.276378 3.0723,-4.250438 0.70025,-0.974046 2.1041,-2.926603 3.11969,-4.338987 1.01559,-1.412377 7.62281,-10.537552 14.68248,-20.27813 C 443.63681,8.0232985 449.38924,0.02983123 449.36025,4.4687723e-4 Z M 392.81331,41.16065 c 0.23021,-0.01044 0.41738,0.0083 0.54998,0.05877 0.97446,0.370478 0.74209,1.706796 -0.64199,3.692152 -0.41077,0.589217 -15.68977,20.162484 -33.95335,43.496081 -18.26358,23.333597 -33.25949,42.427337 -33.32414,42.430347 -0.0646,0.003 -0.39542,-0.49291 -0.7347,-1.10169 -0.93668,-1.6806 -22.17285,-44.239268 -22.38848,-44.867924 l -0.18817,-0.548594 43.39473,-20.969245 c 23.86706,-11.533105 43.82556,-21.151097 44.35219,-21.373257 1.16399,-0.491023 2.2433,-0.785327 2.93393,-0.816673 z m -224.27391,98.36056 -1.31753,2.76133 c -0.72473,1.51875 -1.31754,2.83373 -1.31754,2.92217 0,0.0884 0.66255,0.16085 1.4725,0.16085 h 1.4725 l 2.11381,-2.6887 c 1.16251,-1.47884 2.17739,-2.79381 2.25528,-2.92217 0.11445,-0.18861 -0.32092,-0.23348 -2.26877,-0.23348 z m -18.92842,0.1771 v 15.05363 15.05363 h 1.85958 1.85956 v -15.05363 -15.05363 h -1.85956 z m 56.14121,0 v 2.12521 2.12523 h 1.85956 1.85957 v -2.12523 -2.12521 h -1.85957 z m -38.04398,7.81287 c -0.67589,0.0181 -1.36766,0.0993 -2.06953,0.24732 -3.69339,0.77889 -6.51113,3.63429 -7.4279,7.52751 -0.60678,2.57685 -0.52656,5.93367 0.19682,8.23246 1.07189,3.40625 3.86036,5.90088 7.33277,6.56002 1.53456,0.29129 4.02915,0.20851 5.53616,-0.18402 2.05063,-0.53411 3.75629,-1.69836 4.954,-3.38119 0.66738,-0.93769 1.63639,-3.04538 1.47457,-3.2072 -0.0812,-0.0812 -3.72166,-0.59406 -3.75164,-0.52853 -0.95942,2.09726 -1.841,3.19037 -3.1273,3.87721 -0.65358,0.34898 -1.0203,0.40575 -2.61951,0.40575 -1.6336,0 -1.96531,-0.0538 -2.72916,-0.44276 -2.10046,-1.06955 -3.33199,-3.01419 -3.72917,-5.88863 l -0.11622,-0.84123 h 8.18403 8.18403 l -0.11761,-1.79939 c -0.0649,-0.98978 -0.2392,-2.32252 -0.38741,-2.9616 -1.10811,-4.77812 -5.05574,-7.74254 -9.78693,-7.61572 z m -32.68044,0.004 c -0.71689,0.0175 -1.45368,0.10184 -2.20477,0.25632 -3.68612,0.75811 -6.38311,3.36314 -7.42304,7.17019 -0.44282,1.62109 -0.4367,6.33648 0.0104,7.94155 1.1218,4.02749 3.84273,6.55851 7.82187,7.27604 1.18698,0.21404 3.51157,0.0857 4.89139,-0.27015 3.31772,-0.85555 5.86301,-3.4057 6.80873,-6.82153 0.43847,-1.58372 0.53417,-5.64603 0.17502,-7.43307 -1.0256,-5.1032 -5.06134,-8.24221 -10.07957,-8.11935 z m 88.72755,0 c -0.71678,0.0177 -1.45355,0.10202 -2.20443,0.25666 -1.94569,0.40072 -3.44295,1.19178 -4.83051,2.55241 -1.27498,1.25025 -2.04953,2.6313 -2.59427,4.62471 -0.44163,1.61612 -0.43371,6.32934 0.0135,7.9495 1.10833,4.01535 3.8286,6.54099 7.82048,7.26082 1.18699,0.21404 3.51157,0.0857 4.8914,-0.27015 3.31772,-0.85555 5.863,-3.4057 6.80873,-6.82153 0.43848,-1.58372 0.53417,-5.64603 0.17503,-7.43307 -1.02562,-5.1033 -5.06248,-8.24297 -10.07992,-8.11935 z m -33.71537,9.5e-4 c -1.31084,0.0434 -2.65337,0.38433 -3.93809,1.03285 -3.27719,1.65433 -5.33029,6.05701 -5.08059,10.89556 0.12025,2.33037 0.39495,3.41301 1.36077,5.36597 1.28693,2.60226 3.23883,4.19379 5.81357,4.73954 2.91723,0.61834 5.35405,0.0511 7.35421,-1.71221 l 0.86648,-0.76409 -0.0855,2.21722 c -0.0969,2.51576 -0.47225,3.65041 -1.57177,4.74992 -1.08463,1.08462 -1.91633,1.34279 -4.32619,1.34279 -1.9688,0 -2.19967,-0.0362 -3.13456,-0.49533 -1.06379,-0.5224 -1.64581,-1.22416 -1.84607,-2.22553 -0.061,-0.3054 -0.16085,-0.55586 -0.22173,-0.55621 -0.0608,-3.7e-4 -0.82794,-0.1185 -1.7046,-0.26254 -0.87665,-0.14404 -1.66484,-0.26295 -1.7513,-0.26496 -0.20587,-0.004 0.005,1.75318 0.31893,2.66621 0.74946,2.17535 3.04109,3.79031 5.97475,4.21032 h 3.4e-4 c 5.90304,0.84481 10.53943,-1.55378 11.63267,-6.01801 0.42559,-1.73791 0.55757,-5.1884 0.55897,-14.63128 l 0.002,-9.78486 h -1.77101 -1.77102 v 1.23694 1.2366 l -0.80249,-0.76859 c -1.59593,-1.52918 -3.6928,-2.28267 -5.87756,-2.21031 z m -75.19484,0.0128 c -1.04202,-0.0623 -2.11942,0.0334 -3.18471,0.30577 -3.0982,0.79238 -4.93762,2.24055 -6.1363,4.83086 -1.01022,2.1831 -1.16257,3.01462 -1.16257,6.33623 0,2.2379 0.0729,3.19174 0.312,4.07334 1.06425,3.92368 4.03943,6.63421 7.83433,7.13767 h 3.4e-4 c 3.79969,0.50383 7.51969,-1.09836 9.25529,-3.98651 0.57233,-0.95242 1.13673,-2.37752 1.35939,-3.43272 l 0.11553,-0.54722 -1.79626,-0.21758 c -0.98787,-0.11975 -1.81951,-0.19225 -1.84816,-0.16119 -0.0286,0.0311 -0.1809,0.56321 -0.33828,1.18264 -0.34441,1.35551 -0.99764,2.37696 -2.01904,3.156 -0.98365,0.75027 -1.92461,0.99083 -3.57108,0.91387 -2.73129,-0.12764 -4.44022,-1.68515 -5.26704,-4.80041 -0.40534,-1.5273 -0.40137,-5.30033 0.007,-6.84124 0.82975,-3.12899 2.85143,-4.81187 5.79178,-4.82118 2.25704,-0.008 3.98132,1.20059 4.68973,3.28469 0.21442,0.6308 0.43409,0.98505 0.60879,0.98304 0.46143,-0.006 3.20207,-0.47533 3.29022,-0.56347 0.11798,-0.11797 -0.32395,-1.49491 -0.80319,-2.5026 -1.20452,-2.5328 -4.01195,-4.14295 -7.13802,-4.32999 z m 90.90708,0.49276 v 10.89174 10.89175 h 1.85956 1.85957 v -10.89175 -10.89174 h -1.85957 z m -37.49401,2.62712 c 1.93759,0.0165 3.72032,1.00919 4.64477,2.58665 0.50821,0.8672 0.96613,2.2745 0.96887,2.97717 l 0.002,0.48703 h -6.0173 -6.01696 l 0.10066,-0.57558 c 0.62065,-3.55312 2.87261,-5.50465 6.31788,-5.47527 z m 22.15189,0.029 c 0.71326,-0.0421 1.44645,0.0543 2.1605,0.29645 1.26189,0.42797 2.90054,2.1063 3.42823,3.51159 0.89744,2.38994 0.8984,6.10743 0.003,8.49188 -0.47555,1.26558 -1.58325,2.51131 -2.76964,3.1145 -1.18412,0.60204 -3.51746,0.69504 -4.61536,0.18402 -2.57907,-1.20044 -3.56177,-3.05643 -3.71118,-7.00866 -0.1365,-3.61082 0.51038,-5.66228 2.28987,-7.2622 0.89342,-0.80326 2.02638,-1.25751 3.21515,-1.32758 z m -55.23287,0.0889 c 1.53679,0 1.88492,0.0583 2.63232,0.43998 0.47373,0.24195 1.24905,0.86408 1.72293,1.38257 1.57836,1.72698 2.01851,3.35242 1.88966,6.97718 -0.0678,1.90972 -0.16466,2.57481 -0.50813,3.49984 -0.51357,1.38315 -1.85372,2.91609 -3.10619,3.55275 -0.6848,0.34811 -1.16598,0.44488 -2.36493,0.47561 -2.29887,0.0589 -3.35496,-0.39549 -4.82602,-2.07714 -1.18145,-1.35057 -1.58547,-2.68859 -1.68281,-5.57282 -0.11791,-3.49365 0.45931,-5.50759 2.01902,-7.04531 1.33549,-1.31668 2.15306,-1.63266 4.22415,-1.63266 z m 88.7279,0 c 1.53678,0 1.8849,0.0583 2.63231,0.43998 0.47373,0.24195 1.24906,0.86408 1.72294,1.38257 1.48656,1.62656 1.93185,3.09817 1.93185,6.38431 0,2.25878 -0.25459,3.57301 -0.9578,4.94604 -0.52207,1.01935 -1.68711,2.16994 -2.76132,2.72709 -0.626,0.32467 -1.1199,0.4213 -2.30233,0.45002 -2.29357,0.0557 -3.35684,-0.39968 -4.80942,-2.06019 -1.23789,-1.4151 -1.60449,-2.62278 -1.7008,-5.60257 -0.11552,-3.57475 0.42707,-5.46371 2.02042,-7.03459 1.33549,-1.31668 2.15304,-1.63266 4.22415,-1.63266 z m 38.91807,22.95022 c -0.39705,-0.002 -0.84145,0.0926 -1.3248,0.28398 -0.82432,0.3264 -19.27829,11.74602 -19.92739,12.33139 -0.21916,0.19763 -0.39848,0.5417 -0.39848,0.76444 0,0.38676 1.23892,2.11105 1.98686,2.76514 0.40459,0.35383 1.24342,0.40033 2.06435,0.11414 0.97653,-0.34042 21.52594,-11.26646 21.69563,-11.53546 0.0891,-0.14124 0.11116,-0.44823 0.0488,-0.68246 -0.13806,-0.51866 -2.45675,-3.3166 -3.10378,-3.74543 -0.29454,-0.19522 -0.64411,-0.29379 -1.04116,-0.29574 z m -90.80884,3.26081 c -2.06697,0 -2.38108,0.0421 -3.07022,0.40989 -1.1839,0.63189 -1.52104,1.53794 -1.52854,4.1062 -0.009,3.06607 0.53841,4.14985 2.32204,4.59634 0.37541,0.094 1.55946,0.14809 2.63092,0.12038 2.46082,-0.0637 3.21013,-0.38774 3.82983,-1.65584 0.36385,-0.74455 0.41405,-1.10447 0.41405,-2.97233 0,-2.59842 -0.32436,-3.4751 -1.54342,-4.1733 -0.69142,-0.39601 -0.93969,-0.43134 -3.05466,-0.43134 z m 29.03463,7.34972 c -2.80216,0 -2.90813,0.0136 -3.38948,0.42753 l -0.49672,0.42719 -0.0509,6.47286 -0.0505,6.47319 -6.11933,0.0509 -6.1197,0.0509 -0.33829,0.4182 c -0.29935,0.36986 -0.33829,0.72317 -0.33829,3.06296 0,2.57209 0.0118,2.65717 0.43445,3.0799 l 0.4348,0.43446 h 6.01868 6.0187 l 0.0698,17.66589 c 0.0756,19.15209 0.0886,19.4296 1.09859,23.42168 2.04989,8.10241 7.13278,11.79065 17.31652,12.56521 1.09556,0.0834 3.07137,0.13939 4.39088,0.12453 3.56852,-0.0402 3.63366,-0.12115 3.50813,-4.37323 -0.0876,-2.9652 -0.0114,-2.90527 -3.88551,-3.07092 -6.04835,-0.25856 -8.88014,-1.0257 -11.06089,-2.9962 -1.58871,-1.43552 -2.5541,-3.50586 -3.19579,-6.85403 -0.29534,-1.54096 -0.32768,-3.14592 -0.38464,-19.0827 l -0.0623,-17.40023 h 8.87825 8.87826 l 0.51782,-0.51746 0.5178,-0.51782 v -2.39607 c 0,-2.57391 -0.13571,-3.14185 -0.82497,-3.4559 -0.29768,-0.13565 -3.14676,-0.19682 -9.18368,-0.19682 h -8.75166 l -0.0505,-6.56832 -0.0505,-6.56867 -0.41819,-0.33829 c -0.37345,-0.30227 -0.72726,-0.33864 -3.31097,-0.33864 z m 112.23952,12.0595 c -5.12715,0.15106 -9.58948,1.12077 -13.08719,2.87964 -5.83114,2.93227 -9.17623,8.00105 -10.3601,15.69944 -0.33502,2.17718 -0.33024,23.01779 0.006,25.14531 0.79642,5.04625 2.42909,8.59711 5.32171,11.5742 2.84964,2.93287 6.49023,4.67127 11.62021,5.54895 2.6496,0.45331 8.93431,0.41377 12.13353,-0.0765 3.29613,-0.50505 6.18195,-1.17368 9.0436,-2.09513 1.3326,-0.42909 2.47259,-0.78035 2.53304,-0.78035 0.18435,0 0.12099,7.74836 -0.0809,9.9042 -0.33798,3.60815 -1.30946,6.54843 -2.90039,8.77794 -1.93012,2.70483 -4.72953,4.44137 -8.59738,5.33276 -1.88668,0.4348 -6.86954,0.52995 -9.01074,0.17192 -5.16256,-0.86325 -8.46259,-3.10114 -11.27258,-7.64374 -1.19381,-1.92987 -1.82287,-2.55205 -2.57939,-2.55205 -0.72116,0 -4.63346,1.99082 -5.11727,2.60394 -0.569,0.72109 -0.40614,1.61343 0.6074,3.32896 3.93873,6.66659 9.34087,10.17709 17.45489,11.34246 2.36174,0.3392 9.06413,0.2308 11.3345,-0.18334 3.76978,-0.68765 7.38052,-2.1491 9.74059,-3.94223 4.34973,-3.30486 6.8372,-7.9924 7.91769,-14.92082 0.29619,-1.89924 0.31753,-4.06787 0.31753,-32.14393 0,-33.03377 0.0632,-31.13503 -1.07783,-32.46804 -1.52849,-1.78571 -7.87106,-3.98877 -14.06435,-4.88517 -3.49029,-0.50517 -6.80578,-0.7091 -9.88206,-0.61848 z m 160.8238,0.0104 c -9.76498,0.084 -17.09573,3.55472 -21.47703,10.18853 -0.68471,1.03673 -1.32991,2.20031 -1.43376,2.58596 -0.24199,0.89868 0.0394,1.63397 0.77067,2.01211 1.16134,0.60057 4.27603,1.83397 4.63093,1.83397 0.6244,0 1.11887,-0.47666 2.26289,-2.1823 1.89914,-2.83149 4.22494,-4.80017 7.04567,-5.96334 4.99348,-2.05918 12.70349,-2.02974 17.09306,0.065 2.51509,1.20024 4.09,2.7481 5.24836,5.15844 1.2894,2.68293 1.74716,5.59696 1.74716,11.12246 v 3.17987 L 489.159,224.2882 c -6.29375,-0.82079 -10.235,-1.05505 -16.02079,-0.95261 -5.5025,0.0974 -8.16099,0.37473 -11.38707,1.18783 -6.4129,1.61626 -10.1512,4.99141 -11.5244,10.40472 -1.10941,4.3735 -0.91829,10.30221 0.45348,14.06089 2.25983,6.19211 8.14668,9.20324 19.3563,9.90109 v 3.5e-4 c 3.04807,0.18976 9.1013,0.0507 12.34834,-0.2833 5.68288,-0.58461 10.97109,-2.08916 13.35111,-3.79834 1.03768,-0.74523 1.66538,-1.93799 1.87685,-3.5666 0.2331,-1.79517 0.22748,-31.80962 -0.007,-34.94815 -0.97614,-13.09024 -7.77073,-19.36676 -21.5085,-19.86859 -0.67248,-0.0245 -1.33448,-0.0339 -1.98548,-0.0284 z m -98.65389,0.0131 c -13.23325,0.32594 -22.233,6.9065 -23.77173,17.59843 -0.1406,0.97797 -0.18361,5.37755 -0.14252,14.59393 l 0.0588,13.19407 0.46766,1.70633 c 0.95564,3.48633 2.34981,6.04414 4.54861,8.34557 3.93172,4.11529 9.5373,6.46566 16.75962,7.02733 4.49234,0.34937 8.63499,0.0316 12.66725,-0.97197 7.70269,-1.91693 13.04008,-6.56888 15.12766,-13.18509 0.9661,-3.06181 1.00704,-3.84003 0.93635,-17.87412 -0.0622,-12.33412 -0.08,-12.91397 -0.43651,-14.36943 -1.3444,-5.48697 -4.31851,-9.55404 -8.99068,-12.29369 -3.99242,-2.34104 -8.59318,-3.52974 -14.52232,-3.75234 -0.91891,-0.0345 -1.81998,-0.0407 -2.70219,-0.019 z m -121.09425,0.0439 c -2.40421,3.2e-4 -4.80697,0.13627 -6.28468,0.4085 -5.61936,1.03525 -9.69948,3.01688 -13.02458,6.32551 -1.58689,1.57902 -2.79828,3.19486 -3.71809,4.95953 -0.75498,1.44844 -0.78538,2.09803 -0.12626,2.6963 0.57013,0.51751 4.355,2.15453 5.00797,2.16604 0.67901,0.0119 1.10825,-0.38097 2.16534,-1.98202 1.83767,-2.78329 3.76267,-4.52348 6.44173,-5.82256 3.90312,-1.89261 10.20083,-2.39811 15.1197,-1.21376 4.79449,1.15441 7.83201,4.19931 9.02146,9.0429 0.55976,2.2785 1.00462,11.3179 0.55724,11.3179 -0.089,0 -1.50356,-0.15647 -3.14355,-0.34763 -4.62353,-0.53893 -7.5848,-0.71382 -12.1024,-0.71394 -9.71431,-2.7e-4 -15.85652,1.34406 -19.80183,4.3338 -3.52725,2.67293 -5.33966,7.25593 -5.34522,13.51506 -0.004,4.77069 1.00338,8.55643 2.9796,11.19475 2.87549,3.83889 8.72544,6.0345 17.45661,6.55242 v -6.7e-4 c 7.46687,0.44293 16.11402,-0.36236 21.12387,-1.96714 3.62801,-1.16216 5.41312,-2.2872 6.15151,-3.87721 0.36654,-0.78926 0.37038,-0.96972 0.42338,-18.68423 0.0361,-12.0597 -0.009,-18.43291 -0.1387,-19.56176 -1.19831,-10.43497 -6.3881,-16.08625 -16.4701,-17.93499 -1.48323,-0.27152 -3.88878,-0.40711 -6.293,-0.40679 z m -123.89362,3.4e-4 c -2.75289,-0.0149 -5.64357,0.0938 -7.58873,0.33172 -5.66225,0.69252 -10.62947,2.01605 -13.87757,3.69768 -1.55773,0.8065 -2.27936,1.5649 -2.73747,2.87618 -0.29337,0.83971 -0.31131,3.12542 -0.31131,39.61784 v 38.72679 l 0.42027,0.44759 c 0.23127,0.24619 0.58991,0.48064 0.79696,0.52127 0.20706,0.0406 1.43506,0.0849 2.72882,0.0982 2.65215,0.0272 3.46458,-0.17882 3.75892,-0.95296 0.11077,-0.29143 0.17605,-5.31209 0.17605,-13.55692 0,-7.20169 0.0318,-13.0941 0.0709,-13.0941 0.039,0 0.99868,0.35875 2.13249,0.79695 7.10905,2.74758 13.69664,3.59036 20.64168,2.64131 9.11657,-1.2458 14.95794,-6.13652 17.07888,-14.29957 0.87076,-3.35136 0.89796,-3.85511 0.89796,-16.67799 0,-13.11834 -0.016,-13.37248 -1.06261,-16.98411 -2.2392,-7.72699 -7.49447,-12.1528 -16.36252,-13.78038 -1.39472,-0.25597 -4.00983,-0.39465 -6.76273,-0.40954 z m 314.75102,0.004 -4.48599,0.0204 c -7.56096,0.0341 -14.16382,1.03254 -19.80494,2.99446 -4.06377,1.41335 -5.32273,2.65981 -5.68039,5.62609 -0.11025,0.91415 -0.15654,10.70167 -0.12523,26.3667 l 0.0498,24.91286 0.42027,0.44725 c 0.23115,0.24603 0.62963,0.48403 0.88551,0.52854 0.94793,0.16501 5.4248,0.0124 5.80388,-0.19786 0.20893,-0.11585 0.46794,-0.46323 0.57557,-0.77205 0.13918,-0.3992 0.19579,-7.46515 0.19579,-24.44935 0,-26.12047 -0.0592,-24.67195 1.03839,-25.45352 0.69492,-0.49484 2.41189,-1.07885 4.89451,-1.66517 3.5008,-0.82676 5.55197,-1.04667 10.89175,-1.16707 5.37751,-0.12124 5.71134,-0.17744 6.02975,-1.01487 0.0928,-0.24395 0.1688,-1.50968 0.1688,-2.81287 0,-2.25164 -0.0216,-2.3943 -0.42891,-2.8665 z m 87.10597,0.0107 c -6.91909,0 -11.09064,0.91932 -15.32103,3.37705 -1.66979,0.97012 -4.28712,3.52253 -5.19717,5.06814 -1.7876,3.03611 -2.537,6.77961 -2.16257,10.8032 0.36032,3.87185 1.47297,6.62069 3.61052,8.91907 3.40133,3.65731 7.87067,5.19613 18.45039,6.35248 7.6525,0.83641 10.29392,1.38036 12.9637,2.67002 3.3161,1.6019 4.82481,4.06557 4.83224,7.89174 0.004,1.87236 -0.24875,3.04757 -0.9706,4.51955 -1.10437,2.25198 -3.55097,4.106 -6.61952,5.01592 -4.20607,1.2472 -10.93504,1.40146 -15.40195,0.35351 -3.33092,-0.78147 -5.71798,-2.11487 -7.82671,-4.37288 -1.03,-1.10293 -1.47089,-1.77245 -2.32724,-3.53374 -1.05649,-2.17305 -1.63562,-2.88793 -2.33968,-2.88793 -0.75541,0 -4.77875,1.46608 -5.21169,1.89899 -0.60351,0.60354 -0.46783,1.66372 0.46835,3.65999 2.01465,4.29604 5.29481,7.76398 9.22692,9.75477 3.25119,1.64602 7.66623,2.70524 12.49777,2.99827 0.58444,0.0354 2.2979,0.0305 3.80768,-0.0111 8.40897,-0.23122 14.37841,-2.30435 18.18958,-6.3165 1.78336,-1.87744 2.94481,-3.99927 3.70012,-6.75996 0.4501,-1.64513 0.54235,-6.30984 0.16464,-8.32377 -1.11172,-5.92782 -4.74228,-9.55618 -11.51679,-11.50918 -2.57424,-0.74211 -5.84766,-1.26927 -11.52924,-1.8568 -2.93184,-0.30318 -6.23921,-0.73695 -7.34972,-0.96402 -5.78432,-1.18282 -8.3991,-3.50155 -9.03079,-8.00901 -0.3416,-2.43742 0.1571,-5.17077 1.24074,-6.80147 2.06138,-3.10207 5.94007,-4.64296 12.32378,-4.89588 4.75695,-0.18849 8.82952,0.47883 11.76791,1.92875 2.06719,1.02001 4.36277,3.28282 5.50711,5.42857 1.06698,2.00068 1.65801,2.68178 2.32722,2.68178 0.28992,0 1.47787,-0.40807 2.64027,-0.90696 2.19444,-0.94182 2.99447,-1.56987 2.99447,-2.35143 0,-0.57737 -1.45749,-3.48122 -2.51436,-5.01004 -1.91179,-2.76551 -5.20287,-5.35481 -8.53062,-6.71152 -3.7737,-1.53852 -7.21147,-2.09963 -12.86373,-2.09963 z m -360.31318,1.67195 c -2.81278,0 -2.91796,0.0134 -3.39952,0.42753 l -0.49671,0.42754 -0.0509,28.21865 c -0.0279,15.52032 -0.008,28.46377 0.0463,28.76343 0.13863,0.77677 0.46372,1.14557 1.1643,1.32135 0.33616,0.0843 1.74605,0.13607 3.13318,0.11518 2.495,-0.0376 2.52731,-0.043 3.01073,-0.52646 l 0.48875,-0.48875 v -28.70188 -28.70152 l -0.49705,-0.42754 c -0.48157,-0.41429 -0.58636,-0.42753 -3.39917,-0.42753 z m 204.80034,5.3134 c 3.59122,0.0169 7.18968,0.72172 10.01973,2.11103 3.85953,1.89469 6.17304,4.75086 7.11209,8.78037 0.30513,1.30948 0.33033,2.33582 0.33033,13.54827 0,13.49144 0.0293,13.11397 -1.23383,15.85058 -2.16138,4.68262 -6.80043,7.38521 -13.8198,8.05052 -2.57717,0.24427 -3.65815,0.21347 -6.64131,-0.18783 -2.98374,-0.40136 -6.10846,-1.5846 -8.15913,-3.08994 -2.2901,-1.68108 -4.01798,-4.22173 -4.81183,-7.07507 -0.39018,-1.40229 -0.39433,-1.54306 -0.39433,-13.72537 0,-12.1823 0.004,-12.32307 0.39433,-13.72537 1.09203,-3.92506 3.41802,-6.66732 7.22692,-8.52024 2.80158,-1.36289 6.38562,-2.0338 9.97683,-2.01695 z m -245.62605,0.19612 c 0.94325,0.0179 1.76274,0.0636 2.34521,0.14113 7.73433,1.02925 12.08349,5.06279 13.16017,12.20549 0.37222,2.46924 0.37466,21.13529 0.003,23.58563 -1.15178,7.59598 -5.45175,11.4452 -13.64512,12.21413 h -3.5e-4 c -3.13438,0.29414 -5.75551,0.12337 -9.41198,-0.61329 -2.40242,-0.48402 -6.59985,-1.81079 -8.61018,-2.72155 l -1.19751,-0.54273 0.0463,-20.38743 0.0467,-20.38778 0.55586,-0.49671 c 0.94793,-0.84694 3.95881,-1.79396 7.94502,-2.49949 1.99062,-0.35232 5.93296,-0.55099 8.76272,-0.4974 z m 182.1673,0.006 c 2.78305,-0.0542 6.64116,0.13941 8.66345,0.48808 3.85734,0.66508 6.99264,1.65305 7.94467,2.50363 l 0.55621,0.49672 v 19.98272 19.98273 l -2.74508,0.9156 c -2.76994,0.92368 -4.92927,1.44744 -7.98479,1.93706 h -6.6e-4 c -1.98457,0.31801 -8.65447,0.47546 -10.15326,0.2397 -6.87925,-1.08203 -10.74423,-4.75151 -11.88309,-11.28227 -0.38062,-2.18464 -0.38258,-20.64047 -0.002,-22.97996 1.17334,-7.21418 5.43704,-11.11065 13.2878,-12.14392 0.58099,-0.0765 1.38917,-0.12204 2.31685,-0.14009 z m -60.1073,26.08791 c 1.40468,-0.0119 2.91807,0.0214 4.54721,0.0972 4.24845,0.19758 11.42908,0.80046 11.72676,0.98444 0.21194,0.13098 0.20482,15.69391 -0.008,17.34626 -0.1351,1.04925 -0.2412,1.31211 -0.6925,1.71533 -1.12757,1.00748 -5.57659,2.06084 -10.28504,2.43514 -1.3101,0.10411 -3.62128,0.17846 -5.13595,0.16534 -10.12028,-0.0879 -14.54928,-2.23433 -15.88587,-7.69907 -0.41612,-1.7013 -0.41746,-5.75601 -0.003,-7.33034 1.40824,-5.3418 5.90296,-7.6315 15.73575,-7.71429 z m 220.45584,0.0103 c 3.41099,-0.0406 7.45923,0.17387 12.23211,0.62056 2.07627,0.1943 3.84318,0.35316 3.92668,0.35316 0.0836,0 0.12848,4.09857 0.1,9.10793 -0.0507,8.91777 -0.0595,9.1184 -0.42166,9.60777 -0.20344,0.2749 -0.69975,0.68438 -1.10308,0.90972 -0.94567,0.52838 -4.30784,1.37546 -6.82568,1.71982 -2.38474,0.32613 -10.01112,0.48295 -12.24491,0.25181 -6.92487,-0.71657 -10.28187,-2.8771 -11.4272,-7.35525 -0.42924,-1.67838 -0.4792,-5.54604 -0.0951,-7.35801 1.12749,-5.31941 5.62593,-7.73566 15.85889,-7.85751 z" /></g></svg>
