<?xml version="1.0" encoding="UTF-8" standalone="no"?>
<!-- Created with Inkscape (http://www.inkscape.org/) -->

<svg
   width="661.45831mm"
   height="285.75mm"
   viewBox="0 0 661.45831 285.75"
   version="1.1"
   id="svg5"
   xml:space="preserve"
   inkscape:version="1.2.2 (732a01da63, 2022-12-09)"
   sodipodi:docname="editora_betania.svg"
   xmlns:inkscape="http://www.inkscape.org/namespaces/inkscape"
   xmlns:sodipodi="http://sodipodi.sourceforge.net/DTD/sodipodi-0.dtd"
   xmlns="http://www.w3.org/2000/svg"
   xmlns:svg="http://www.w3.org/2000/svg"><sodipodi:namedview
     id="namedview7"
     pagecolor="#ffffff"
     bordercolor="#000000"
     borderopacity="0.25"
     inkscape:showpageshadow="2"
     inkscape:pageopacity="0.0"
     inkscape:pagecheckerboard="0"
     inkscape:deskcolor="#d1d1d1"
     inkscape:document-units="mm"
     showgrid="false"
     inkscape:zoom="0.17354521"
     inkscape:cx="484.02372"
     inkscape:cy="161.34124"
     inkscape:window-width="1366"
     inkscape:window-height="705"
     inkscape:window-x="-8"
     inkscape:window-y="-8"
     inkscape:window-maximized="1"
     inkscape:current-layer="layer1" /><defs
     id="defs2" /><g
     inkscape:label="Camada 1"
     inkscape:groupmode="layer"
     id="layer1"><path
       style="fill:#787774;stroke-width:0.14948;fill-opacity:1"
       d="m 116.61613,285.68235 c -8.61387,-0.24599 -17.174702,-0.77737 -25.037969,-1.55414 -6.844965,-0.67617 -16.157264,-1.92179 -20.179857,-2.69928 C 49.228124,277.1439 35.856879,265.80061 29.218994,245.64675 26.763527,238.1915 22.6561,217.70409 20.138485,200.35418 16.843597,177.64775 15.017843,148.13953 15.782301,129.94889 17.179044,96.713219 21.812871,67.698958 30.165977,39.886945 31.781515,34.507943 34.333201,26.925633 35.235704,24.822347 38.632338,16.906365 44.052691,12.002599 52.489023,9.2133632 54.262213,8.6271095 61.941209,6.6315011 65.269604,5.8919625 76.988889,3.2880421 90.007364,1.5336121 104.13452,0.65434849 c 7.3729,-0.45888387 10.12104,-0.54980378 19.13349,-0.63301434 13.26128,-0.12243924 23.78576,0.27478777 36.6227,1.38226005 12.61428,1.0882601 30.39067,3.4865004 35.8753,4.8399869 12.90499,3.1846688 20.91927,10.1392509 25.61818,22.2307799 1.81302,4.665371 5.53262,17.450613 8.24457,28.338771 7.59721,30.501978 11.43398,62.835628 10.69157,90.101798 -0.61092,22.4371 -3.21377,43.12528 -8.62285,68.53678 -3.13954,14.74928 -9.86416,40.41357 -11.84999,45.22502 -2.95799,7.16691 -7.85482,11.81346 -15.63584,14.83666 -3.85974,1.49964 -12.3788,3.85175 -19.28296,5.32399 -12.98336,2.7686 -26.54824,4.17171 -46.33893,4.79315 -4.15889,0.13062 -18.06702,0.16338 -21.97363,0.0518 z m 42.22821,-22.3125 c 8.30147,-0.40483 14.44055,-0.89034 20.09272,-1.58903 7.21344,-0.8917 16.02617,-2.49519 18.54798,-3.37483 3.49702,-1.21979 5.64692,-3.51711 6.7035,-7.16314 0.42337,-1.46098 2.90309,-12.15405 3.91491,-16.88188 4.70032,-21.96305 7.71137,-41.42413 9.25625,-59.82524 0.65189,-7.76451 0.88169,-11.91252 0.89251,-16.11081 0.0124,-4.5963 -0.0517,-5.01547 -1.088,-7.17506 -0.78712,-1.64034 -2.54447,-3.36424 -4.80587,-4.71441 -3.54473,-2.11641 -4.2233,-3.51285 -2.51536,-5.17643 0.40564,-0.39512 1.22164,-0.99901 1.81329,-1.34199 3.3779,-1.95808 4.26412,-2.62727 5.47109,-4.13117 0.97175,-1.21082 1.63436,-2.65166 1.9741,-4.29268 0.33791,-1.63209 0.35257,-3.17221 0.0583,-6.1287 -0.12265,-1.2332 -0.55912,-6.27154 -0.96979,-11.19629 -2.06698,-24.787563 -6.18963,-52.863301 -11.06348,-75.343542 -1.82083,-8.398426 -2.22787,-9.779982 -3.3829,-11.481829 -1.10045,-1.62144 -2.80444,-2.768203 -4.91327,-3.306587 -1.17554,-0.300113 -7.21748,-1.141492 -12.93005,-1.800591 -12.4505,-1.436499 -26.01739,-2.397479 -43.42407,-3.075844 -23.38831,-0.911483 -43.999629,-0.416654 -62.707039,1.505448 -3.983586,0.409295 -13.513952,1.554283 -16.069144,1.930563 -6.983561,1.028403 -9.568191,2.290253 -11.330436,5.531663 -1.303644,2.397869 -1.862946,4.674931 -5.121824,20.85252 -4.708748,23.37489 -7.757011,45.453864 -9.101147,65.920869 -0.685124,10.43234 -0.88742,17.93407 -0.779954,28.92445 0.116046,11.86616 0.403809,17.52993 1.526634,30.04557 2.387462,26.61209 5.697336,48.78955 10.251086,68.68626 2.51624,10.99421 3.392042,13.23422 5.804129,14.84495 2.108788,1.40819 4.757353,1.9203 15.552878,3.00727 14.2358,1.43334 30.168037,2.36412 48.805357,2.85122 3.37078,0.0881 6.80135,0.18138 7.6235,0.20727 3.4796,0.10959 28.8316,-0.0477 31.91406,-0.198 z m -51.34652,-6.67898 c -14.060782,-0.55383 -27.455484,-2.50215 -34.006788,-4.94644 -5.519652,-2.05936 -9.919435,-5.55594 -12.935717,-10.28019 -0.870219,-1.36296 -2.364872,-4.5939 -2.974854,-6.4306 -1.220557,-3.67519 -3.545307,-14.00144 -5.081524,-22.57154 -2.305681,-12.86275 -4.503345,-30.84727 -5.689885,-46.56316 -0.207933,-2.75417 -0.585068,-7.3619 -0.838087,-10.23941 -0.300123,-3.41342 -0.431472,-5.66554 -0.377891,-6.47967 0.141276,-2.14694 0.786719,-2.99532 2.710507,-3.56266 0.840163,-0.24777 2.749734,-0.26975 30.195044,-0.34753 31.856785,-0.0903 29.844655,-0.03 30.933265,-0.9273 1.22489,-1.00965 1.30077,-3.67463 0.13776,-4.83765 -1.08231,-1.08233 1.22372,-1.00324 -31.071025,-1.06562 -18.618726,-0.036 -29.273443,-0.10986 -29.765317,-0.20649 -1.032766,-0.20285 -2.060335,-0.88408 -2.587586,-1.7155 -0.751892,-1.1856 -0.822165,-2.09253 -0.54371,-7.01665 1.900565,-33.608113 5.167568,-56.077753 11.225554,-77.20664 1.470522,-5.128867 2.037661,-6.809676 2.923266,-8.663617 3.111992,-6.514668 8.116024,-10.249876 16.50558,-12.32042 4.370607,-1.078665 12.361951,-2.370099 17.19025,-2.778015 3.355152,-0.283458 11.790078,-0.475829 18.460838,-0.421026 5.81538,0.04778 6.74974,0.08723 7.43005,0.31374 1.58095,0.526376 2.65,1.717604 3.10988,3.465259 0.21403,0.813423 0.23485,11.113434 0.22382,110.687859 -0.008,71.15527 -0.0639,110.15605 -0.1593,110.82837 -0.25423,1.79248 -0.99623,2.70702 -2.5012,3.08276 -0.67588,0.16874 -9.67151,0.31406 -12.51293,0.20214 z m 26.50958,-0.27934 c -1.28839,-0.47386 -1.92333,-1.28907 -2.21373,-2.84232 -0.12251,-0.65485 -0.15586,-14.93485 -0.12388,-52.91607 l 0.0439,-52.01919 0.33597,-0.82984 c 0.40106,-0.99062 1.048,-1.65577 2.03404,-2.09131 0.71836,-0.3173 0.86031,-0.32155 13.97642,-0.41871 7.28788,-0.054 15.84045,-0.0829 19.00569,-0.0642 21.49061,0.12704 31.3132,2.2447 36.92167,7.96006 2.41359,2.45959 3.92893,5.26049 4.90875,9.07308 2.17167,8.45037 1.38711,22.52235 -2.14498,38.47215 -1.75756,7.93654 -5.54368,21.89788 -7.86221,28.99188 -0.57771,1.76761 -1.28419,4.18919 -1.56996,5.3813 -0.96521,4.0265 -1.70401,5.87665 -3.31107,8.2917 -2.17741,3.27216 -5.52659,5.84504 -9.83827,7.55783 -2.56117,1.0174 -7.82455,2.43093 -12.17108,3.26869 -8.80391,1.69684 -18.1204,2.41654 -31.01718,2.3961 -4.99167,-0.008 -6.54972,-0.0551 -6.97404,-0.21117 z m 10.56157,-118.0052 -10.01518,-0.0865 -0.84029,-0.41267 c -1.01415,-0.49803 -1.58246,-1.24853 -1.86461,-2.46232 -0.30157,-1.29731 -0.314,-103.799977 -0.0124,-104.900401 0.2953,-1.078547 0.5913,-1.581086 1.33523,-2.266816 1.04874,-0.966695 1.86875,-1.17519 4.5215,-1.149631 2.38607,0.02299 13.89328,0.550309 17.63869,0.808296 11.02291,0.759268 18.85695,2.111503 25.93484,4.476622 6.64733,2.221246 11.23559,5.908486 13.8685,11.145073 1.19877,2.384246 1.09469,2.060629 4.9491,15.387737 4.71,16.285425 6.76978,24.673771 8.30028,33.802276 1.14341,6.819777 1.59655,11.583314 1.5978,16.796854 0.003,12.06717 -2.99274,20.23716 -8.83262,24.08885 -4.17249,2.75196 -8.93922,3.75519 -21.97579,4.62511 -2.91558,0.19454 -20.49113,0.26949 -34.60471,0.14754 z m 459.2786,124.71299 c -1.6527,-0.2986 -3.4902,-0.73649 -4.66091,-1.1107 -8.02342,-2.56469 -11.92417,-8.90606 -11.93019,-19.39473 -0.005,-10.37456 4.3257,-18.39386 13.00669,-24.07964 2.00761,-1.31491 1.73512,-1.15341 4.2878,-2.54142 5.11323,-2.78028 10.33989,-4.77689 14.91732,-5.69849 3.8049,-0.76604 5.64741,-2.01746 6.54173,-4.44305 0.43894,-1.19053 0.53524,-4.34783 0.19761,-6.47952 -0.77274,-4.8789 -2.93997,-7.52686 -6.92565,-8.46191 -1.41871,-0.33283 -5.48838,-0.36888 -7.21297,-0.0639 -3.39361,0.60018 -6.67125,2.17211 -9.32427,4.47187 -2.39484,2.07595 -4.31781,4.77949 -7.56812,10.64009 -1.16217,2.09549 -2.12503,3.8208 -2.1397,3.83397 -0.0147,0.0137 -0.3659,-0.10326 -0.78053,-0.25873 l -0.75384,-0.28275 0.25849,-2.7291 c 2.04532,-21.59536 1.85913,-20.11823 2.63869,-20.93533 l 0.39884,-0.41806 1.72185,0.10079 c 3.03548,0.17755 4.69687,-0.15493 10.54093,-2.10941 4.16094,-1.39158 5.78381,-1.76769 8.74466,-2.0266 2.51169,-0.21963 6.89986,-0.0989 8.81936,0.24259 3.04006,0.54091 5.99535,1.69993 8.02204,3.14615 4.08242,2.91316 6.43063,7.64065 7.07407,14.2417 0.0941,0.96557 0.15089,10.13724 0.15089,24.37671 0,14.80664 0.0551,23.40252 0.15694,24.46158 0.22347,2.325 0.65095,3.9439 1.51357,5.73192 0.68697,1.42397 0.8978,1.70531 2.45279,3.27332 1.92414,1.94027 2.17209,2.4365 1.54888,3.09985 -0.18888,0.20107 -0.58385,0.43465 -0.8777,0.51907 -0.78657,0.22597 -7.40178,0.33967 -10.86027,0.18665 -2.87282,-0.12705 -3.03098,-0.15009 -3.68989,-0.53625 -0.91585,-0.53672 -1.20724,-0.9839 -1.66098,-2.54896 -0.75784,-2.61405 -1.46591,-3.68305 -2.43954,-3.68305 -0.80741,0 -1.3059,0.35284 -3.48045,2.46344 -3.86958,3.7558 -6.86778,5.56413 -10.93555,6.59566 -1.36127,0.3452 -1.90266,0.39835 -4.46401,0.43831 -1.60318,0.025 -3.08304,0.0151 -3.28858,-0.022 z m 8.89408,-11.57254 c 1.33531,-0.33366 3.23707,-1.19328 4.52778,-2.04664 1.21819,-0.8054 3.07235,-2.61066 4.10506,-3.99684 1.67058,-2.24231 3.38737,-6.31175 4.20985,-9.97894 0.7188,-3.2049 0.84313,-5.02075 0.74469,-10.87534 -0.0491,-2.92095 -0.15112,-5.55815 -0.22666,-5.86046 -0.0795,-0.31821 -0.33757,-0.71813 -0.61286,-0.94978 -0.7625,-0.6416 -1.73087,-0.49321 -4.82538,0.73946 -9.00392,3.58667 -13.81844,7.08839 -16.90402,12.29469 -2.12897,3.59221 -3.0015,6.82971 -2.85362,10.58836 0.0983,2.50027 0.39901,3.75492 1.36844,5.71076 1.15898,2.3382 3.03346,3.90194 5.35034,4.46335 1.24503,0.30169 3.72636,0.25872 5.11638,-0.0885 z m -246.6427,11.19628 c -8.84378,-0.84321 -16.81046,-4.47744 -22.73025,-10.36905 -2.6506,-2.63798 -4.09753,-4.52822 -6.0077,-7.84837 -2.57198,-4.47049 -4.32984,-10.02517 -5.06334,-15.99971 -0.3372,-2.74681 -0.33806,-8.27536 -0.001,-11.33082 1.44528,-13.12957 5.19922,-22.01021 12.14621,-28.73406 3.89868,-3.77344 8.16961,-6.09097 13.26131,-7.19595 2.06872,-0.44893 6.93324,-0.48654 8.99341,-0.0696 4.70788,0.95302 8.95203,3.1999 12.45616,6.59437 3.66754,3.55278 5.73192,6.80531 8.11671,12.78843 1.45634,3.65373 1.65342,4.29253 1.6587,5.37642 0.011,2.32364 -1.36366,3.64367 -5.29826,5.0868 -3.93787,1.44433 -9.4137,3.54134 -15.43851,5.91227 -6.39186,2.5154 -9.59311,3.74042 -13.52797,5.17678 -2.99742,1.09415 -4.30405,1.7588 -5.21953,2.65502 -1.28875,1.26165 -1.76986,3.05607 -1.36759,5.10074 0.37808,1.92181 2.87244,8.86984 3.95857,11.0266 2.87652,5.71201 7.04146,9.28531 12.61412,10.8223 0.98327,0.27118 1.56402,0.31789 3.99084,0.3209 2.43778,0.003 2.99961,-0.041 3.96584,-0.31097 4.87007,-1.3607 8.53089,-4.11619 11.27461,-8.48643 0.45668,-0.7274 1.67967,-3.01017 2.71774,-5.07283 1.03809,-2.06266 1.90854,-3.77468 1.93438,-3.8045 0.0258,-0.0298 0.38689,0.0274 0.8024,0.12705 0.87681,0.21032 0.84029,0.0373 0.52214,2.47455 -0.58627,4.49127 -1.38822,8.39298 -3.51665,17.1093 -0.73277,3.00083 -1.33232,5.50133 -1.33233,5.55668 -5e-5,0.23901 -0.82967,1.05608 -1.32678,1.30671 -0.61187,0.3085 -3.12773,0.92558 -5.24709,1.28696 -3.56407,0.60772 -8.92736,0.82527 -12.33542,0.50033 z m -15.59074,-48.16908 c 0.76457,-0.2772 2.33183,-0.87447 3.48283,-1.32725 1.15101,-0.45277 3.77438,-1.47835 5.82974,-2.27904 7.42135,-2.89113 11.67082,-4.58327 12.2574,-4.88089 1.40074,-0.71072 1.96985,-1.74691 1.82303,-3.31928 -0.33439,-3.58086 -4.83795,-9.7004 -8.35326,-11.35059 -2.53847,-1.19166 -6.49229,-1.11891 -9.03818,0.16624 -4.78146,2.41366 -8.38086,9.28553 -9.17448,17.51561 -0.0912,0.94547 -0.26639,2.31251 -0.3894,3.03787 -0.24743,1.45927 -0.17699,2.10088 0.28599,2.60502 0.46909,0.51079 1.55892,0.45501 3.27633,-0.16769 z m 62.02083,48.17609 c -2.60252,-0.2509 -4.58393,-1.12582 -6.23522,-2.75321 -2.60625,-2.56853 -4.25419,-7.17868 -5.15417,-14.41889 -0.49203,-3.95845 -0.5814,-8.29145 -0.58346,-28.28778 -0.001,-13.08989 -0.0535,-19.62781 -0.1605,-20.12684 -0.0872,-0.4065 -0.37308,-1.09737 -0.6353,-1.53527 -0.63964,-1.06811 -1.61226,-1.57155 -3.61052,-1.8689 -1.71201,-0.25476 -2.5041,-0.609 -2.76382,-1.23608 -0.28091,-0.67814 0.23734,-1.46181 1.7828,-2.69591 2.53184,-2.02174 4.28133,-4.1895 5.61881,-6.96223 0.93633,-1.94108 1.46643,-3.69609 1.80271,-5.96836 0.20219,-1.36608 0.22494,-2.22944 0.13021,-4.9437 -0.0631,-1.80872 -0.10381,-3.7258 -0.0905,-4.2602 0.092,-3.6954 2.28024,-6.35405 7.85825,-9.54753 1.81167,-1.03719 2.67798,-1.03297 3.07488,0.015 0.13811,0.36464 0.21212,3.49137 0.29113,12.29792 0.0791,8.80475 0.15369,11.96107 0.29366,12.40687 0.32183,1.02508 0.76806,1.67034 1.40919,2.03773 0.55315,0.31699 0.78942,0.3523 2.26195,0.33803 2.01964,-0.0195 3.21366,-0.23606 4.51018,-0.81776 2.83952,-1.27402 3.33913,-0.87556 3.33533,2.66003 -0.004,3.50623 -0.6221,5.1901 -2.2973,6.25609 -0.34976,0.22253 -0.88522,0.29426 -2.84013,0.38039 -1.49721,0.066 -2.70057,0.1965 -3.17908,0.34484 -1.08657,0.33683 -2.14132,1.0934 -2.62126,1.88019 -0.93259,1.5289 -0.88965,0.36517 -0.88006,23.84213 0.005,13.24665 0.065,21.77363 0.15666,22.42207 0.0814,0.5755 0.24976,1.90015 0.37423,2.94365 0.46087,3.86378 1.56289,5.48315 4.05091,5.95261 1.76804,0.33359 3.99508,-0.16841 5.66535,-1.27709 1.77875,-1.18067 3.49104,-3.60055 4.01626,-5.67593 0.12484,-0.49329 0.30423,-1.56954 0.39868,-2.39168 0.63092,-5.49268 2.44941,-10.65729 5.21662,-14.81549 4.97439,-7.47489 12.79568,-12.28494 26.23798,-16.13627 1.55708,-0.44612 3.26379,-1.01363 3.79273,-1.26115 2.09404,-0.97991 3.35279,-2.33325 3.95736,-4.25478 0.46433,-1.47579 0.45425,-5.43556 -0.0191,-7.53141 -0.78376,-3.46975 -2.67173,-5.64282 -5.70872,-6.57081 -2.2424,-0.68519 -5.53222,-0.78491 -8.32897,-0.25243 -5.45554,1.03867 -9.99276,4.426 -13.85254,10.34178 -0.54668,0.83788 -1.77019,3.04085 -2.7189,4.89547 -1.53897,3.00847 -1.75999,3.36491 -2.0499,3.30592 -0.17875,-0.0364 -0.58342,-0.10779 -0.89929,-0.15883 l -0.57429,-0.0927 0.0952,-1.59757 c 0.46102,-7.73874 0.98804,-12.63966 2.03641,-18.93729 0.37113,-2.22945 0.49812,-2.63007 0.97616,-3.07973 0.36622,-0.34447 0.49172,-0.36196 3.24687,-0.45247 3.36497,-0.11055 4.20419,-0.29687 9.59254,-2.12941 5.69011,-1.93519 7.42971,-2.25371 12.33215,-2.25795 2.66898,-0.003 3.67189,0.055 4.8581,0.27773 7.98637,1.49931 12.84301,7.10674 14.4949,16.73569 0.25046,1.45997 0.57555,4.58688 0.85729,8.24586 0.13241,1.72033 0.18671,8.05649 0.19324,22.57156 0.008,18.27687 0.0329,20.30672 0.26128,21.52517 0.65123,3.47402 1.57883,4.97016 4.86923,7.85383 0.55082,0.48271 0.7745,0.78818 0.7745,1.05768 0,0.43283 -0.46607,0.92666 -1.12109,1.18784 -0.6224,0.24818 -9.43522,0.36787 -11.94551,0.16225 -3.32665,-0.27249 -4.19384,-0.98753 -5.24664,-4.3261 -0.49364,-1.56537 -1.66799,-4.32505 -1.78433,-4.19301 -0.0249,0.0282 -0.55847,0.73554 -1.18584,1.57186 -2.45078,3.26707 -5.17137,5.56622 -8.53792,7.21528 -3.39038,1.66074 -6.1179,2.25071 -10.3889,2.24711 -2.67223,-0.003 -3.87032,-0.12842 -5.81972,-0.61285 -2.88925,-0.71797 -5.20883,-2.03168 -7.34633,-4.16064 -2.00143,-1.99341 -3.56783,-4.4986 -4.57957,-7.3242 -0.24896,-0.69531 -0.51841,-1.2861 -0.59875,-1.31288 -0.25028,-0.0835 -1.03604,0.84259 -1.20875,1.4245 -0.0905,0.30506 -0.33918,1.19369 -0.55255,1.97473 -0.80884,2.96069 -1.85553,4.90303 -3.58698,6.65625 -1.98944,2.0145 -4.17138,2.89757 -7.92246,3.20648 -1.98049,0.1631 -2.00894,0.16303 -3.79534,-0.01 z m 41.68863,-11.20491 c 3.87072,-0.61071 7.26339,-2.99015 9.81409,-6.88314 1.90752,-2.91129 2.93052,-5.73895 3.59159,-9.92734 0.17998,-1.14041 0.25231,-3.11257 0.30506,-8.31808 0.0661,-6.53136 0.0566,-6.85158 -0.2235,-7.48479 -0.44592,-1.00811 -1.03542,-1.23047 -2.94069,-1.10933 -3.58488,0.22793 -7.52125,1.84526 -11.04171,4.53665 -1.27843,0.97737 -3.84786,3.48937 -4.88276,4.77361 -2.86913,3.56049 -4.86058,7.88231 -5.46589,11.86213 -0.64843,4.26339 0.29468,8.12941 2.52794,10.36269 0.93019,0.93018 2.59271,1.8391 3.87267,2.11721 1.13191,0.24596 3.12982,0.27759 4.4432,0.0704 z m -193.40007,8.83098 c -0.99202,-0.2428 -1.62923,-1.2666 -1.33218,-2.14049 0.0777,-0.22875 0.38626,-0.59474 0.6856,-0.8133 1.7455,-1.27452 2.18488,-1.66391 2.81018,-2.49044 1.60125,-2.11652 1.97181,-3.65577 2.1454,-8.91146 0.1798,-5.44388 0.17933,-73.04455 0,-75.78658 -0.30067,-4.58404 -1.48134,-6.92773 -4.48555,-8.904 -1.34771,-0.88655 -1.76963,-1.54904 -1.50236,-2.3589 0.22459,-0.68055 0.72629,-1.11772 1.59657,-1.39126 0.62126,-0.19528 2.74315,-0.2432 14.48013,-0.3271 22.33122,-0.15959 25.12849,-0.11219 30.1203,0.50968 5.35966,0.66776 9.35702,2.55862 12.02203,5.68681 2.27043,2.66499 3.37445,5.65978 3.37445,9.15365 0,6.15399 -3.40705,11.85984 -10.34075,17.31785 -0.91899,0.7234 -2.01207,1.58835 -2.42906,1.92214 -1.42407,1.13987 -1.75664,2.07628 -1.09065,3.07066 0.21066,0.31452 1.27794,1.13404 2.80288,2.15221 4.14294,2.76616 6.44744,4.66447 8.7103,7.17506 5.37498,5.96336 8.22158,12.35985 9.24663,20.77778 0.12114,0.99465 0.19683,3.12068 0.19162,5.38129 -0.01,4.07029 -0.2604,6.89828 -0.88891,10.01519 -1.97486,9.79392 -8.53798,16.76704 -18.01101,19.1362 -3.64021,0.9104 -2.56172,0.87271 -26.08433,0.91115 -11.83885,0.0192 -21.74819,-0.0194 -22.02076,-0.0861 z m 33.01914,-7.98005 c 9.8467,-1.65819 17.16979,-8.48108 19.35732,-18.03512 0.98556,-4.30444 0.78704,-8.93842 -0.61961,-14.46326 -1.15036,-4.51822 -3.10269,-8.46674 -6.1895,-12.51795 -3.80829,-4.99813 -5.94029,-6.8445 -8.40459,-7.27858 -1.9031,-0.33523 -4.74792,0.41831 -9.23752,2.44679 -1.27432,0.57577 -3.09914,1.33587 -4.05512,1.68913 -2.09739,0.77501 -2.92557,1.2435 -3.87292,2.19084 -1.52112,1.52115 -2.04499,3.39112 -1.8776,6.70241 0.0562,1.11231 0.0993,8.58084 0.0957,16.59673 -0.004,8.95768 0.0521,15.0928 0.14571,15.91967 0.27013,2.38705 0.90917,3.97186 2.01118,4.98766 1.17537,1.08343 2.76675,1.64665 5.53509,1.95902 1.59482,0.17996 5.51779,0.0711 7.11188,-0.19734 z m -9.27717,-57.48814 c 8.06808,-3.46718 11.92281,-5.77715 15.24482,-9.13553 2.42426,-2.45081 4.34985,-5.54323 5.02163,-8.06452 0.31812,-1.19398 0.35503,-3.50289 0.0741,-4.6339 -0.78637,-3.16539 -3.33355,-5.55223 -7.08554,-6.63953 -1.94348,-0.56319 -3.97659,-0.74898 -8.24957,-0.75379 -3.21878,-0.004 -4.06146,0.0404 -4.90502,0.25648 -2.77175,0.70989 -4.22756,2.16617 -4.95081,4.95252 -0.56138,2.16278 -0.6078,3.21987 -0.6078,13.8438 0,9.61223 0.0195,10.42465 0.26159,10.86727 0.61075,1.11693 1.15394,1.04451 5.19663,-0.6928 z m 208.58355,64.68796 c 1.36997,-1.12924 3.002,-3.62098 3.70259,-5.653 0.76693,-2.22452 0.74559,-1.33866 0.72765,-30.19505 -0.011,-17.95687 -0.0694,-27.27526 -0.17605,-28.17266 -0.34967,-2.94199 -1.10168,-4.50077 -3.15432,-6.53836 -0.80431,-0.79839 -1.53065,-1.63128 -1.61415,-1.85088 -0.25546,-0.67188 0.10917,-1.36976 0.94031,-1.79954 0.83365,-0.43111 6.49401,-1.42265 10.61286,-1.85912 1.37458,-0.14566 1.88742,-0.14706 2.35678,-0.007 1.72168,0.51583 2.64856,2.38559 3.37984,6.81814 0.13557,0.82214 0.37205,1.85939 0.52533,2.30499 0.34951,1.01601 0.98013,2.10512 1.21788,2.10328 0.0993,-0.001 0.54875,-0.21254 0.99879,-0.47059 0.85637,-0.49104 2.0282,-1.61138 4.23455,-4.04849 3.30719,-3.65307 7.74896,-6.33598 12.61995,-7.6227 1.64411,-0.43432 1.93645,-0.4656 4.45035,-0.47638 3.1239,-0.0138 3.81612,0.12539 6.01653,1.20609 2.26608,1.11297 4.18393,3.11124 5.49034,5.72055 1.27227,2.54118 2.31334,6.65735 2.93457,11.60259 0.11412,0.90852 0.20348,9.09118 0.27745,25.40648 0.0979,21.59464 0.13474,24.19427 0.35854,25.31186 0.65815,3.28651 1.87673,5.56994 4.10171,7.68594 l 0.90377,0.85952 h -12.41806 -12.41808 l 0.9601,-0.72683 c 2.63494,-1.99469 4.16681,-4.47998 4.94194,-8.01778 0.28591,-1.30493 0.27272,-47.75633 -0.0142,-49.85172 -0.37986,-2.77461 -1.13436,-4.44629 -2.60791,-5.77805 -1.31389,-1.18746 -3.78419,-2.13923 -5.55233,-2.13923 -1.76478,0 -4.18313,0.94894 -6.08116,2.38616 -1.35711,1.02765 -3.83752,3.40501 -4.75324,4.5558 -1.82421,2.29253 -3.19058,5.21257 -4.02362,8.59882 -0.61867,2.51485 -0.89472,4.80401 -1.06351,8.81934 -0.19144,4.55438 -0.1861,28.75968 0.007,30.93969 0.38946,4.40047 1.57583,7.22539 4.56814,10.87746 l 0.39806,0.48581 h -11.7127 -11.71269 l 0.57711,-0.47569 z m 68.08423,-0.65675 c 1.89825,-2.03263 2.996,-4.20321 3.56843,-7.05583 0.24225,-1.20717 0.26447,-3.2301 0.30004,-27.31332 0.0269,-18.23635 -0.011,-26.43123 -0.12649,-27.42037 -0.18389,-1.57342 -0.64355,-3.08252 -1.26552,-4.15478 -0.22735,-0.39194 -0.97436,-1.28876 -1.66002,-1.99295 -1.32955,-1.36544 -1.48233,-1.73377 -1.01504,-2.44695 0.37235,-0.56828 1.25757,-1.06846 3.61242,-2.04114 5.23455,-2.16218 7.52548,-2.86717 9.385,-2.88803 1.05173,-0.0124 1.28093,0.0366 1.9019,0.40163 1.05357,0.61931 1.64397,1.82272 2.09542,4.27097 0.10257,0.55606 0.19067,11.29118 0.25788,31.4135 0.0929,27.83023 0.1247,30.68259 0.35451,31.83933 0.59941,3.01744 1.59509,5.3075 3.17788,7.30916 l 0.95776,1.21122 h -11.30091 -11.30092 z m 8.65141,-85.13031 c -1.93116,-0.45526 -3.75364,-2.05117 -4.82277,-4.22324 -0.96553,-1.96158 -1.28755,-3.33479 -1.37932,-5.88226 -0.12526,-3.47572 0.46489,-6.15661 1.84254,-8.37036 3.58385,-5.75888 10.48158,-3.99663 12.99663,3.32042 1.6156,4.70032 0.54709,10.11409 -2.61017,13.22475 -1.76382,1.73779 -3.91794,2.42785 -6.02691,1.93069 z m -125.02218,-0.21623 c -0.25686,-0.13131 -0.66045,-0.44078 -0.89688,-0.68768 -0.35457,-0.37026 -0.42808,-0.57291 -0.41958,-1.15677 0.011,-0.78734 0.57074,-2.02587 6.10403,-13.51659 4.94197,-10.26274 4.49306,-9.41619 5.47586,-10.32609 1.21297,-1.12301 1.97419,-1.36705 4.13302,-1.32504 3.16921,0.0616 3.91771,0.59897 5.64444,4.05189 3.70326,7.40547 9.58257,19.79529 9.82691,20.70884 0.15066,0.56333 0.13475,0.71766 -0.12608,1.2203 -0.58661,1.13034 -2.24143,1.58248 -3.57501,0.9768 -0.33486,-0.15209 -0.87301,-0.53775 -1.19583,-0.857 -1.46266,-1.44652 -5.26124,-5.88062 -7.15485,-8.35189 -1.3952,-1.82081 -2.43831,-2.87935 -3.02973,-3.07453 -1.01282,-0.33427 -1.87877,0.26382 -3.43109,2.36976 -2.43446,3.30271 -7.46811,9.0434 -8.47067,9.66049 -0.88457,0.54446 -2.15598,0.68 -2.88449,0.30751 z M 583.4435,134.1081 c -3.36906,-0.42222 -6.63101,-1.68843 -9.05819,-3.5162 -4.79434,-3.6103 -7.16044,-9.25167 -7.16044,-17.0723 0,-10.1498 4.50636,-18.099562 13.75219,-24.260532 5.3673,-3.576518 11.15299,-6.111467 16.98904,-7.443656 4.17882,-0.953898 5.12165,-1.320556 6.40186,-2.489648 1.4698,-1.342226 2.01494,-2.931406 2.01857,-5.884385 0.005,-4.505489 -0.82269,-7.207086 -2.82066,-9.200584 -1.57152,-1.568025 -3.31166,-2.26381 -6.34452,-2.536843 -5.67993,-0.511336 -11.00148,1.503775 -15.28608,5.788365 -2.7138,2.713806 -4.73455,5.767239 -7.84171,11.849204 -0.92288,1.806463 -0.8536,1.858148 -1.29178,-0.963372 -0.18104,-1.165724 -0.25494,-2.557887 -0.25391,-4.783367 10e-4,-3.231062 0.0579,-3.950078 0.81017,-10.314155 0.65048,-5.503279 0.69017,-5.701821 1.26608,-6.330243 l 0.48845,-0.532992 1.69875,-0.03121 c 3.34524,-0.06146 4.46962,-0.303259 10.89237,-2.342419 4.81273,-1.527996 6.36699,-1.837924 9.96892,-1.98787 5.89524,-0.245418 10.95159,0.890315 14.59882,3.279117 4.19448,2.747224 6.59286,6.864983 7.34761,12.615056 0.16252,1.238128 0.18613,4.392042 0.12141,16.22191 -0.0835,15.261155 0.12264,32.527924 0.41526,34.790114 0.24884,1.92336 0.80662,3.93286 1.47487,5.31346 0.67331,1.39109 2.04228,3.20275 2.93033,3.87792 1.13776,0.86504 1.80554,1.86941 1.6106,2.42236 -0.46191,1.31024 -3.24959,2.25115 -7.07692,2.38865 -2.68515,0.0965 -3.8611,-0.12031 -5.755,-1.06101 -2.89105,-1.4359 -4.99988,-4.17149 -6.54938,-8.49584 -0.0747,-0.20838 -0.66241,0.30832 -2.8264,2.48472 -1.50267,1.51132 -3.29475,3.16888 -3.98239,3.68348 -4.36083,3.26347 -8.58718,4.66293 -13.92201,4.60999 -1.19211,-0.0124 -2.36925,-0.0469 -2.61589,-0.0777 z m 9.73533,-11.63951 c 5.15003,-1.47903 9.36566,-5.71466 11.38517,-11.43919 0.61667,-1.74803 1.09367,-3.77178 1.37165,-5.81952 0.2535,-1.86734 0.48568,-8.246338 0.42435,-11.659471 -0.0495,-2.751466 -0.0978,-3.296084 -0.3358,-3.785566 -0.70547,-1.45053 -1.85372,-1.390431 -6.13786,0.321353 -0.41106,0.164224 -1.11736,0.44459 -1.56954,0.623031 -2.73241,1.078181 -6.19262,2.985497 -8.3552,4.60549 -5.17457,3.876326 -8.58982,9.831613 -8.93234,15.575643 -0.31338,5.25499 2.05589,10.16549 5.53304,11.46763 1.95452,0.73196 4.31554,0.77142 6.61653,0.11055 z m -106.38511,11.37042 c -8.4591,-1.37227 -15.47316,-6.44964 -20.41829,-14.78053 -3.38161,-5.69685 -5.27209,-11.46177 -6.35511,-19.379372 -0.31104,-2.273987 -0.26508,-10.627589 0.0723,-13.154278 0.82937,-6.209625 2.37686,-11.392387 4.9096,-16.442837 2.13532,-4.257985 4.49211,-7.51845 7.58885,-10.498726 2.13959,-2.059118 3.98463,-3.391767 6.44027,-4.651649 3.8322,-1.966168 6.83329,-2.744893 11.13628,-2.889654 8.08864,-0.272118 15.58979,3.122152 20.99329,9.499444 4.91209,5.797354 7.96761,11.851202 9.40319,18.630514 1.19636,5.649456 1.38924,14.525071 0.47103,21.676138 -1.23334,9.60563 -4.68712,17.20886 -10.67079,23.49089 -4.20806,4.41789 -8.81613,7.04642 -14.51646,8.28044 -1.93421,0.41873 -7.06041,0.54306 -9.05425,0.21962 z m 6.37261,-8.90842 c 1.49285,-0.20763 3.39857,-0.8611 4.58194,-1.57114 1.19732,-0.71841 3.4447,-2.96479 4.33299,-4.33106 1.5846,-2.43724 3.01054,-5.83321 3.85674,-9.185 0.64287,-2.54643 1.09778,-5.60312 1.64747,-11.070208 l 0.47013,-4.675681 -0.39051,-4.047933 c -0.67741,-7.022028 -1.22332,-10.564007 -2.12142,-13.764133 -1.92281,-6.851538 -5.67421,-12.136033 -10.25095,-14.440222 -1.8562,-0.934519 -3.17717,-1.245358 -5.27449,-1.241169 -1.60687,0.0032 -1.92763,0.0506 -3.07869,0.454827 -1.89483,0.665431 -3.17546,1.447541 -4.58331,2.799138 -2.01639,1.935819 -3.30808,4.077798 -4.96627,8.235466 -1.61461,4.048442 -2.687,8.158427 -3.39492,13.011293 -0.38252,2.622276 -0.38102,10.540211 0.003,13.378506 0.77245,5.715966 2.06119,10.516506 4.39416,16.368096 1.89755,4.7595 4.01925,7.37988 7.29156,9.00541 2.1913,1.08851 4.74383,1.4548 7.48304,1.07381 z m -53.74722,8.60124 c -1.80139,-0.50336 -3.45071,-1.485 -4.60871,-2.74298 -2.16971,-2.35705 -3.74263,-6.55867 -4.60933,-12.31266 -0.22721,-1.50843 -0.26206,-4.18261 -0.33837,-25.972145 l -0.0851,-24.290553 -0.33538,-0.828242 c -0.66805,-1.649871 -1.95405,-2.452896 -4.34155,-2.711057 -1.48756,-0.160842 -2.46109,-0.512966 -2.62918,-0.950984 -0.3382,-0.881349 0.0545,-1.595255 1.64426,-2.989734 4.33159,-3.799311 6.12589,-6.853369 7.19642,-12.24876 0.18385,-0.926657 0.2429,-2.28342 0.26027,-5.981863 0.0249,-5.28633 0.011,-5.193588 1.08507,-7.362321 1.53204,-3.093951 4.75128,-5.76888 7.60617,-6.320132 1.14073,-0.22026 1.84548,-0.02766 2.3158,0.632834 0.29051,0.40799 0.33837,0.738463 0.44761,3.090957 0.0672,1.448766 0.1166,6.53556 0.10972,11.303985 -0.01,6.354477 0.0358,8.849283 0.16842,9.341687 0.63818,2.367645 2.07958,3.267875 4.95217,3.092872 1.1699,-0.07128 1.70755,-0.190425 2.81906,-0.624765 1.60641,-0.627717 2.09644,-0.743036 2.60985,-0.61418 0.67294,0.168896 0.83036,0.75255 0.83036,3.078646 0,3.594918 -0.59203,5.463059 -2.01161,6.347537 -0.69772,0.434731 -0.74632,0.44239 -2.97376,0.469421 -2.4973,0.03025 -3.34133,0.208058 -4.41651,0.930167 -0.34777,0.233549 -0.8289,0.721615 -1.0692,1.084588 -0.93956,1.419209 -0.90506,0.346666 -0.85492,26.596261 0.0503,26.351981 -0.0175,24.527061 0.97939,26.360521 1.14774,2.11093 4.30942,3.17149 6.46012,2.16698 1.16277,-0.54307 2.13832,-1.39414 3.66292,-3.19553 0.88987,-1.05138 1.68665,-1.81532 2.4278,-2.32768 0.60678,-0.41945 1.12434,-0.73887 1.15015,-0.7098 0.0689,0.0774 -0.47983,4.61261 -0.7477,6.18068 -0.73057,4.27669 -1.92079,7.18013 -3.59652,8.77347 -1.98297,1.88544 -5.23442,2.7819 -10.52016,2.90047 -2.17932,0.0489 -2.93962,0.0137 -3.58753,-0.16769 z M 302.794,132.69998 c -4.15183,-0.071 -15.04895,-0.19039 -24.21583,-0.26555 -17.51725,-0.14361 -17.32046,-0.13516 -18.61067,-0.80265 -1.02097,-0.52826 -1.30517,-1.38563 -0.72076,-2.17442 0.16518,-0.22293 0.6977,-0.70702 1.18339,-1.07577 2.49412,-1.89354 3.71339,-3.80374 4.42281,-6.9292 0.30119,-1.3269 0.31532,-1.95172 0.45781,-20.22678 0.0962,-12.351376 0.0964,-26.069944 0,-39.761801 -0.141,-20.081878 -0.15856,-20.95723 -0.4466,-22.252179 -0.61022,-2.743449 -1.8809,-4.935168 -3.66776,-6.32628 -1.59831,-1.24433 -2.03125,-1.678949 -2.20905,-2.217654 -0.15218,-0.461165 -0.13681,-0.580707 0.11935,-0.924391 0.39905,-0.535414 1.10144,-0.924534 2.11076,-1.169348 1.36837,-0.331898 11.05702,-0.518478 18.03308,-0.347274 14.63677,0.359213 21.77137,0.128311 27.89472,-0.902796 0.9546,-0.160742 1.98373,-0.292259 2.287,-0.292259 0.82227,0 1.41832,0.375984 1.73487,1.094346 0.47134,1.069618 5.30438,29.144966 5.15642,29.953735 -0.12031,0.657435 -0.71123,1.090211 -1.48863,1.090211 -0.75716,0 -1.18746,-0.35368 -1.61959,-1.331179 -0.34437,-0.778952 -3.25579,-6.239011 -3.99287,-7.488167 -1.91189,-3.240219 -5.11272,-6.746073 -7.76702,-8.507189 -5.46075,-3.623198 -11.96551,-4.956165 -16.49641,-3.380477 -4.62254,1.607562 -7.19728,6.260187 -6.53244,11.804308 0.22984,1.916457 0.64247,3.535317 1.16434,4.567772 0.82051,1.623325 2.8273,2.341838 6.14335,2.199571 3.86566,-0.165851 7.93215,-1.903147 10.10094,-4.315354 0.81513,-0.906622 1.17918,-1.567979 1.58327,-2.876268 0.36434,-1.179608 0.6873,-1.485435 1.56859,-1.485435 0.83737,0 1.45482,0.526107 1.69622,1.445304 0.19087,0.726768 0.55234,3.779197 1.95894,16.542171 1.78194,16.16836 1.69431,15.244669 1.50597,15.873254 -0.26842,0.895931 -1.33451,1.299534 -2.07065,0.783941 -0.46826,-0.327994 -0.76725,-0.979074 -1.74585,-3.801872 -1.47684,-4.259923 -2.21709,-5.826156 -3.60315,-7.623503 -2.98848,-3.875282 -7.9404,-5.938668 -12.92039,-5.383752 -2.60018,0.289743 -3.67293,0.772831 -4.3334,1.951479 l -0.3737,0.666878 -0.12855,14.798567 c -0.15378,17.700611 -0.0283,22.713791 0.74043,29.584901 0.67728,6.05377 2.54509,9.02377 6.41372,10.19849 0.69991,0.21254 1.40568,0.2729 3.21382,0.27485 2.30569,0.003 3.21562,-0.11014 5.60551,-0.69386 6.03961,-1.47515 11.06809,-4.91012 15.21236,-10.39163 3.65456,-4.83377 6.43497,-9.83192 8.19717,-14.735429 0.96538,-2.686239 1.5722,-3.679049 2.58065,-4.22214 0.51973,-0.279884 0.53241,-0.279774 0.84936,0.0069 0.45254,0.409529 0.7396,1.018741 0.7396,1.569601 0,0.258738 -0.70453,3.507688 -1.56563,7.219868 -0.86108,3.71218 -2.4095,10.38181 -3.44091,14.82137 -1.03142,4.43958 -2.13692,9.22289 -2.45666,10.62959 -0.6136,2.69957 -0.9129,3.4687 -1.60404,4.12209 -0.90138,0.85216 -1.13942,0.8679 -10.66417,0.70524 z m 230.19986,-0.43344 c -3.3429,-0.10862 -4.17781,-0.23967 -4.83861,-0.75946 -0.71363,-0.56133 -0.55508,-1.03346 0.8068,-2.40269 2.3581,-2.3708 3.15133,-4.09017 3.61026,-7.82536 0.26399,-2.14854 0.2642,-49.332262 0,-52.289063 -0.44849,-5.024038 -1.39699,-7.13289 -4.35673,-9.686583 -0.57912,-0.499672 -1.09483,-1.075403 -1.14603,-1.279403 -0.1364,-0.543375 0.15537,-1.04508 0.79837,-1.373006 0.91369,-0.465945 10.11329,-1.92574 12.56117,-1.993203 2.04502,-0.05636 2.59303,0.826207 4.70104,7.570965 l 0.65233,2.087199 1.13487,-1.638758 c 4.67084,-6.744714 8.04777,-9.409354 13.2602,-10.463267 1.59892,-0.32329 3.89006,-0.252838 4.65541,0.143148 1.69435,0.876652 2.30128,2.648669 1.966,5.739992 -0.32847,3.028532 -1.15192,7.567339 -1.50533,8.29741 -0.68194,1.408704 -1.83127,1.701802 -4.80259,1.224764 -2.01705,-0.323828 -4.99526,-0.327912 -6.19644,-0.0083 -2.87882,0.765558 -4.6862,2.697513 -5.89276,6.298932 -0.99878,2.981207 -2.20638,9.937103 -2.83883,16.352159 -0.3839,3.893733 -0.51554,7.052831 -0.51392,12.332144 0.003,6.92779 0.31438,11.91219 1.17521,18.75979 l 0.36643,2.91487 0.7839,1.54998 c 0.60441,1.19511 0.95183,1.69134 1.51753,2.16746 0.40352,0.33962 1.0362,0.90332 1.40597,1.2527 0.6087,0.57508 0.66425,0.68482 0.58715,1.15989 -0.11577,0.71364 -0.58274,1.3273 -1.25901,1.65462 -0.51622,0.24984 -1.10268,0.2746 -6.99115,0.29518 -3.53521,0.0124 -7.87388,-0.0245 -9.64149,-0.0819 z M 365.4263,132.10597 c -8.35412,-0.11275 -11.61853,-0.27009 -13.97642,-0.67372 -7.66682,-1.31241 -13.98414,-5.41704 -18.27215,-11.87224 -3.49078,-5.25504 -5.47927,-11.20962 -6.56423,-19.656675 -0.33834,-2.634183 -0.38512,-10.200144 -0.0781,-12.631096 0.48735,-3.858902 1.15433,-6.969133 2.21179,-10.314152 3.89212,-12.311613 10.81938,-19.308424 21.65634,-21.873725 2.95855,-0.700343 4.83727,-0.870713 10.91207,-0.98956 5.75749,-0.112636 6.18599,-0.156719 7.07156,-0.727457 0.47121,-0.303691 0.87156,-1.138955 1.05581,-2.202756 0.0866,-0.499787 0.17129,-3.996241 0.19362,-7.989075 0.0362,-6.465521 0.0155,-7.187188 -0.23053,-8.071943 -0.58586,-2.106602 -1.51342,-3.414075 -3.39069,-4.779497 -0.98416,-0.715813 -1.0375,-0.785264 -1.0375,-1.350866 0,-0.490438 0.10024,-0.696435 0.56449,-1.160735 0.31045,-0.310464 0.93265,-0.707043 1.38269,-0.881288 0.45001,-0.174244 1.84859,-0.762201 3.10796,-1.306571 4.12129,-1.781459 7.00805,-2.592826 8.68424,-2.440835 1.97685,0.179253 3.08639,1.348575 3.66476,3.862202 0.59803,2.599147 0.58657,1.75877 0.68162,49.912106 0.0993,50.267353 0.041,47.071263 0.89191,48.959373 0.50335,1.11686 1.14986,1.86526 2.26607,2.62327 0.47404,0.32193 0.96673,0.73496 1.09485,0.91789 0.53282,0.76067 0.0491,2.03547 -0.96586,2.5454 -0.47255,0.23741 -1.08177,0.25909 -6.6489,0.23663 -3.37079,-0.0137 -9.79472,-0.0742 -14.27539,-0.13461 z m 0.91892,-9.61024 c 1.66299,-0.39143 2.67652,-1.30126 3.13136,-2.81101 0.19037,-0.63186 0.1793,-45.052456 -0.0124,-48.035037 -0.0737,-1.149981 -0.24375,-2.561737 -0.37777,-3.137236 -0.67979,-2.918729 -2.31768,-4.630005 -5.18624,-5.418537 -1.35713,-0.373061 -5.82841,-0.365231 -7.56214,0.0132 -7.72101,1.685507 -11.92992,6.601818 -14.60538,17.060137 -2.35265,9.196386 -2.05064,18.460616 0.8921,27.366043 2.79972,8.47256 8.85618,13.7012 17.29406,14.93026 1.85036,0.26951 5.34324,0.28699 6.42597,0.0322 z m 31.51832,9.62475 c -1.95434,-0.13681 -2.69139,-0.54363 -2.68965,-1.48472 0.001,-0.68847 0.30926,-1.14393 1.6166,-2.3905 1.24331,-1.18552 1.98023,-2.54941 2.29406,-4.24588 0.16117,-0.87121 0.19907,-6.34039 0.19907,-28.729941 0,-26.09769 -0.0151,-27.712761 -0.26795,-28.700236 -0.44619,-1.742487 -0.90597,-2.560499 -2.08756,-3.713999 -1.47501,-1.439978 -1.75521,-1.840178 -1.75521,-2.506984 0,-0.971301 0.63626,-1.444236 3.90551,-2.902917 5.3883,-2.404183 8.84604,-3.155044 10.63918,-2.310334 0.99455,0.468512 1.77452,1.581381 2.19994,3.138907 0.64223,2.351248 0.63163,1.873765 0.7364,33.183805 0.0912,27.240899 0.12154,29.911369 0.35168,30.861679 0.63629,2.6277 1.39068,4.03877 3.02649,5.66096 1.7423,1.72779 2.06701,2.32631 1.69961,3.13269 -0.30232,0.66351 -0.91175,0.87264 -2.94926,1.01202 -2.16808,0.14831 -14.78312,0.1449 -16.91891,-0.004 z m 5.755,-87.360796 c -3.38831,-1.074392 -5.33802,-4.360172 -5.68658,-9.583401 -0.26517,-3.973869 0.89087,-7.968426 2.9401,-10.159049 2.57044,-2.747821 6.07751,-2.807919 8.93251,-0.153073 4.06622,3.781156 4.97735,10.781179 2.07321,15.928054 -1.52893,2.709678 -3.83726,4.189939 -6.49813,4.167064 -0.63975,-0.0055 -1.43225,-0.09531 -1.76111,-0.199595 z"
       id="path8636" /></g></svg>
