<?xml version="1.0" encoding="UTF-8" standalone="no"?>
<!-- Created with Inkscape (http://www.inkscape.org/) -->

<svg
   width="661.45831mm"
   height="285.75mm"
   viewBox="0 0 661.45831 285.75"
   version="1.1"
   id="svg5"
   xml:space="preserve"
   inkscape:version="1.2.2 (732a01da63, 2022-12-09)"
   sodipodi:docname="usiminas.svg"
   xmlns:inkscape="http://www.inkscape.org/namespaces/inkscape"
   xmlns:sodipodi="http://sodipodi.sourceforge.net/DTD/sodipodi-0.dtd"
   xmlns="http://www.w3.org/2000/svg"
   xmlns:svg="http://www.w3.org/2000/svg"><sodipodi:namedview
     id="namedview7"
     pagecolor="#ffffff"
     bordercolor="#000000"
     borderopacity="0.25"
     inkscape:showpageshadow="2"
     inkscape:pageopacity="0.0"
     inkscape:pagecheckerboard="0"
     inkscape:deskcolor="#d1d1d1"
     inkscape:document-units="mm"
     showgrid="false"
     inkscape:zoom="0.98171998"
     inkscape:cx="2470.1545"
     inkscape:cy="791.46805"
     inkscape:window-width="1366"
     inkscape:window-height="705"
     inkscape:window-x="-8"
     inkscape:window-y="-8"
     inkscape:window-maximized="1"
     inkscape:current-layer="layer1" /><defs
     id="defs2" /><g
     inkscape:label="Camada 1"
     inkscape:groupmode="layer"
     id="layer1"><path
       style="fill:#787774;fill-opacity:1;stroke-width:0.783717"
       d="m 62.289576,177.36893 c -1.733204,-0.56413 -4.093659,-1.64315 -5.245435,-2.39783 -2.025503,-1.32713 -2.127487,-1.31875 -3.111047,0.25622 -0.5593,0.89555 -1.63741,1.62829 -2.395823,1.62829 -1.245348,0 -1.378909,-0.98679 -1.378909,-10.18832 0,-8.17094 0.21564,-10.18833 1.088359,-10.18833 0.640432,0 1.307671,1.2095 1.621237,2.93892 0.909657,5.01667 4.001182,10.82683 6.962881,13.08583 7.50669,5.72565 17.745901,1.32038 17.754729,-7.63871 0.0059,-5.36528 -2.684567,-8.68577 -13.093061,-16.16284 -11.17132,-8.02506 -14.947236,-14.68891 -14.125287,-24.92876 1.047303,-13.04714 12.556568,-19.8514 23.999362,-14.18843 3.965342,1.96245 4.142177,1.98214 5.029974,0.56057 0.506071,-0.81037 1.540639,-1.47338 2.29905,-1.47338 1.236137,0 1.378909,0.93319 1.378909,9.01275 0,10.60502 -1.106782,11.84957 -3.849168,4.32826 -2.885691,-7.91422 -7.243301,-11.77358 -13.293563,-11.77358 -2.228168,0 -3.818599,0.59316 -5.592414,2.08572 -6.889955,5.79751 -4.121472,11.50029 10.310775,21.23906 6.381068,4.30589 9.161606,7.17287 11.874044,12.24309 2.365462,4.42163 2.527961,18.17839 0.264811,22.42726 -1.847599,3.46891 -5.003077,6.88535 -7.625143,8.25574 -3.093452,1.61677 -9.30423,2.04059 -12.8744,0.87851 z m 197.812914,0.0178 c -12.54051,-4.68829 -20.28441,-17.87602 -20.28441,-34.54417 0,-11.47597 3.49019,-21.02507 10.20396,-27.91784 9.50637,-9.75981 21.81681,-9.67775 31.3483,0.20883 15.54145,16.12072 12.00298,50.51605 -6.21715,60.43268 -4.78284,2.60314 -10.95873,3.3501 -15.0507,1.82033 z m 10.50434,-3.97179 c 3.62557,-3.36011 4.0867,-6.81878 4.0867,-30.65218 0,-23.13935 -0.3904,-26.27969 -3.72168,-29.93656 -3.66603,-4.02435 -9.8055,-2.86232 -12.46983,2.36019 -2.26129,4.43248 -3.27563,17.36264 -2.71662,34.62984 0.51218,15.8212 1.63777,21.27498 4.92449,23.86032 2.86007,2.24973 7.31419,2.13198 9.89694,-0.26155 z m 368.4991,3.95292 c -1.7332,-0.56411 -4.09367,-1.64315 -5.24544,-2.39783 -2.02548,-1.32716 -2.12749,-1.31874 -3.11104,0.25622 -0.55931,0.89556 -1.63742,1.62829 -2.39579,1.62829 -1.24539,0 -1.37891,-0.98679 -1.37891,-10.18832 0,-8.17095 0.21563,-10.18832 1.08832,-10.18832 0.63797,0 1.31463,1.2162 1.63516,2.93891 0.9143,4.91424 3.60047,10.26951 6.37146,12.70248 8.88715,7.80302 21.62897,-0.55184 17.50159,-11.47589 -1.13163,-2.99508 -4.07423,-5.96113 -10.1385,-10.21932 -6.80663,-4.77944 -12.29519,-10.10676 -14.35268,-13.93102 -1.368,-2.54271 -1.68915,-4.47819 -1.70006,-10.24643 -0.0119,-6.56612 0.16943,-7.40766 2.36981,-10.97206 4.57266,-7.40696 13.37207,-9.68 21.63764,-5.58942 3.70723,1.83467 3.88963,1.85228 4.64128,0.44784 0.43031,-0.80406 1.48685,-1.46191 2.3479,-1.46191 1.48525,0 1.55418,0.4521 1.34393,8.81681 -0.25326,10.07748 -1.36996,11.53187 -3.6601,4.76694 -2.61348,-7.71998 -7.32887,-12.01912 -13.17657,-12.01337 -5.72323,0.006 -10.51059,5.04043 -9.31648,9.79806 0.78296,3.1197 5.59455,7.89718 13.19925,13.10575 10.87968,7.45162 14.69161,13.82193 14.69161,24.55191 0,8.04931 -3.27079,14.82493 -8.80868,18.24752 -3.36919,2.08226 -9.5299,2.72965 -13.5437,1.42319 z m -91.49089,-28.66831 c -7.86205,-15.91626 -14.55911,-28.96518 -14.88239,-28.99756 -0.32328,-0.0323 -0.5878,12.10829 -0.5878,26.97934 v 27.03828 h 2.74301 c 2.22056,0 2.74303,0.29855 2.74303,1.56745 0,1.44449 -0.52247,1.56741 -6.6616,1.56741 -6.13913,0 -6.66161,-0.12292 -6.66161,-1.56741 0,-1.21913 0.52248,-1.56745 2.35115,-1.56745 h 2.35116 v -30.95685 -30.95688 h -2.35116 c -1.8409,0 -2.35115,-0.34555 -2.35115,-1.5923 0,-1.52277 0.40208,-1.58268 9.20867,-1.3715 l 9.2087,0.22067 9.93718,19.98483 9.93716,19.98478 0.0551,-18.56364 0.0551,-18.56364 -2.54067,-0.24555 c -1.67324,-0.16174 -2.62935,-0.71381 -2.80047,-1.6171 -0.23192,-1.22449 0.50232,-1.3715 6.85112,-1.3715 6.58845,0 7.11093,0.11523 7.11093,1.56744 0,1.21911 -0.52248,1.56742 -2.35115,1.56742 h -2.35115 v 32.91618 32.91616 h -2.35942 c -2.32272,0 -2.5817,-0.45004 -16.65399,-28.93868 z M 4.2635843e-4,175.73093 c 0,-0.64307 0.92165224157,-1.22956 2.15521194157,-1.3715 L 4.3108798,174.1115 4.515856,142.95871 4.7208322,111.80591 H 2.3606735 c -1.8376474,0 -2.36012832087,-0.34698 -2.36012832087,-1.56741 0,-1.52803 0.52248092087,-1.56745 20.76852882087,-1.56745 h 20.7685 v 2.62476 c 0,1.44363 0.22808,5.32304 0.506872,8.62091 0.471237,5.5747 0.400622,5.99612 -1.004472,5.99612 -1.111492,0 -1.783233,-0.9208 -2.538979,-3.4804 -1.268424,-4.29585 -5.10056,-8.6284 -8.64019,-9.76847 -1.465224,-0.47192 -4.55924,-0.85806 -6.875619,-0.85806 h -4.211578 l 0.213862,13.91101 0.213863,13.91098 1.959298,-0.2429 c 3.67642,-0.45579 5.808884,-2.74836 6.947835,-7.46954 0.671415,-2.78328 1.480715,-4.43519 2.172895,-4.43519 0.915492,0 1.066646,2.41994 0.889336,14.23825 -0.152548,10.16569 -0.480953,14.32715 -1.148281,14.54909 -0.564987,0.1878 -1.13359,-0.87151 -1.437499,-2.67837 -1.300177,-7.72971 -3.274228,-10.43459 -7.615249,-10.43459 h -2.193335 l 0.212381,15.47843 0.212381,15.47842 4.702307,-0.25385 c 9.348396,-0.50445 13.5627,-4.21262 15.976146,-14.05745 2.11007,-8.60716 3.226568,-7.26579 3.214245,3.86161 -0.0059,5.31623 -0.223339,10.45938 -0.483262,11.42923 l -0.472571,1.76335 H 21.068986 C 3.2973434,176.85439 1.1011719e-5,176.67844 1.1011719e-5,175.73087 Z M 99.532588,175.72462 c 0,-0.76972 1.062952,-1.20744 3.330802,-1.3715 l 3.33081,-0.24111 0.20498,-31.15279 0.20497,-31.15281 h -2.25444 c -4.608702,0 -8.617713,5.27391 -10.580652,13.91892 -0.690874,3.04262 -1.445322,4.58049 -2.33122,4.75187 -1.164748,0.22541 -1.308553,-0.77233 -1.299047,-9.01276 0.0063,-5.09638 0.223341,-10.05968 0.483264,-11.02953 l 0.47257,-1.76335 h 22.636415 22.63642 v 4.9759 c 0,2.73677 0.22808,7.67421 0.50684,10.97206 0.44731,5.29166 0.35234,5.99613 -0.80832,5.99613 -0.72333,0 -1.45101,-0.44082 -1.61707,-0.97965 -0.16617,-0.53881 -1.06661,-3.60175 -2.00126,-6.80655 -2.04031,-6.99578 -5.45041,-11.02298 -9.33403,-11.02298 h -2.4385 l 0.20497,31.1528 0.20499,31.15279 3.33079,0.24112 c 2.26787,0.1641 3.3308,0.60178 3.3308,1.37151 0,0.943 -2.3398,1.1305 -14.10691,1.1305 -11.76712,0 -14.10693,-0.1875 -14.10693,-1.1305 z m 33.699862,0.006 c 0,-0.64307 0.92165,-1.22956 2.15524,-1.3715 2.13886,-0.24615 2.22627,-0.49606 11.5287,-32.9682 9.30258,-32.47276 9.38913,-32.72024 11.44211,-32.72024 2.27447,0 1.7125,-1.81655 15.15311,48.98237 3.78012,14.28701 4.33148,15.76487 6.22928,16.69677 4.0457,1.98667 2.12707,2.50431 -9.28184,2.50431 -9.57874,0 -11.3639,-0.18453 -11.3639,-1.17555 0,-0.72391 0.73503,-1.17559 1.91306,-1.17559 1.05215,0 2.07319,-0.26452 2.26895,-0.5878 0.19579,-0.32328 -0.60823,-4.29085 -1.78661,-8.81682 l -2.14254,-8.22902 -6.78802,-0.22631 c -3.73345,-0.12441 -6.78803,-0.12381 -6.78803,0.002 0,0.12528 -1.04754,3.89291 -2.32781,8.37215 -1.2803,4.47922 -2.14118,8.44605 -1.91306,8.81519 0.22807,0.3691 1.62832,0.67108 3.11155,0.67108 1.87464,0 2.69673,0.35839 2.69673,1.1756 0,0.95788 -1.30618,1.17556 -7.05346,1.17556 -5.602,0 -7.05346,-0.23105 -7.05346,-1.12352 z m 24.77132,-24.15138 c -0.26985,-0.96984 -1.43706,-5.55461 -2.59396,-10.18832 -1.1569,-4.63374 -2.29985,-8.4239 -2.53987,-8.42256 -0.41253,0.002 -5.61978,18.53639 -5.5591,19.78644 0.0148,0.32329 2.5384,0.58779 5.60597,0.58779 5.40685,0 5.56242,-0.0539 5.08696,-1.76335 z m 26.17036,24.20782 c 0,-0.76379 0.90503,-1.27201 2.54706,-1.43034 l 2.5471,-0.24556 0.20497,-31.10247 0.20498,-31.10246 -2.54961,-0.24616 c -1.68152,-0.16231 -2.63809,-0.71324 -2.80945,-1.61777 -0.23755,-1.25465 0.69645,-1.37099 10.96563,-1.36558 6.174,0.003 13.50719,0.37613 16.296,0.82858 13.79794,2.23863 20.82059,11.755 21.76364,29.49184 0.69721,13.11359 -2.05249,23.21157 -8.17479,30.02105 -6.29389,7.00032 -7.63391,7.40464 -25.51693,7.69898 -13.40174,0.22067 -15.47842,0.0957 -15.47842,-0.93 z m 28.00161,-3.33872 c 4.1619,-2.60853 5.66206,-10.03916 5.67677,-28.1185 0.0119,-13.13885 -0.97147,-23.69139 -2.49393,-26.79498 -1.44161,-2.93873 -4.55094,-4.99134 -8.32858,-5.49803 l -3.26294,-0.43766 v 30.92944 c 0,17.01118 0.23935,31.16872 0.53176,31.46116 0.75095,0.75095 5.79398,-0.23608 7.87692,-1.54143 z m 95.8258,3.28907 c 0,-0.6944 0.65767,-1.23442 1.50335,-1.23442 4.1691,0 3.98269,1.48951 3.98269,-31.82442 v -30.87302 h -2.743 c -2.22056,0 -2.74304,-0.29856 -2.74304,-1.56743 0,-1.49431 0.52097,-1.56723 11.16801,-1.56291 13.35064,0.006 19.07341,0.83723 24.70005,3.59008 7.85365,3.84244 12.42812,13.0167 13.27622,26.62608 0.7909,12.69102 -2.10779,23.40751 -8.14892,30.12669 -6.29389,7.00032 -7.63392,7.40465 -25.51693,7.699 -13.6718,0.22511 -15.47843,0.11077 -15.47843,-0.97965 z m 28.00161,-3.2407 c 2.8281,-1.85082 4.22639,-5.56304 4.96341,-13.17692 1.42667,-14.73827 0.35007,-37.46792 -1.98891,-41.99097 -1.57699,-3.04958 -4.24577,-4.77234 -8.21843,-5.30518 l -3.16472,-0.42447 v 31.55209 31.55205 l 3.33081,-0.53164 c 1.83193,-0.29236 4.11697,-1.04611 5.07784,-1.67496 z m 27.64237,3.18187 c 0,-0.78374 0.7837,-1.17559 2.35116,-1.17559 h 2.35115 v -31.34871 -31.34873 h -2.35115 c -1.82867,0 -2.35116,-0.34832 -2.35116,-1.56743 0,-1.52777 0.52249,-1.56744 20.65686,-1.56744 h 20.65689 l 0.5035,4.81726 c 0.90671,8.67501 0.66783,12.5726 -0.7531,12.28607 -0.6911,-0.13922 -1.9123,-1.98373 -2.71376,-4.09859 -2.69034,-7.09914 -7.81448,-10.28499 -15.64581,-9.72744 l -3.5035,0.24942 v 13.71504 13.71506 l 2.35116,-0.22215 c 3.33531,-0.31529 6.42876,-3.95957 7.08696,-8.34896 0.34019,-2.26851 0.93371,-3.57646 1.62292,-3.57646 0.88715,0 1.08659,2.66121 1.08659,14.49879 0,12.36533 -0.17298,14.4988 -1.17557,14.4988 -0.69535,0 -1.17736,-0.72038 -1.17995,-1.76338 -0.0148,-6.10972 -3.6991,-11.55983 -7.81375,-11.55983 h -2.40336 l 0.21239,15.47842 0.21237,15.47843 5.07237,-0.2417 c 9.28328,-0.44251 13.1321,-3.78409 15.6137,-13.55598 0.92741,-3.65183 1.867,-5.7952 2.54046,-5.7952 0.69221,0 1.05341,0.89737 1.02518,2.54706 -0.0237,1.40093 -0.11197,6.42652 -0.1958,11.16801 l -0.15224,8.62089 h -21.55224 c -18.63506,0 -21.55224,-0.15908 -21.55224,-1.17557 z m 62.84259,-0.19609 c 0.15698,-0.82719 1.11278,-1.46994 2.40861,-1.61949 l 2.14852,-0.24792 v -30.90481 -30.90482 h -2.35112 c -1.8399,0 -2.35116,-0.34577 -2.35116,-1.59017 0,-1.5284 0.40136,-1.58168 10.33137,-1.37149 l 10.33136,0.2186 4.39706,19.75729 c 2.41839,10.86654 4.59506,19.95528 4.83699,20.19721 0.24201,0.24202 2.09912,-5.82745 4.12702,-13.48755 2.02789,-7.6601 4.47075,-16.74883 5.42858,-20.19721 l 1.7415,-6.26974 9.5762,-0.22008 c 9.17431,-0.21091 9.57618,-0.15315 9.57618,1.3715 0,1.1752 -0.51258,1.59156 -1.9593,1.59156 h -1.95929 v 30.95688 30.95685 h 1.95929 c 1.43681,0 1.9593,0.41798 1.9593,1.56745 0,1.4981 -0.52249,1.56741 -11.81323,1.56741 -10.82718,0 -11.79155,-0.11433 -11.55343,-1.3715 0.17121,-0.90325 1.12723,-1.45533 2.8005,-1.61709 l 2.54064,-0.24555 -0.0497,-27.57641 c -0.0267,-15.16703 -0.32734,-26.87104 -0.66671,-26.00896 -0.33939,0.86208 -3.91125,13.99916 -7.93746,29.19349 -6.90267,26.04953 -7.42192,27.62605 -9.09956,27.62605 -1.40329,0 -1.93373,-0.62085 -2.51101,-2.93895 -0.40255,-1.6164 -3.4753,-14.75348 -6.82828,-29.19347 -3.35303,-14.44 -6.38768,-26.58961 -6.74367,-26.99909 -0.35594,-0.40951 -0.64721,11.99987 -0.64721,27.5764 v 28.32094 l 2.54067,0.24555 c 1.67328,0.16173 2.62935,0.71384 2.80048,1.61709 0.23133,1.22049 -0.48638,1.3715 -6.51674,1.3715 -6.03045,0 -6.74789,-0.15107 -6.51643,-1.3715 z m 67.25458,-0.19579 c 0,-1.21914 0.52249,-1.56746 2.35116,-1.56746 h 2.35114 V 142.7624 111.80552 h -2.35114 c -1.82867,0 -2.35116,-0.34832 -2.35116,-1.56743 0,-1.50002 0.52249,-1.56743 12.14761,-1.56743 11.62514,0 12.14763,0.0675 12.14763,1.56743 0,1.21911 -0.52249,1.56743 -2.35116,1.56743 h -2.35116 v 30.9048 30.90481 l 2.14856,0.24793 c 1.29581,0.14958 2.25174,0.7923 2.40859,1.61949 0.23874,1.25862 -0.74448,1.3715 -11.94499,1.3715 -11.68259,0 -12.20508,-0.067 -12.20508,-1.56742 z m 80.72294,0 c 0,-1.19254 0.52247,-1.56746 2.18432,-1.56746 h 2.18429 l 9.31349,-32.52429 c 9.26882,-32.36841 9.32345,-32.52429 11.40031,-32.52429 h 2.08681 l 8.5997,32.32835 c 7.85823,29.54106 8.74793,32.34997 10.31878,32.57879 1.08948,0.15878 1.7191,0.80457 1.7191,1.7634 0,1.42271 -0.65427,1.51291 -10.97206,1.51291 -10.44959,0 -10.97206,-0.0747 -10.97206,-1.56741 0,-1.21056 0.52247,-1.56746 2.29464,-1.56746 h 2.29462 l -1.92629,-7.24939 c -1.05947,-3.98718 -2.11582,-7.86656 -2.34744,-8.62088 -0.35744,-1.16401 -1.41771,-1.37151 -7.00803,-1.37151 h -6.5869 l -1.26774,4.50638 c -0.69725,2.47848 -1.76514,6.24557 -2.37305,8.37128 -0.60794,2.12569 -1.1053,3.95592 -1.1053,4.06721 0,0.11137 1.31957,0.31176 2.9324,0.44553 2.04937,0.17002 3.0107,0.65624 3.19236,1.61474 0.23193,1.22453 -0.50216,1.37151 -6.85103,1.37151 -6.58845,0 -7.11092,-0.11523 -7.11092,-1.56741 z m 24.88394,-22.92378 c -0.19934,-0.5388 -1.36788,-5.12354 -2.59644,-10.18833 -1.22858,-5.06477 -2.43613,-9.2087 -2.68348,-9.2087 -0.46832,0 -5.4971,17.77713 -5.4971,19.43261 0,0.64775 1.74837,0.94407 5.56987,0.94407 4.12685,0 5.47591,-0.25384 5.20715,-0.97965 z"
       id="path6439" /></g></svg>
