<?xml version="1.0" encoding="UTF-8" standalone="no"?>
<!-- Created with Inkscape (http://www.inkscape.org/) -->

<svg
   width="661.45831mm"
   height="285.75mm"
   viewBox="0 0 661.45831 285.75"
   version="1.1"
   id="svg5"
   xml:space="preserve"
   inkscape:version="1.2.2 (732a01da63, 2022-12-09)"
   sodipodi:docname="colegio_pitagoras.svg"
   xmlns:inkscape="http://www.inkscape.org/namespaces/inkscape"
   xmlns:sodipodi="http://sodipodi.sourceforge.net/DTD/sodipodi-0.dtd"
   xmlns="http://www.w3.org/2000/svg"
   xmlns:svg="http://www.w3.org/2000/svg"><sodipodi:namedview
     id="namedview7"
     pagecolor="#ffffff"
     bordercolor="#000000"
     borderopacity="0.25"
     inkscape:showpageshadow="2"
     inkscape:pageopacity="0.0"
     inkscape:pagecheckerboard="0"
     inkscape:deskcolor="#d1d1d1"
     inkscape:document-units="mm"
     showgrid="false"
     inkscape:zoom="0.122715"
     inkscape:cx="293.36268"
     inkscape:cy="684.51291"
     inkscape:window-width="1366"
     inkscape:window-height="705"
     inkscape:window-x="-8"
     inkscape:window-y="-8"
     inkscape:window-maximized="1"
     inkscape:current-layer="layer1" /><defs
     id="defs2" /><g
     inkscape:label="Camada 1"
     inkscape:groupmode="layer"
     id="layer1"><path
       style="fill:#787774;stroke-width:0.759969;fill-opacity:1"
       d="m 0.07371801,265.87853 c 0,-0.44442 1.02679739,-7.20339 2.28174409,-15.01993 1.2549663,-7.81655 3.1298243,-19.5127 4.1663332,-25.99143 1.8339058,-11.46279 5.0101537,-31.26988 7.9823037,-49.77797 0.805448,-5.01577 2.690447,-16.8143 4.188841,-26.21892 1.498414,-9.4046 3.37931,-21.20313 4.179834,-26.21891 0.800525,-5.0158 2.677181,-16.81433 4.170417,-26.218949 C 31.795341,66.502501 32.742599,61.53453 34.677772,56.39327 40.399629,41.191644 53.852313,28.220634 69.657372,22.666107 80.850039,18.732532 65.481075,18.921613 374.27422,18.9185 l 287.18409,-0.003 -0.45393,3.60985 c -0.58593,4.659426 -1.13739,8.753549 -6.21862,46.168109 -2.32739,17.137319 -5.06021,37.314471 -6.073,44.838171 -1.01279,7.52368 -3.405,25.13596 -5.31599,39.13839 -1.911,14.00244 -3.79405,27.85286 -4.18456,30.77876 -4.21893,31.60995 -4.53624,33.46355 -7.3502,42.93824 -2.85426,9.61034 -7.26189,17.51623 -13.10013,23.49756 -7.39575,7.57702 -14.89469,11.60645 -27.43242,14.7403 l -6.45974,1.61465 -292.39799,0.22347 C 86.313892,266.62051 0.07371801,266.44937 0.07371801,265.87845 Z M 208.56138,219.16817 c 3.69375,-0.64437 9.95925,-2.07135 13.92335,-3.17105 l 7.20741,-1.99945 7.59042,-15.16641 c 4.17472,-8.34152 7.48332,-15.27352 7.35243,-15.4044 -0.1309,-0.13091 -3.14338,0.6041 -6.69438,1.63334 -44.77109,12.97663 -66.44319,8.09385 -70.39755,-15.86075 l -0.47047,-2.84989 h 43.73497 43.73495 l 0.41542,-2.08991 c 2.53569,-12.75629 2.90316,-27.97287 0.90052,-37.28814 -0.65735,-3.05772 -1.19516,-5.70811 -1.19516,-5.88979 0,-0.18152 4.10383,-0.33028 9.11961,-0.33028 5.0158,0 9.1194,0.2565 9.11914,0.56998 -2.5e-4,0.31348 -2.24343,11.85552 -4.98477,25.64895 -5.50341,27.69099 -6.30197,34.59288 -4.93802,42.6794 2.22901,13.21498 9.78298,22.27052 22.52411,27.00149 3.94424,1.46454 6.04339,1.6744 17.03795,1.70311 7.27736,0.0202 14.84397,-0.38919 18.03103,-0.97265 l 5.4915,-1.0054 2.22475,-3.92421 c 9.54157,-16.83059 13.8843,-24.96353 13.52272,-25.32511 -0.2091,-0.2091 -4.77012,0.0621 -10.13552,0.60293 -17.55163,1.76899 -22.40057,1.03797 -24.87663,-3.75022 -2.47263,-4.78152 -2.28584,-6.73967 3.37791,-35.41028 l 5.49533,-27.81799 h 15.0112 c 14.93386,0 15.01336,-0.008 15.43853,-1.70994 0.8364,-3.3463 5.81715,-27.318577 5.81715,-27.997691 0,-0.391215 -6.43047,-0.691109 -14.81939,-0.691109 -8.15067,0 -14.8194,-0.156893 -14.8194,-0.348818 0,-0.191866 1.88634,-8.109128 4.19184,-17.593968 2.30552,-9.484802 4.07786,-17.359109 3.93854,-17.498417 -0.13932,-0.139309 -4.50506,0.897716 -9.70162,2.304521 -5.19655,1.406807 -14.2361,3.820851 -20.08786,5.364555 -5.85176,1.543703 -11.66957,3.122791 -12.92847,3.509122 -2.22501,0.682747 -2.37122,1.029943 -5.23958,12.442689 l -2.95067,11.740365 -2.34951,0.230083 c -2.02788,0.198471 -3.77809,1.997344 -12.78578,13.141438 -5.73993,7.10134 -10.70347,12.99476 -11.03015,13.09656 -0.32664,0.10179 -1.44884,-1.56547 -2.49381,-3.70503 -2.48779,-5.09384 -10.17322,-13.315431 -15.30334,-16.37101 -17.74547,-10.569491 -49.3438,-9.834694 -71.21049,1.655932 -17.99515,9.456198 -31.35698,29.617578 -35.09568,52.955228 -1.17435,7.33037 -0.59789,22.95693 1.07469,29.13315 4.94859,18.27345 19.2574,32.5168 37.74123,37.56859 11.85181,3.23915 26.31128,3.66435 40.49155,1.1906 z m -35.06682,-79.98748 c 2.42754,-8.80846 9.90046,-18.43273 17.01519,-21.91364 11.06515,-5.41367 24.33022,-1.62506 29.14674,8.3246 1.71283,3.53826 2.81319,11.36292 2.0343,14.46622 l -0.4951,1.97268 h -24.24328 -24.24325 z m 240.76219,80.76591 c 8.19209,-1.00606 11.18907,-1.64104 22.28316,-4.72132 l 4.42391,-1.22834 7.59026,-15.16603 c 4.17464,-8.34135 7.45251,-15.30378 7.28417,-15.47217 -0.16823,-0.16842 -1.8129,0.23583 -3.65453,0.898 -5.1242,1.84268 -24.55967,6.19518 -32.22723,7.21715 -3.76185,0.50139 -9.91758,0.72524 -13.67943,0.49742 -16.47485,-0.9976 -24.54979,-7.72076 -27.37765,-22.79452 l -0.53037,-2.82723 h 43.7198 43.71981 l 0.85977,-3.98983 c 1.87578,-8.70483 2.55462,-20.03053 1.66799,-27.82783 -2.01185,-17.69246 -8.52463,-29.32996 -20.96144,-37.455437 -18.25683,-11.927933 -54.83082,-9.989067 -76.56583,4.058947 -15.37445,9.93702 -26.94797,29.40252 -30.32348,51.00119 -1.24102,7.9409 -0.50152,22.09162 1.51727,29.03237 6.38537,21.95363 23.64526,35.89678 48.31478,39.03036 7.92914,1.00718 14.22089,0.94075 23.93904,-0.25277 z m -28.60409,-82.79113 c 6.11975,-16.85984 19.59725,-25.43091 33.5915,-21.36268 8.97827,2.61006 14.40301,11.00005 13.86123,21.43805 l -0.2295,4.41973 -24.50026,0.20049 -24.5003,0.2005 z m 168.43833,78.94933 c 5.22479,-1.10566 9.59885,-2.10807 9.72013,-2.22757 0.47202,-0.46514 12.96337,-32.6972 12.75306,-32.90748 -0.1229,-0.12289 -1.07473,0.10043 -2.11535,0.49608 -1.04062,0.39563 -6.27528,1.63801 -11.63252,2.76084 -12.94383,2.71288 -23.52784,2.51673 -30.17017,-0.55912 -6.10995,-2.82935 -11.34229,-7.97823 -13.94239,-13.72005 -1.7096,-3.77539 -2.21023,-6.14367 -2.4642,-11.65779 -0.51891,-11.2674 2.75051,-19.86874 10.24727,-26.95887 10.79494,-10.2094 27.92581,-12.43499 46.16447,-5.99756 3.51837,1.24185 6.57248,2.25786 6.78695,2.25786 0.49674,0 9.61131,-27.55257 9.61131,-29.054227 0,-2.555535 -21.35863,-7.821738 -34.95856,-8.61941 -24.95681,-1.463773 -46.68763,5.460063 -62.18642,19.813657 -11.64142,10.78123 -18.16582,24.11606 -20.44747,41.79137 -2.62901,20.36614 2.47026,37.88883 14.60002,50.17045 9.27605,9.39219 20.07305,14.42317 35.73521,16.6512 6.159,0.87618 23.13978,-0.30116 32.29866,-2.23938 z M 114.56195,204.34802 c 3.57706,-17.13546 8.13426,-38.79248 11.27418,-53.57782 1.50901,-7.1057 3.05105,-14.45841 3.42669,-16.33933 0.37567,-1.88092 1.90939,-9.23362 3.40827,-16.33931 4.73675,-22.45558 5.05742,-24.091915 4.77612,-24.373189 -0.15142,-0.151421 -1.9366,0.906032 -3.96723,2.349777 -10.95485,7.788602 -23.19696,7.804622 -33.768776,0.04416 -3.300473,-2.422772 -3.813685,-2.596975 -4.159455,-1.41182 -0.216856,0.743551 -1.453437,6.481742 -2.747694,12.751472 -1.294297,6.26973 -2.878934,13.79343 -3.521412,16.7193 -0.642479,2.9259 -2.658892,12.50149 -4.48088,21.27914 -1.822008,8.77765 -4.547956,21.7731 -6.057643,28.87881 -1.509707,7.10571 -3.052102,14.45842 -3.427609,16.33934 -0.375487,1.88093 -1.727383,8.37638 -3.004193,14.43438 -1.276791,6.05793 -2.321466,11.10765 -2.321466,11.22154 0,0.11371 9.475228,0.11605 21.056062,0.005 l 21.056046,-0.20222 z M 126.53266,89.195464 c 3.74065,-1.562948 8.56712,-6.043771 10.56732,-9.810486 2.37529,-4.473182 2.33506,-13.943115 -0.0787,-18.496991 -6.1746,-11.64973 -20.21902,-14.76623 -30.65903,-6.803375 -4.9186,3.751541 -7.496741,9.278119 -7.475992,16.025699 0.02579,8.670132 3.579462,14.690241 10.789942,18.283359 4.64909,2.316737 12.35348,2.683218 16.85636,0.801794 z"
       id="path10181" /></g></svg>
