<?xml version="1.0" encoding="UTF-8" standalone="no"?>
<!-- Created with Inkscape (http://www.inkscape.org/) -->

<svg
   width="661.45831mm"
   height="285.75mm"
   viewBox="0 0 661.45831 285.75"
   version="1.1"
   id="svg5"
   xml:space="preserve"
   inkscape:version="1.2.2 (732a01da63, 2022-12-09)"
   sodipodi:docname="unimed.svg"
   xmlns:inkscape="http://www.inkscape.org/namespaces/inkscape"
   xmlns:sodipodi="http://sodipodi.sourceforge.net/DTD/sodipodi-0.dtd"
   xmlns="http://www.w3.org/2000/svg"
   xmlns:svg="http://www.w3.org/2000/svg"><sodipodi:namedview
     id="namedview7"
     pagecolor="#ffffff"
     bordercolor="#000000"
     borderopacity="0.25"
     inkscape:showpageshadow="2"
     inkscape:pageopacity="0.0"
     inkscape:pagecheckerboard="0"
     inkscape:deskcolor="#d1d1d1"
     inkscape:document-units="mm"
     showgrid="false"
     inkscape:zoom="0.17354521"
     inkscape:cx="1849.6621"
     inkscape:cy="1325.303"
     inkscape:window-width="1366"
     inkscape:window-height="705"
     inkscape:window-x="-8"
     inkscape:window-y="-8"
     inkscape:window-maximized="1"
     inkscape:current-layer="layer1" /><defs
     id="defs2" /><g
     inkscape:label="Camada 1"
     inkscape:groupmode="layer"
     id="layer1"><path
       id="path3415"
       style="fill:#787774;fill-opacity:1;stroke-width:1.01987"
       d="m 173.04512,49.925693 c -5.49272,0.106864 -12.71698,8.494421 -68.06859,71.442497 l -19.777546,22.49031 32.571236,32.21267 v 15.6517 c 0,6.50716 -0.0205,10.13726 -0.2392,12.55765 -0.10891,1.2102 -0.2553,2.14612 -0.60063,3.06377 -0.34527,0.91766 -0.99612,1.76785 -1.5387,2.25887 -0.80797,0.73115 -1.97686,1.17542 -3.2423,1.39646 -1.26542,0.22105 -2.868,0.33802 -5.37558,0.42819 -5.01511,0.18094 -13.599354,0.21168 -28.97944,0.21168 H 43.575497 43.334834 v 0.19675 c 0,18.3439 0.17186,20.54861 1.738397,22.17865 1.56317,1.62658 5.993688,1.81103 43.750606,1.81103 h 21.006073 21.00611 38.32203 c 20.3803,0 18.74118,-17.49903 18.74118,-17.49903 l -0.003,-76.28098 c -0.003,-48.414582 -0.3578,-77.746057 -0.97284,-80.291877 -1.18988,-4.925928 -6.40548,-10.40219 -10.81472,-11.353337 -0.93914,-0.202602 -1.73511,-0.405556 -2.53574,-0.461447 -0.17508,-0.01171 -0.35084,-0.01757 -0.52803,-0.01464 z m 469.54909,27.109409 c -10.13213,0.0059 -18.80034,0.267892 -19.26314,0.580988 -0.46282,0.313009 -8.11606,15.322819 -17.00731,33.35345 l -16.16611,32.78306 -16.68956,-33.17037 -16.6896,-33.170382 -18.78506,-0.207286 c -18.19224,-0.200846 -18.78503,-0.16015 -18.78503,1.305672 0,1.767558 61.38654,125.168096 63.35565,127.358896 0.73007,0.81228 2.02406,1.781 2.87616,2.15294 0.8521,0.37189 3.40164,0.56208 5.66607,0.42213 3.12262,-0.19323 4.55434,-0.70542 5.92784,-2.1227 2.56406,-2.64586 64.95504,-126.763971 64.42078,-128.156217 -0.36881,-0.961131 -3.34279,-1.140136 -18.86069,-1.130181 z m -263.93933,0.01757 c -1.69354,-0.09984 -3.3872,0.25823 -5.00038,1.092353 -1.19269,0.616766 -14.99678,14.589528 -30.67547,31.050725 l -28.50742,29.92959 -2.52061,-2.58262 c -1.38625,-1.42059 -14.09023,-14.78326 -28.23204,-29.69511 -14.33709,-15.117724 -26.93623,-27.749681 -28.47864,-28.552799 -3.31047,-1.723613 -7.9527,-1.355093 -10.96301,0.871482 -4.48866,3.32013 -4.30863,0.679274 -4.53437,66.785567 -0.11418,33.43736 -0.0351,61.24432 0.17538,61.79278 h -0.003 c 0.29954,0.77987 4.12913,0.95164 17.6367,0.78827 l 17.25545,-0.20728 0.2026,-29.52108 0.20289,-29.51959 12.62728,12.86478 c 6.94509,7.07603 14.34857,14.70988 16.45203,16.96345 4.41848,4.73384 8.37918,6.46928 12.63936,5.53898 2.31872,-0.50636 5.78728,-3.67615 20.01511,-18.29334 l 17.21004,-17.68059 0.0263,30.01736 0.0263,30.01734 h 17.44303 17.44305 l -0.20728,-62.6839 -0.20729,-62.683929 -1.93661,-2.07275 c -2.4456,-2.617082 -5.26731,-4.05345 -8.08986,-4.219689 z m 37.62909,0.358565 -2.3799,2.280065 c -1.30898,1.253938 -2.72447,3.519775 -3.14546,5.035163 -0.86893,3.127511 -1.10456,122.623245 -0.24359,123.484185 0.2919,0.29219 8.2224,0.43674 17.62309,0.32226 l 17.09204,-0.20728 0.19968,-48.99605 0.19967,-48.99607 h 15.57455 c 14.27462,0 15.81156,0.13234 18.40527,1.59014 8.7646,4.92598 9.59714,18.92006 1.53568,25.82036 -3.84994,3.29542 -7.94376,4.3498 -16.89231,4.3498 -6.77099,0 -7.01349,0.0609 -6.97631,1.74294 0.0205,0.95861 9.01606,15.8608 19.98937,33.11592 l 19.95155,31.37296 18.74267,0.20728 c 16.11675,0.1783 18.74118,0.0471 18.74118,-0.93806 0,-0.63 -6.64319,-11.4975 -14.76356,-24.15004 l -14.76511,-23.00472 3.84752,-3.9443 c 8.54401,-8.75898 12.66635,-19.06578 12.73164,-31.83142 0.0644,-12.57519 -3.07001,-21.59274 -10.73909,-30.890339 -5.10882,-6.193685 -14.05398,-12.27667 -21.49173,-14.615292 -5.41405,-1.702327 -6.43681,-1.747502 -39.39779,-1.747502 z M 9.3567698,79.957581 c -0.1335067,-0.0059 -0.2626217,0.0029 -0.4115285,0.01171 v -0.0015 c -0.3413496,0.02049 -0.879036,0.126187 -1.6975549,0.279896 -1.0004803,0.18767 -2.639509,1.049169 -3.9579459,2.252808 -1.2630727,1.153134 -2.2174112,2.609089 -2.52816559,3.566092 0.002928,0.05241 -0.0857839,0.551535 -0.12413778,1.105968 -0.0521145,0.751941 -0.10188668,1.818677 -0.14990224,3.168178 -0.0963239,2.698943 -0.17771612,6.527335 -0.24505501,11.368447 -0.13497057,9.68219 -0.21050724,23.43812 -0.21197113,40.57636 v 54.18708 l -0.01756666,0.16045 c 0,0 -0.20757946,2.21706 1.04697341,4.44963 1.2545821,2.23258 3.7340587,4.69929 11.3049415,4.69929 h 30.970504 0.240663 34.217351 c 7.685886,0 13.679428,-0.009 18.350815,-0.0378 4.67142,-0.0299 8.02068,-0.0817 10.41832,-0.16805 2.39765,-0.0864 3.85108,-0.21578 4.58127,-0.34346 0.24037,-0.0419 0.26555,-0.0474 0.32832,-0.0591 0.0264,-0.0826 0.0624,-0.22632 0.10277,-0.45542 0.0404,-0.22895 0.0846,-0.54319 0.12267,-0.96525 0.17098,-1.89723 0.21783,-5.54507 0.21783,-12.03115 V 178.51197 L 81.327642,148.26162 62.583451,129.72319 C 39.314497,106.70951 26.468871,93.975167 18.991706,87.139098 15.253139,83.721093 12.837986,81.785568 11.330034,80.843643 10.199033,80.13717 9.7580511,79.977255 9.3571211,79.957024 Z" /></g></svg>
