<?xml version="1.0" encoding="UTF-8" standalone="no"?>
<!-- Created with Inkscape (http://www.inkscape.org/) -->

<svg
   width="661.45831mm"
   height="285.75mm"
   viewBox="0 0 661.45831 285.75"
   version="1.1"
   id="svg5"
   xml:space="preserve"
   inkscape:version="1.2.2 (732a01da63, 2022-12-09)"
   sodipodi:docname="sesc.svg"
   xmlns:inkscape="http://www.inkscape.org/namespaces/inkscape"
   xmlns:sodipodi="http://sodipodi.sourceforge.net/DTD/sodipodi-0.dtd"
   xmlns="http://www.w3.org/2000/svg"
   xmlns:svg="http://www.w3.org/2000/svg"><sodipodi:namedview
     id="namedview7"
     pagecolor="#ffffff"
     bordercolor="#000000"
     borderopacity="0.25"
     inkscape:showpageshadow="2"
     inkscape:pageopacity="0.0"
     inkscape:pagecheckerboard="0"
     inkscape:deskcolor="#d1d1d1"
     inkscape:document-units="mm"
     showgrid="false"
     inkscape:zoom="0.086772607"
     inkscape:cx="1290.7299"
     inkscape:cy="1521.2174"
     inkscape:window-width="1366"
     inkscape:window-height="705"
     inkscape:window-x="-8"
     inkscape:window-y="-8"
     inkscape:window-maximized="1"
     inkscape:current-layer="layer1" /><defs
     id="defs2" /><g
     inkscape:label="Camada 1"
     inkscape:groupmode="layer"
     id="layer1"><path
       style="fill:#787774;fill-opacity:1;stroke-width:3.16816"
       d="m 112.71466,284.13684 c -26.268835,-4.67449 -71.373399,-24.59448 -71.373399,-31.52143 0,-1.34565 11.348169,-13.28869 25.218213,-26.54004 L 91.777697,201.98213 80.442218,196.60309 C 65.505743,189.51521 57.208839,175.427 57.193993,157.12759 c -0.02393,-25.69156 20.030283,-46.66638 50.950477,-53.29767 20.81329,-4.463614 32.20934,-4.236707 54.86149,1.09205 l 18.69936,4.39894 23.32522,-19.497307 c 49.28115,-41.19356 100.66978,-68.163118 159.23008,-83.5665799 25.11345,-6.60579445 37.68897,-7.9900092 73.10164,-8.0467673 52.78612,-0.083813 89.29288,8.519508 138.8498,32.7247082 33.39096,16.309067 40.56948,22.018595 17.85074,14.19778 -30.51799,-10.505783 -62.00528,-15.106022 -113.93033,-16.645182 -45.17248,-1.338953 -59.9904,-0.540035 -91.87691,4.953836 -80.11994,13.804429 -153.99235,47.651955 -212.79728,97.501532 -14.55929,12.34202 -17.29923,13.52483 -24.75951,10.68839 -13.53751,-5.14698 -31.70736,-3.88777 -37.58273,2.60439 -12.69371,14.02655 -4.57882,20.37993 39.11112,30.62144 25.58559,5.99763 52.41266,18.60978 55.23629,25.96815 2.66425,6.94275 8.11573,1.68825 8.21633,-7.91936 0.14249,-13.59368 13.51045,-36.17267 27.95047,-47.20879 33.04322,-25.2539 81.05704,-22.06889 108.00336,7.16463 7.07339,7.67366 12.86075,15.71179 12.86075,17.86248 0,2.15057 3.20776,-2.451 7.12835,-10.22583 10.3112,-20.4477 33.02897,-31.56094 64.51734,-31.56094 12.64269,0 26.64387,1.39044 31.11346,3.0897 7.2457,2.7549 8.12676,4.82775 8.12676,19.1205 0,15.6488 -0.17004,15.93941 -7.12847,12.19545 -3.92057,-2.10949 -15.81932,-3.94167 -26.44173,-4.0717 -20.58768,-0.25147 -29.79319,4.16222 -29.79319,14.28627 0,6.05989 0.95673,6.42714 45.45242,17.458 11.93011,2.95749 25.67982,8.73371 30.55498,12.83583 4.87505,4.10211 9.37075,7.45094 9.99054,7.44195 0.61906,-0.01 1.46193,-5.86711 1.8718,-13.01797 2.28562,-39.88203 46.09292,-71.089 96.4435,-68.70316 l 20.03351,0.94957 0.96512,15.04878 0.96512,15.04877 h -15.01419 c -39.77438,0 -66.8129,34.52288 -49.71199,63.47249 7.64863,12.94816 31.87741,25.23628 49.75894,25.23628 h 14.62011 v 16.21868 16.21878 l -29.30561,-1.38182 c -34.76941,-1.63938 -55.21459,-10.36521 -73.01685,-31.16304 -10.85159,-12.67765 -11.21848,-12.83248 -13.44352,-5.67096 -7.71101,24.81791 -36.27147,41.56345 -70.87433,41.55483 -11.48107,-0.003 -29.07233,-2.3909 -39.09173,-5.30673 l -18.21691,-5.30144 v -18.42874 -18.42885 l 18.21691,6.15281 c 34.56586,11.67458 63.93348,9.7119 66.6618,-4.45512 1.72548,-8.96015 -7.76765,-14.35249 -37.95647,-21.55973 -16.22345,-3.87318 -34.13071,-9.71598 -39.7939,-12.98398 l -10.29647,-5.9417 v 10.98175 10.98176 h -56.95913 -56.95912 l 3.64422,7.99816 c 2.00435,4.39908 8.49856,10.9984 14.43152,14.66513 9.10194,5.62536 14.21394,6.42163 32.72171,5.09741 l 21.93455,-1.56933 v 15.0483 c 0,17.78093 -2.08639,18.86221 -36.43396,18.88124 -16.73475,0.01 -26.15544,-1.84006 -38.38873,-7.53618 -15.20457,-7.07961 -32.89497,-24.87097 -32.89497,-33.08274 0,-2.0137 -1.42566,-3.66123 -3.16814,-3.66123 -1.74248,0 -3.16825,3.03893 -3.16825,6.7532 0,9.98395 -24.74044,33.17553 -39.65655,37.17407 -19.30083,5.17393 -45.7586,6.66148 -63.21923,3.5543 z m 49.08778,-43.73354 c 10.2093,-8.26708 4.19588,-17.7432 -15.0895,-23.7783 -18.84352,-5.89682 -45.73153,-12.24469 -46.60194,-11.002 -0.360419,0.5137 -4.497024,6.10277 -9.193169,12.41926 l -8.538309,11.48454 10.717603,5.0858 c 20.499795,9.72782 25.968395,11.14677 43.730185,11.34638 12.77284,0.14369 19.89269,-1.44026 24.97513,-5.55568 z m 167.84203,-51.51421 c 0,-3.61896 -4.16724,-10.74742 -9.2607,-15.84088 -7.69209,-7.69198 -11.86618,-9.26071 -24.64045,-9.26071 -8.80905,0 -18.39558,2.11237 -22.43902,4.9445 -7.98055,5.5899 -17.30293,21.73767 -14.28914,24.75133 1.09204,1.09205 17.43056,1.98581 36.30749,1.98581 32.63346,0 34.32182,-0.32331 34.32182,-6.58005 z"
       id="path3497" /></g></svg>
