<?xml version="1.0" encoding="UTF-8" standalone="no"?>
<!-- Created with Inkscape (http://www.inkscape.org/) -->

<svg
   width="661.45831mm"
   height="285.75mm"
   viewBox="0 0 661.45831 285.75"
   version="1.1"
   id="svg5"
   xml:space="preserve"
   inkscape:version="1.2.2 (732a01da63, 2022-12-09)"
   sodipodi:docname="unimed.svg"
   xmlns:inkscape="http://www.inkscape.org/namespaces/inkscape"
   xmlns:sodipodi="http://sodipodi.sourceforge.net/DTD/sodipodi-0.dtd"
   xmlns="http://www.w3.org/2000/svg"
   xmlns:svg="http://www.w3.org/2000/svg"><sodipodi:namedview
     id="namedview7"
     pagecolor="#ffffff"
     bordercolor="#000000"
     borderopacity="0.25"
     inkscape:showpageshadow="2"
     inkscape:pageopacity="0.0"
     inkscape:pagecheckerboard="0"
     inkscape:deskcolor="#d1d1d1"
     inkscape:document-units="mm"
     showgrid="false"
     inkscape:zoom="0.24542999"
     inkscape:cx="798.5984"
     inkscape:cy="566.35294"
     inkscape:window-width="1366"
     inkscape:window-height="705"
     inkscape:window-x="-8"
     inkscape:window-y="-8"
     inkscape:window-maximized="1"
     inkscape:current-layer="layer1" /><defs
     id="defs2" /><g
     inkscape:label="Camada 1"
     inkscape:groupmode="layer"
     id="layer1"><path
       id="path497"
       style="fill:#787774;stroke-width:0.220656;fill-opacity:1"
       d="m 195.05037,95.024621 c -5.0237,-0.07427 -12.45715,0.146589 -13.58068,0.501217 -2.81805,0.889515 -4.117,2.830284 -4.52216,6.757592 -0.24821,2.40589 -0.11814,5.78533 0.28875,7.50231 0.50193,2.11799 1.66781,3.5872 3.48223,4.38854 1.02621,0.45324 4.99159,0.84778 9.81703,0.97658 1.21362,0.0324 2.40516,0.0777 2.64788,0.10039 1.16334,0.10925 6.75435,-0.40956 7.79191,-0.72317 1.8263,-0.55202 3.17433,-1.98918 3.82744,-4.08041 0.45722,-1.46407 0.5155,-2.0748 0.50465,-5.29574 -0.0242,-7.243626 -1.37774,-9.360976 -6.35936,-9.94849 -0.81604,-0.09619 -2.22313,-0.154096 -3.89769,-0.178853 z M 71.664035,99.857942 c -5.766026,0.001 -10.356718,0.09676 -11.200009,0.233578 -2.269705,0.36825 -2.979436,0.97437 -3.600313,3.07454 -0.14809,0.5009 -0.280066,10.15465 -0.375373,27.47167 -0.163742,29.74896 -0.07074,28.03328 -1.705337,31.39304 -1.844469,3.7911 -5.239391,5.87316 -10.552273,6.471 -2.547727,0.28667 -5.914268,0.0358 -8.087983,-0.60294 -4.293538,-1.26156 -7.363509,-4.45875 -8.44656,-8.79648 -0.697921,-2.79536 -0.768984,-5.68347 -0.773154,-31.17456 -0.0041,-27.51521 0.03603,-26.50682 -1.099837,-27.51993 -0.479077,-0.427314 -0.856326,-0.443213 -11.890419,-0.508115 -7.8761789,-0.04633 -11.6547291,0.008 -12.2339083,0.177125 -0.5545688,0.16183 -0.98383288,0.48324 -1.26834335,0.94985 C 0.01046109,101.71567 6.4458474e-4,102.36407 -1.4088425e-5,129.31378 -4.138349e-4,146.61462 0.08473898,157.80052 0.22796973,159.32299 c 0.43478447,4.62185 1.59610367,8.83364 3.46800277,12.5774 5.2572544,10.51439 15.5157425,16.69623 30.7254825,18.51527 1.39565,0.16691 4.523449,0.3123 6.950659,0.32322 14.446261,0.065 25.646015,-3.64247 32.885492,-10.88583 5.524928,-5.52789 8.357506,-12.28196 8.93355,-21.30235 0.267501,-4.18862 0.704326,-38.94053 0.615859,-48.99553 -0.06291,-7.15619 -0.104365,-7.89745 -0.472348,-8.45863 -0.797471,-1.21618 -1.025066,-1.240358 -11.670632,-1.238598 z m 405.574695,0.05088 c -10.73374,0.05656 -10.97457,0.06734 -11.58443,0.519748 -0.34252,0.25409 -0.74121,0.80021 -0.88607,1.2136 -0.19275,0.55012 -0.26757,4.50812 -0.27841,14.76327 -0.008,7.7064 -0.0752,14.37785 -0.14911,14.82532 l -0.13446,0.81367 -1.20628,-1.6963 c -0.66336,-0.93289 -1.96693,-2.46945 -2.89697,-3.41456 -4.9598,-5.04018 -10.70167,-7.0502 -18.62088,-6.5184 -6.28224,0.42188 -10.86305,2.40453 -14.51932,6.28395 -3.76179,3.99138 -6.06961,9.49768 -7.47732,17.83995 -0.76843,4.55392 -0.96709,7.61941 -0.8365,12.90837 0.17236,6.98127 1.21677,13.03536 3.14951,18.2554 3.13616,8.47036 9.0848,13.5371 17.41631,14.83438 3.19995,0.49826 9.86331,-0.15378 13.1592,-1.28773 4.37176,-1.50412 8.01912,-4.60841 11.70812,-9.96487 0.3583,-0.52027 0.37514,-0.35843 0.38615,3.72573 0.0128,4.72849 0.15443,5.36851 1.34376,6.07105 0.61071,0.36076 1.52446,0.39227 11.55169,0.39736 9.58767,0.005 10.97092,-0.0369 11.57625,-0.34995 1.43428,-0.74169 1.33031,2.60282 1.37651,-44.28764 0.0391,-39.67237 0.0158,-42.73192 -0.33055,-43.40155 -0.20488,-0.39622 -0.69064,-0.91537 -1.07915,-1.15413 -0.68112,-0.418573 -1.09918,-0.432326 -11.66805,-0.376668 z m 93.92834,0.05769 -1.43426,0.701618 c -0.78885,0.38587 -1.64689,0.88235 -1.90705,1.10328 -1.10971,0.94243 -38.31759,51.76143 -39.29701,53.6724 -0.65038,1.26889 -0.66794,2.71242 -0.0401,3.29734 0.91696,0.85431 2.15079,0.96248 13.00016,1.13863 5.76463,0.0936 10.8127,0.25541 11.21769,0.35986 l 0.73609,0.19006 -1.30411,1.98417 c -0.71733,1.09131 -3.78294,5.36023 -6.81275,9.48648 -10.04783,13.68415 -10.11394,13.78658 -9.97477,15.47522 0.0617,0.74759 0.18718,0.91347 1.06276,1.40238 0.99257,0.55422 0.99595,0.55427 8.38494,0.66455 10.16009,0.15164 21.06721,0.0405 22.40219,-0.22841 0.60985,-0.12287 1.40591,-0.40446 1.76911,-0.62533 0.68736,-0.418 5.4838,-6.69603 14.60424,-19.11562 5.31776,-7.24134 5.94407,-8.29613 5.42202,-9.13783 -0.47724,-0.76944 -1.24524,-0.88353 -6.63175,-0.98218 -4.74605,-0.0869 -5.48875,-0.15039 -6.79164,-0.58396 -1.39232,-0.46335 -1.45573,-0.51488 -1.32049,-1.06966 0.38346,-1.57289 1.69679,-3.53676 8.50647,-12.71919 4.04998,-5.46113 7.58404,-10.32668 7.85353,-10.81213 0.26949,-0.48545 0.63456,-1.44419 0.81152,-2.13071 l 0.32193,-1.24809 -1.24248,-0.50423 c -1.15275,-0.46746 -1.68056,-0.51347 -7.31052,-0.64214 -5.46212,-0.12483 -6.17821,-0.18494 -7.17132,-0.59905 -0.99669,-0.41559 -1.09657,-0.52038 -1.0326,-1.08776 0.039,-0.34545 0.24898,-1.02554 0.46674,-1.51098 0.42858,-0.95536 14.77067,-20.1966 16.09108,-21.58765 2.08769,-2.19942 4.15339,-2.19942 6.24,0 0.44152,0.46539 4.21539,5.41358 8.38664,10.99616 6.14775,8.22784 7.71985,10.47296 8.29959,11.85508 0.39334,0.93778 0.71498,1.75698 0.71498,1.82043 0,0.0635 -3.35122,0.11612 -7.44713,0.11679 -4.37809,7.1e-4 -7.78085,0.094 -8.25693,0.22625 -1.84733,0.5131 -2.258,1.61912 -1.29894,3.49903 0.47734,0.93567 4.67583,6.68981 11.98092,16.41991 4.7646,6.34625 5.24275,7.07984 5.24275,8.04188 0,1.19739 -0.59746,1.32402 -6.84206,1.45063 -4.21826,0.0855 -5.67069,0.19139 -6.61796,0.48356 -0.66749,0.20586 -1.2802,0.41467 -1.36144,0.46372 -0.0812,0.0491 0.0755,0.81209 0.34823,1.69586 0.41657,1.35018 0.96704,2.25733 3.44689,5.67973 9.31648,12.85746 14.41794,19.52351 15.47824,20.22536 2.09117,1.38424 2.49724,1.46071 8.78745,1.65147 7.02557,0.21308 21.75952,0.0258 23.22145,-0.29521 1.51593,-0.33287 2.15398,-0.90781 2.15398,-1.94109 0,-1.71987 0.33962,-1.19802 -9.64723,-14.84341 -6.20427,-8.4771 -8.60316,-12.00448 -8.3414,-12.26623 0.0748,-0.0748 5.02177,-0.2007 10.99315,-0.27927 l 10.85696,-0.14265 1.8355,-0.71456 c 1.13947,-0.4436 1.79708,-0.81562 1.73378,-0.98044 -0.0561,-0.14605 -0.28022,-0.90566 -0.49819,-1.6881 -0.36687,-1.31684 -1.30832,-2.63703 -12.65755,-17.75118 -19.91895,-26.52675 -27.57642,-36.4858 -28.57711,-37.16673 -0.49096,-0.3341 -1.389,-0.79673 -1.99581,-1.02786 -1.05895,-0.403345 -2.01666,-0.420198 -23.83084,-0.420198 z M 309.1769,120.25436 c -2.05073,-0.0189 -4.15185,0.11922 -5.65732,0.42063 -7.98931,1.5995 -14.14344,5.53555 -17.86753,11.42756 l -0.64689,1.02312 -0.72403,-1.66612 c -3.04705,-7.00928 -9.88408,-11.08237 -18.60233,-11.08237 -5.40504,0 -10.65021,1.58717 -15.34549,4.64369 -2.12725,1.38479 -5.67434,4.87056 -6.91145,6.79164 l -0.89857,1.39504 -0.0668,-5.08673 -0.0668,-5.08671 -0.61198,-0.61112 -0.61155,-0.61154 h -11.55642 c -11.24587,0 -11.56933,0.0118 -12.04601,0.44131 -0.26937,0.24272 -0.56756,0.64428 -0.66238,0.89211 -0.0948,0.24783 -0.20323,14.79459 -0.24092,32.3261 -0.0641,29.78134 -0.0438,31.92206 0.31029,32.58597 0.20842,0.39082 0.60133,0.83765 0.87316,0.99295 0.36924,0.21098 2.83709,0.31491 9.76186,0.41114 13.80413,0.19183 13.62801,0.21162 14.46546,-1.63294 0.40213,-0.88566 0.4194,-1.76617 0.42407,-21.67987 0.005,-22.81267 -0.0372,-22.05096 1.3442,-24.05883 1.09129,-1.58617 4.47321,-2.64885 7.84319,-2.46471 2.38686,0.13041 3.62073,0.62717 5.18068,2.08632 1.29525,1.21155 1.94748,2.25496 2.66554,4.26227 l 0.51328,1.43427 0.11027,20.11891 c 0.10959,19.97574 0.11361,20.12329 0.57147,20.74166 0.25364,0.34253 0.71109,0.7455 1.01666,0.89556 0.72028,0.35368 21.61705,0.45592 22.46338,0.10993 0.70369,-0.28771 1.44921,-1.09096 1.75058,-1.88634 0.16089,-0.42464 0.23532,-7.47887 0.23532,-22.29488 v -21.67341 l 0.49648,-0.98433 c 0.63066,-1.25067 1.38144,-1.61623 4.30623,-2.09667 2.45795,-0.40375 6.12859,-0.35573 7.59409,0.0996 1.38222,0.42941 2.88763,1.62337 3.66281,2.90473 1.5522,2.56579 1.46172,1.20793 1.58856,23.85325 0.11372,20.3082 0.11782,20.45414 0.57577,21.07265 0.91618,1.23736 0.78715,1.22483 12.33475,1.22007 11.78911,-0.005 11.62171,0.0141 12.41018,-1.42865 0.36612,-0.67017 0.38816,-2.11088 0.36029,-23.77224 -0.0208,-16.16005 -0.10584,-23.55396 -0.28401,-24.71347 -0.52025,-3.38543 -1.97415,-9.00889 -2.57978,-9.97778 -2.78047,-4.44827 -7.03231,-7.54121 -12.12444,-8.81977 -1.30306,-0.32719 -3.30319,-0.50309 -5.35393,-0.52191 z m 65.46414,0.12499 c -11.60446,-0.007 -20.01928,2.86801 -26.13912,8.9301 -4.76618,4.72122 -7.63521,10.94399 -9.05637,19.64267 -0.49574,3.03456 -0.56364,11.03381 -0.11507,13.57035 1.3965,7.89666 4.29497,13.62572 9.32918,18.43985 5.82797,5.57319 13.65653,8.60525 24.68933,9.5619 3.04945,0.26444 11.60101,0.27341 14.67363,0.0156 6.21275,-0.52143 13.88681,-1.82838 15.67692,-2.66984 1.98688,-0.93394 2.50345,-2.06866 3.74038,-8.21771 0.9345,-4.64566 0.91315,-5.37483 -0.18274,-6.18613 -0.60989,-0.45151 -0.80039,-0.46071 -8.05393,-0.39132 -8.2706,0.0791 -16.63204,-0.22742 -20.3956,-0.74773 -6.72711,-0.93001 -9.19971,-2.01343 -11.02159,-4.82944 -0.81518,-1.25995 -1.31006,-2.59307 -1.62217,-4.3683 l -0.14568,-0.82745 h 19.47936 c 13.45316,0 19.92087,-0.077 20.90672,-0.24867 1.94546,-0.33879 2.99442,-1.26297 3.37794,-2.9767 0.33646,-1.50342 0.0412,-5.89815 -0.91753,-13.65481 -0.71241,-5.76362 -0.90377,-6.54017 -2.32896,-9.44511 -2.71483,-5.53368 -6.51119,-9.35344 -11.89344,-11.96671 -4.99064,-2.42311 -11.61642,-3.62557 -20.00126,-3.63047 z m -226.95326,0.15384 c -4.78496,-0.0623 -10.81138,0.8322 -14.33531,2.29923 -3.62917,1.51081 -7.75377,5.00759 -10.14932,8.60514 l -1.12009,1.68295 -0.15126,-2.52807 c -0.0829,-1.39035 -0.0858,-3.33896 -0.006,-4.33038 0.18977,-2.35833 -0.11894,-3.54663 -1.07354,-4.12868 -0.67521,-0.41169 -1.18893,-0.43051 -11.80508,-0.43139 -12.326766,-8.3e-4 -12.137954,-0.0221 -12.74935,1.44115 -0.46575,1.11517 -0.470542,63.81051 -0.0045,64.71124 0.512505,0.99108 1.145467,1.40448 2.381104,1.55537 h 4.31e-4 c 1.547265,0.18871 19.921375,0.15128 20.936025,-0.0427 0.99239,-0.1897 1.86526,-1.098 2.15398,-2.24148 0.14214,-0.56299 0.22282,-8.33034 0.22238,-21.4493 -4.7e-4,-14.51843 0.0731,-20.92271 0.25038,-21.77642 0.63995,-3.08256 2.37092,-3.88265 8.38968,-3.87915 2.9149,0.001 4.92614,0.34331 6.35075,1.07871 0.98241,0.50713 2.286,1.83552 2.79786,2.85173 0.96197,1.90979 0.99352,2.6583 0.99769,23.37789 0.005,20.90508 -0.0117,20.57235 1.02483,21.49414 0.23091,0.20534 0.81573,0.45358 1.29938,0.55164 0.48364,0.098 5.67859,0.12833 11.54435,0.0677 l 10.66475,-0.11027 0.65163,-0.72963 0.65162,-0.7292 -0.0732,-25.19787 c -0.0715,-24.6198 -0.0837,-25.24298 -0.53311,-27.18335 -1.88239,-8.12729 -6.58595,-12.99134 -14.08319,-14.56373 -1.18035,-0.24754 -2.63757,-0.37444 -4.23255,-0.39519 z m 43.79245,1.16922 c -6.84576,7.9e-4 -10.95563,0.0849 -11.49868,0.23574 -1.57058,0.43613 -1.47176,-1.74572 -1.47176,32.51271 0,21.10206 0.0746,31.12488 0.23705,31.88264 0.28654,1.33614 0.8948,2.15879 1.95142,2.63924 0.67581,0.30731 2.13395,0.37606 10.05794,0.47493 5.09715,0.0636 9.81368,0.0755 10.48116,0.0259 1.51004,-0.1122 2.30848,-0.5577 2.80603,-1.56571 0.36235,-0.73398 0.38554,-2.72633 0.37495,-32.44633 -0.0102,-29.70449 -0.0354,-31.70946 -0.39735,-32.39851 -0.71308,-1.35767 -0.75164,-1.36189 -12.54076,-1.36057 z m 183.47714,15.48083 c 1.79536,-0.0714 4.10176,0.16365 5.53622,0.61973 2.42863,0.77217 4.26339,2.81719 5.0975,5.6806 0.31442,1.07933 0.7766,4.08029 0.7766,5.0432 v 0.53569 h -10.15016 -10.15018 l 0.003,-1.48943 c 0.0113,-5.15055 2.95025,-9.25547 7.31268,-10.21309 0.43375,-0.0952 0.97545,-0.15287 1.5739,-0.1767 z m 82.33958,1.77817 c 3.18926,0.16682 5.29539,1.32631 6.4766,3.5654 l 0.59602,1.12957 0.0728,10.81215 c 0.0798,11.85726 -0.008,13.08103 -1.06104,14.74085 -0.77948,1.22911 -2.35264,2.0441 -4.78031,2.47678 -2.11732,0.37736 -3.09806,0.37668 -4.84753,-0.005 -3.75457,-0.81675 -5.53776,-2.82075 -6.78172,-7.62169 -1.31278,-5.06654 -1.35885,-10.95772 -0.13016,-16.64184 0.97325,-4.50246 3.03778,-6.92517 6.90542,-8.10309 1.22765,-0.37388 1.89826,-0.44063 3.54987,-0.35426 z" /></g></svg>
