<?xml version="1.0" encoding="UTF-8" standalone="no"?>
<!-- Created with Inkscape (http://www.inkscape.org/) -->

<svg
   width="661.45831mm"
   height="285.75mm"
   viewBox="0 0 661.45831 285.75"
   version="1.1"
   id="svg5"
   xml:space="preserve"
   inkscape:version="1.2.2 (732a01da63, 2022-12-09)"
   sodipodi:docname="usiminas.svg"
   xmlns:inkscape="http://www.inkscape.org/namespaces/inkscape"
   xmlns:sodipodi="http://sodipodi.sourceforge.net/DTD/sodipodi-0.dtd"
   xmlns="http://www.w3.org/2000/svg"
   xmlns:svg="http://www.w3.org/2000/svg"><sodipodi:namedview
     id="namedview7"
     pagecolor="#ffffff"
     bordercolor="#000000"
     borderopacity="0.25"
     inkscape:showpageshadow="2"
     inkscape:pageopacity="0.0"
     inkscape:pagecheckerboard="0"
     inkscape:deskcolor="#d1d1d1"
     inkscape:document-units="mm"
     showgrid="false"
     inkscape:zoom="0.122715"
     inkscape:cx="1165.3017"
     inkscape:cy="1760.1761"
     inkscape:window-width="1366"
     inkscape:window-height="705"
     inkscape:window-x="-8"
     inkscape:window-y="-8"
     inkscape:window-maximized="1"
     inkscape:current-layer="layer1" /><defs
     id="defs2" /><g
     inkscape:label="Camada 1"
     inkscape:groupmode="layer"
     id="layer1"><path
       style="fill:#787774;fill-opacity:1;stroke-width:0.173029"
       d="m 576.61977,233.077 c -20.35221,-0.83277 -38.83476,-6.62721 -51.58828,-16.17333 -3.8145,-2.85518 -8.07716,-6.94707 -10.788,-10.35582 -6.74409,-8.4803 -10.53156,-17.9169 -12.15324,-30.28012 l -0.37448,-2.85498 -0.061,-59.52205 c -0.0437,-42.610366 -0.007,-59.706123 0.1276,-60.169904 0.40475,-1.390436 2.15851,-1.514127 5.49409,-0.387483 7.76714,2.623474 18.2067,10.320562 24.37663,17.972886 4.66839,5.79001 7.83608,12.597805 9.22753,19.831157 0.98841,5.138109 0.92866,2.789719 1.04764,41.180954 0.11916,38.45584 0.0656,36.39053 1.06245,40.99998 1.34428,6.21626 4.5959,12.04478 8.77064,15.72133 5.47311,4.82 11.95141,7.48957 21.31133,8.78192 2.7097,0.37415 11.02699,0.52746 14.23753,0.26245 6.61747,-0.54622 12.08534,-1.92688 16.82125,-4.24742 9.6172,-4.71236 14.87289,-12.28904 16.63671,-23.98388 0.27152,-1.80047 0.30887,-5.13426 0.41795,-37.36135 0.0659,-19.46146 0.17272,-35.695925 0.23739,-36.076593 0.0647,-0.380662 0.2355,-1.548612 0.37976,-2.595439 0.9546,-6.929878 3.2913,-13.245842 6.95705,-18.804995 1.84497,-2.797967 3.84462,-5.188275 6.85333,-8.192313 5.10514,-5.097163 10.47155,-8.972013 16.43444,-11.866615 5.28596,-2.566011 8.5643,-3.067964 9.24849,-1.416079 0.15139,0.36547 0.18723,15.232214 0.1457,60.438614 -0.0601,65.55338 0.0183,60.35143 -1.00319,66.35236 -3.61409,21.22964 -17.26196,37.15677 -39.26428,45.82159 -12.92033,5.08821 -28.86846,7.56701 -44.55504,6.92513 z M 24.743044,179.95947 C 17.081782,179.42372 11.631338,177.31377 7.6080044,173.32624 3.8932984,169.64459 1.5917993,164.37076 0.59137757,157.2478 0.10617854,153.79321 0.00455832,148.70966 0.00221715,127.7763 L -3.94771e-4,106.70999 H 7.9517017 15.903791 l 0.066,24.44037 c 0.07047,26.10252 0.05388,25.58792 0.910142,28.20361 1.065028,3.25337 3.014835,4.94957 6.534579,5.68461 2.004349,0.41857 6.767734,0.46904 8.855051,0.0938 5.005085,-0.89976 7.471953,-3.60316 8.312087,-9.10907 0.209871,-1.37537 0.250987,-5.53556 0.251844,-25.47855 l 0.0013,-23.83477 h 7.533052 7.533063 l -0.05886,24.09431 c -0.06363,26.05787 -0.01877,24.74311 -0.998859,29.2852 -0.793951,3.67954 -2.324951,7.36743 -4.197256,10.11043 -1.922868,2.81708 -5.251758,5.60914 -8.446709,7.08459 -4.624985,2.13584 -11.061392,3.12214 -17.456181,2.67495 z m 56.926623,-0.0631 c -3.930627,-0.30452 -9.693962,-1.3076 -12.717652,-2.21345 l -1.038175,-0.31103 -0.04512,-7.38673 c -0.02478,-4.06271 -0.01844,-7.38673 0.01419,-7.38673 0.03263,0 0.948353,0.31973 2.034955,0.71051 4.362305,1.56884 8.445987,2.63992 12.184366,3.19576 2.566193,0.38155 7.070769,0.26865 8.832122,-0.22136 3.403594,-0.94689 5.03231,-2.65858 5.484993,-5.76445 0.644755,-4.42366 -1.684577,-7.18178 -9.126238,-10.80622 -1.61782,-0.78795 -4.070511,-1.98394 -5.450417,-2.65775 -7.106862,-3.47027 -10.953153,-6.73252 -13.1928,-11.18951 -1.444322,-2.87427 -1.949866,-5.54228 -1.814587,-9.57649 0.108468,-3.23465 0.601861,-5.44483 1.771085,-7.93364 0.995079,-2.11813 1.813095,-3.32292 3.373328,-4.96829 4.040428,-4.26092 10.076638,-6.81996 17.822316,-7.55575 4.066168,-0.38625 10.395947,-0.0236 16.437777,0.94174 l 2.33589,0.37323 0.0453,6.9626 c 0.0248,3.82943 0.0212,6.96261 -0.008,6.96261 -0.0293,0 -0.75044,-0.15154 -1.60247,-0.33675 -7.042674,-1.53087 -14.515229,-2.16144 -17.712933,-1.4947 -3.58456,0.74741 -5.62589,2.75238 -6.107748,5.99895 -0.331974,2.23665 0.524424,4.3656 2.444201,6.07618 1.46179,1.30248 3.594605,2.55231 8.787706,5.14957 5.887034,2.94431 7.986734,4.1492 10.404704,5.97063 5.15402,3.88248 7.66348,8.39805 7.93595,14.28013 0.42546,9.18463 -3.71843,16.51056 -11.45376,20.24887 -4.130788,1.99634 -8.384103,2.89517 -14.274897,3.01664 -1.855741,0.0383 -4.269493,1.8e-4 -5.363904,-0.0845 z m 343.636043,0.009 c -3.87584,-0.3081 -7.16179,-0.84796 -11.29016,-1.8549 l -2.55218,-0.62249 v -7.43333 c 0,-7.01543 0.017,-7.42572 0.30281,-7.29829 1.15292,0.51411 6.97801,2.36068 8.88593,2.81688 3.77148,0.90178 5.10118,1.09444 8.2007,1.18818 2.31366,0.07 3.26951,0.0273 4.47827,-0.20008 4.77302,-0.89777 6.899,-3.34716 6.64928,-7.66078 -0.15104,-2.60905 -1.56222,-4.65672 -4.56589,-6.62526 -0.75394,-0.49411 -4.17385,-2.28489 -7.59983,-3.97953 -3.42598,-1.69463 -6.92983,-3.54073 -7.78632,-4.10244 -3.03881,-1.99294 -5.26358,-4.11166 -6.95581,-6.6242 -2.84704,-4.2272 -3.60855,-10.70341 -1.95181,-16.59917 1.46417,-5.2104 5.4158,-9.61761 10.94111,-12.20248 6.87298,-3.21532 15.34979,-3.83339 27.35772,-1.99471 1.25022,0.19144 2.4094,0.39115 2.57595,0.44382 0.28171,0.0891 0.30279,0.5766 0.30279,7.00525 0,3.80022 -0.0621,6.9095 -0.13786,6.9095 -0.0759,0 -0.83501,-0.15202 -1.68704,-0.33781 -7.00792,-1.52821 -14.50056,-2.16343 -17.68544,-1.49936 -1.90184,0.39655 -3.30418,1.14409 -4.43253,2.36284 -1.26148,1.36257 -1.73066,2.75989 -1.63985,4.88412 0.0765,1.78812 0.61669,2.97435 1.9902,4.37001 1.47097,1.49467 3.63609,2.80974 9.31605,5.65853 5.56921,2.79323 7.79765,4.06303 10.1255,5.76965 1.59385,1.16852 4.25678,3.8177 5.15813,5.13154 0.87618,1.27716 2.06937,3.89024 2.47095,5.41135 0.46229,1.75106 0.64558,6.27328 0.3413,8.4204 -0.69429,4.89945 -2.62313,8.82742 -5.86617,11.94613 -3.61609,3.47746 -8.26792,5.53707 -14.58429,6.45722 -2.16975,0.31607 -7.85736,0.45848 -10.36151,0.25941 z M 124.17718,178.9209 c -0.0634,-0.0634 -0.11535,-16.33684 -0.11535,-36.16311 v -36.04775 h 7.95934 7.95935 v 36.1631 36.16311 h -7.844 c -4.31419,0 -7.8959,-0.0519 -7.95934,-0.11535 z m 29.29961,-0.16157 c 0,-0.96946 2.54116,-30.97636 3.63983,-42.98038 1.14507,-12.511 2.58869,-26.91817 2.85655,-28.50813 l 0.095,-0.56389 8.93701,0.0448 8.93701,0.0448 7.7278,26.90605 c 5.80405,20.20806 7.79573,26.91944 8.00067,26.95986 0.18283,0.036 0.32397,-0.13522 0.42775,-0.51909 0.0852,-0.3151 3.37987,-12.46576 7.32153,-27.00146 l 7.16666,-26.42856 9.10501,-0.002 9.10499,-0.002 0.10748,0.82188 c 0.44745,3.42176 2.30925,23.25574 3.47984,37.07152 0.94794,11.18776 2.68632,33.04606 2.68632,33.7776 v 0.65884 l -7.57003,-0.0451 -7.57003,-0.045 -1.49977,-24.13758 c -0.82487,-13.27566 -1.52563,-24.52689 -1.55726,-25.00272 -0.04,-0.60234 -0.13167,-0.86514 -0.3017,-0.86514 -0.17731,0 -2.13133,6.84709 -7.13523,25.00271 -3.79009,13.7515 -6.89206,25.02219 -6.89326,25.04598 -0.002,0.0238 -3.37406,0.0433 -7.49518,0.0433 h -7.49298 l -6.89272,-24.26736 c -3.791,-13.34704 -7.00162,-24.63719 -7.13471,-25.08923 -0.14576,-0.49513 -0.3425,-0.82189 -0.49481,-0.82189 -0.13907,0 -0.25284,0.11078 -0.25284,0.24618 0,0.13539 -0.89544,11.32491 -1.98984,24.8656 -1.09441,13.54068 -1.98983,24.72006 -1.98983,24.84306 0,0.17895 -1.33091,0.22364 -6.66163,0.22364 -5.99185,0 -6.66163,-0.0278 -6.66163,-0.27692 z m 93.08972,-35.88621 v -36.1631 h 7.95936 7.95933 v 36.1631 36.16311 h -7.95933 -7.95936 z m 31.60669,36.04776 c -0.0634,-0.0634 -0.11537,-16.33684 -0.11537,-36.16311 v -36.04775 h 8.29327 8.29324 l 1.11619,2.03308 c 5.63434,10.26284 18.3041,34.01434 21.62102,40.5321 1.33184,2.61707 2.52815,4.78349 2.65847,4.81425 0.1997,0.0472 0.23695,-3.67248 0.23695,-23.66175 v -23.71768 h 7.18113 7.1811 l -0.0437,36.11985 -0.0437,36.11985 -7.6998,0.0429 -7.69979,0.0429 -13.07261,-24.95837 c -8.65468,-16.5236 -13.17193,-24.97751 -13.3665,-25.01498 -0.27544,-0.053 -0.29391,1.51629 -0.29391,24.9588 v 25.01541 h -7.06535 c -3.88597,0 -7.11729,-0.0519 -7.18072,-0.11535 z m 64.59757,-0.11442 c 0,-0.4405 6.09338,-21.4783 10.4077,-35.93334 4.15897,-13.93447 6.46426,-21.40025 9.6838,-31.36155 l 1.5519,-4.80155 h 8.8063 8.80632 l 0.86738,2.72521 c 3.56024,11.18584 10.57672,34.58634 18.09371,60.34394 1.38863,4.7583 2.56728,8.78849 2.61919,8.95598 0.0893,0.28811 -0.34129,0.30209 -7.9929,0.25954 l -8.08728,-0.045 -2.35009,-8.56495 -2.35006,-8.56494 -10.38162,-0.0437 -10.3816,-0.0437 -2.31699,8.26259 c -1.27434,4.54443 -2.38198,8.4378 -2.46138,8.65192 l -0.14439,0.38931 h -7.18499 c -5.85738,0 -7.185,-0.0425 -7.185,-0.22977 z m 36.25495,-30.6992 c -0.0598,-0.26171 -1.5259,-6.04304 -3.25805,-12.84742 -2.33747,-9.18228 -3.21349,-12.37159 -3.3981,-12.37159 -0.18513,0 -1.05762,3.22969 -3.4122,12.63113 -1.73989,6.94712 -3.16575,12.72846 -3.16857,12.84742 -0.004,0.16938 1.44254,0.21628 6.67024,0.21628 h 6.67536 z"
       id="path4968" /></g></svg>
